<?xml version="1.0" standalone="no"?>
<!DOCTYPE svg PUBLIC "-//W3C//DTD SVG 1.1//EN" "http://www.w3.org/Graphics/SVG/1.1/DTD/svg11.dtd" >
<svg xmlns="http://www.w3.org/2000/svg" xmlns:xlink="http://www.w3.org/1999/xlink" version="1.1">
<metadata>
Created by FontForge 20170731 at Wed Aug 23 14:14:09 2023
 By Aleksey,,,
Copyright (c) 2012 by Toni Hurme. All rights reserved.
</metadata>
<defs>
<font id="HurmeGeometricSans2-LightObl" horiz-adv-x="1386" >
  <font-face 
    font-family="Hurme Geometric Sans 2"
    font-weight="300"
    font-style="italic"
    font-stretch="normal"
    units-per-em="2048"
    panose-1="2 11 4 0 2 0 0 0 0 0"
    ascent="1575"
    descent="-473"
    x-height="1032"
    cap-height="1427"
    bbox="-332 -436 2367 2105"
    underline-thickness="90"
    underline-position="-479"
    slope="-11.5"
    unicode-range="U+000D-FB04"
  />
<missing-glyph horiz-adv-x="1458" 
d="M1313 0h-1458l290 1427h1459zM213 1343l-258 -1259h1290l258 1259h-1290zM717 657l-508 -421l-45 55l510 422l-338 422l67 57l338 -424l506 424l45 -57l-508 -422l336 -422l-67 -55z" />
    <glyph glyph-name="ff" unicode="ff" horiz-adv-x="1099" 
d="M180 0h-102l192 936h-159l18 96h160l28 139q26 134 109 207.5t213 73.5q69 0 100 -8l-20 -96q-27 8 -94 8q-168 0 -209 -203l-25 -121h377l29 139q26 135 109 208t212 73q70 0 101 -8l-21 -96q-27 8 -94 8q-168 0 -209 -203l-25 -121h228l-19 -96h-227l-193 -936h-102
l193 936h-377z" />
    <glyph glyph-name="fi" unicode="fi" horiz-adv-x="929" 
d="M180 0h-102l192 936h-159l18 96h160l28 139q26 135 114.5 208t225.5 73q90 0 121 -8l-18 -96q-36 8 -117 8q-180 0 -227 -203l-25 -121h479l-211 -1032h-104l190 936h-372z" />
    <glyph glyph-name="ffi" unicode="ffi" horiz-adv-x="1409" 
d="M180 0h-102l192 936h-159l18 96h160l28 139q26 136 110 208.5t212 72.5q76 0 100 -8l-20 -96q-27 8 -96 8q-166 0 -207 -203l-25 -121h377l29 139q26 135 114.5 208t225.5 73q89 0 120 -8l-18 -96q-36 8 -117 8q-180 0 -227 -203q-17 -60 -25 -121h480l-211 -1032h-105
l191 936h-373l-193 -936h-102l193 936h-377z" />
    <glyph glyph-name="fj" unicode="fj" horiz-adv-x="929" 
d="M180 0h-102l192 936h-159l18 96h160l28 139q26 135 114.5 208t225.5 73q90 0 121 -8l-18 -96q-36 8 -117 8q-180 0 -227 -203l-25 -121h479l-245 -1200q-28 -137 -98.5 -195.5t-192.5 -58.5q-63 0 -86 10l18 95q30 -9 80 -9q78 0 119 39.5t61 132.5l224 1090h-377z" />
    <glyph glyph-name="ffj" unicode="ffj" horiz-adv-x="1409" 
d="M180 0h-102l192 936h-159l18 96h160l28 139q26 136 110 208.5t212 72.5q76 0 100 -8l-20 -96q-27 8 -96 8q-166 0 -207 -203l-25 -121h377l29 139q26 135 114.5 208t225.5 73q89 0 120 -8l-18 -96q-36 8 -117 8q-180 0 -227 -203l-25 -121h480l-246 -1200
q-28 -137 -98.5 -195.5t-192.5 -58.5q-63 0 -86 10l18 95q30 -9 80 -9q78 0 119.5 39.5t61.5 132.5l223 1090h-377l-193 -936h-102l193 936h-377z" />
    <glyph glyph-name=".notdef" horiz-adv-x="1458" 
d="M1313 0h-1458l290 1427h1459zM213 1343l-258 -1259h1290l258 1259h-1290zM717 657l-508 -421l-45 55l510 422l-338 422l67 57l338 -424l506 424l45 -57l-508 -422l336 -422l-67 -55z" />
    <glyph glyph-name=".null" horiz-adv-x="0" 
 />
    <glyph glyph-name="nonmarkingreturn" horiz-adv-x="682" 
 />
    <glyph glyph-name="NULL" horiz-adv-x="0" 
 />
    <glyph glyph-name="NULL" horiz-adv-x="0" 
 />
    <glyph glyph-name="CR.001" unicode="&#xd;" horiz-adv-x="0" 
 />
    <glyph glyph-name="space" unicode=" " horiz-adv-x="843" 
 />
    <glyph glyph-name="exclam" unicode="!" horiz-adv-x="456" 
d="M193 317h-89l205 1110h129zM18 43q0 32 24 57t56 25q31 0 50.5 -18.5t19.5 -47.5q0 -33 -23.5 -57.5t-58.5 -24.5q-29 0 -48.5 18.5t-19.5 47.5z" />
    <glyph glyph-name="quotedbl" unicode="&#x22;" horiz-adv-x="512" 
d="M440 911h-73l90 516h104zM229 911h-73l90 516h104z" />
    <glyph glyph-name="numbersign" unicode="#" horiz-adv-x="1089" 
d="M195 260h-97l101 219h-183l17 86h205l131 285h-187l19 86h209l98 215h96l-100 -215h287l98 215h96l-98 -215h186l-18 -86h-209l-131 -285h192l-18 -86h-211l-100 -219h-97l101 219h-287zM463 850l-129 -285h284l134 285h-289z" />
    <glyph glyph-name="dollar" unicode="$" horiz-adv-x="1085" 
d="M-2 311l94 41q58 -238 281 -272l133 651q-132 65 -196 143.5t-64 190.5q0 155 116 268q119 113 289 119l43 201h88l-43 -211q97 -17 167.5 -72t99.5 -137l-97 -45q-56 129 -190 153l-111 -538q163 -76 241.5 -168.5t78.5 -214.5q0 -183 -137 -314q-136 -130 -349 -133
l-41 -192h-88l41 203q-140 19 -235 104t-121 223zM528 844l103 506q-119 -11 -198 -87.5t-79 -181.5q0 -77 42 -131t132 -106zM588 690l-125 -616q154 9 254 102t100 227q0 94 -54 159.5t-175 127.5z" />
    <glyph glyph-name="percent" unicode="%" horiz-adv-x="1476" 
d="M455 811q-130 0 -213.5 79t-83.5 202q0 142 104 249q109 109 250 109q130 0 214.5 -81t84.5 -206q0 -137 -102 -245q-101 -107 -254 -107zM195 0h-121l1214 1427h121zM463 895q108 0 182 80t74 180q0 92 -59.5 150.5t-153.5 58.5q-101 0 -178 -80q-74 -80 -74 -182
q0 -91 58 -149t151 -58zM664 260q0 143 104 250q108 108 250 108q130 0 214.5 -80.5t84.5 -205.5q0 -137 -103 -246q-100 -106 -253 -106q-130 0 -213.5 78.5t-83.5 201.5zM760 268q0 -91 58.5 -148t152.5 -57q108 0 180 78q74 80 74 181q0 92 -59.5 151t-153.5 59
q-102 0 -178 -79q-74 -80 -74 -185z" />
    <glyph glyph-name="ampersand" unicode="&#x26;" horiz-adv-x="1499" 
d="M29 393q0 183 110 313t310 187q-33 67 -33 176q0 153 110 266q115 115 267 115q138 0 227 -80q90 -81 90 -203q0 -153 -117 -233h494l-21 -100h-284q-56 -447 -166 -596l178 -238h-131l-115 152q-93 -93 -195 -135t-243 -42q-211 0 -346 117q-135 120 -135 301zM670 702
l278 -378q27 51 35 77q32 83 49 170l15 82q0 3 2.5 18.5t5.5 35.5t6 43q12 76 12 84h-315l14 67q99 12 165.5 81t66.5 169q0 88 -61 143.5t-159 55.5q-106 0 -184 -84q-76 -82 -76 -191q0 -165 146 -373zM137 401q0 -143 105 -235q110 -90 276 -90q221 0 367 155
q-329 428 -396 568q-167 -43 -259.5 -146.5t-92.5 -251.5z" />
    <glyph glyph-name="quotesingle" unicode="'" horiz-adv-x="303" 
d="M229 911h-73l90 516h104z" />
    <glyph glyph-name="parenleft" unicode="(" horiz-adv-x="567" 
d="M162 436q0 -421 248 -715l-64 -57q-285 322 -285 805q0 320 173 608.5t507 526.5l43 -64q-622 -474 -622 -1104z" />
    <glyph glyph-name="parenright" unicode=")" horiz-adv-x="567" 
d="M-207 -338l-43 64q623 475 623 1103q0 421 -248 715l63 58q285 -322 285 -805q0 -320 -173 -608.5t-507 -526.5z" />
    <glyph glyph-name="asterisk" unicode="*" horiz-adv-x="837" 
d="M496 1063l-195 -205l-63 57l202 195l-223 76l47 80l211 -92l43 253h96l-63 -256l252 93l14 -82l-260 -80l125 -191l-76 -49z" />
    <glyph glyph-name="plus" unicode="+" horiz-adv-x="800" 
d="M387 389h-104l57 277h-256l18 96h256l56 274h104l-55 -274h254l-19 -96h-254z" />
    <glyph glyph-name="comma" unicode="," horiz-adv-x="368" 
d="M-254 -262l295 489h135l-340 -489h-90z" />
    <glyph glyph-name="hyphen" unicode="-" horiz-adv-x="718" 
d="M582 492h-535l21 94h532z" />
    <glyph glyph-name="period" unicode="." horiz-adv-x="352" 
d="M37 -12q-31 0 -49.5 18t-18.5 47q0 32 24 57t56 25q31 0 50.5 -18t19.5 -47q0 -33 -23.5 -57.5t-58.5 -24.5z" />
    <glyph glyph-name="slash" unicode="/" horiz-adv-x="833" 
d="M913 1481l-1001 -1760h-113l998 1760h116z" />
    <glyph glyph-name="zero" unicode="0" horiz-adv-x="1134" 
d="M29 362q0 63 67 383q45 214 62 273q49 200 184.5 318t337.5 118q181 0 301 -108q121 -109 121 -277q0 -86 -64 -385q-45 -219 -61 -274q-17 -67 -29 -99q-15 -40 -55 -110q-41 -72 -90 -115q-57 -47 -148 -80t-196 -33q-191 0 -312 109q-118 109 -118 280zM139 369
q0 -132 89 -212.5t243 -80.5q306 0 401 342q12 46 60 266q61 299 61 369q0 133 -89 216t-230 83q-154 0 -258.5 -93t-149.5 -249q-20 -82 -59 -265q-68 -304 -68 -376z" />
    <glyph glyph-name="one" unicode="1" horiz-adv-x="577" 
d="M244 0h-111l270 1329h-208l20 98h320z" />
    <glyph glyph-name="two" unicode="2" horiz-adv-x="1017" 
d="M795 0h-934l837 784q93 87 134.5 160t41.5 148q0 116 -75.5 188t-198.5 72q-125 0 -215 -84q-91 -85 -100 -203h-107q18 160 135 274q118 115 297 115q166 0 269 -100q106 -97 106 -254q0 -184 -190 -365l-686 -637h706z" />
    <glyph glyph-name="three" unicode="3" horiz-adv-x="1134" 
d="M-55 332l96 33q30 -136 136 -212.5t274 -76.5q184 0 315 125t131 293q0 146 -104 237q-106 92 -273 92q-108 0 -188 -24l579 530h-622l20 98h844l-569 -520q2 2 24 2q174 -15 283 -127q110 -113 110 -280q0 -214 -161 -371q-161 -158 -398 -158q-188 0 -327 97
q-135 95 -170 262z" />
    <glyph glyph-name="four" unicode="4" horiz-adv-x="1150" 
d="M805 340h-801l748 1087h118l-680 -987h633l70 336h104l-157 -776h-105z" />
    <glyph glyph-name="five" unicode="5" horiz-adv-x="1120" 
d="M-33 266l99 43q38 -110 138 -171.5t236 -61.5q191 0 318 133q127 136 127 307q0 155 -103 250q-101 98 -264 98q-185 0 -340 -110l258 673h639l-20 -98h-547l-156 -405q70 43 174 43q204 0 332 -125q129 -126 129 -320q0 -218 -156 -385q-156 -164 -399 -164
q-155 0 -287 78q-125 76 -178 215z" />
    <glyph glyph-name="six" unicode="6" horiz-adv-x="1150" 
d="M29 418q0 131 59 231q57 94 201 254l483 524h131l-475 -518q56 39 154 39q192 0 319 -121q125 -119 125 -311q0 -213 -158 -379q-156 -164 -385 -164q-202 0 -327 125q-127 127 -127 320zM137 420q0 -149 99 -248q101 -96 256 -96q183 0 305 131q125 131 125 299
q0 152 -101 246q-104 96 -260 96q-175 0 -301 -129q-123 -129 -123 -299z" />
    <glyph glyph-name="seven" unicode="7" horiz-adv-x="1110" 
d="M240 0h-123l907 1329h-825l20 98h998z" />
    <glyph glyph-name="eight" unicode="8" horiz-adv-x="1093" 
d="M16 375q0 161 105 293q108 135 260 172q-115 83 -115 233q0 151 115 266q118 115 276 115q144 0 238 -88q94 -85 94 -225q0 -109 -63.5 -204t-165.5 -136q87 -42 144 -134t57 -196q0 -198 -144 -348t-362 -150q-190 0 -316 111q-123 114 -123 291zM604 854q116 0 197 84
q80 86 80 195q0 96 -66 157.5t-166 61.5q-112 0 -194 -82t-82 -193q0 -98 64 -160.5t167 -62.5zM127 387q0 -137 92.5 -224t239.5 -87q164 0 278 114q113 116 113 267q0 135 -94 223q-91 88 -236 88q-160 0 -278 -115q-115 -115 -115 -266z" />
    <glyph glyph-name="nine" unicode="9" horiz-adv-x="1136" 
d="M362 0h-131l492 526q-60 -32 -154 -32q-196 0 -317 118q-123 120 -123 308q0 226 154 380q157 154 379 154q196 0 323 -121t127 -309q0 -133 -53 -236q-52 -101 -182 -237zM586 590q194 0 307 125q115 127 115 299q0 148 -99 243q-102 97 -256 97q-176 0 -299 -123
q-121 -124 -121 -301q0 -149 97 -246q98 -94 256 -94z" />
    <glyph glyph-name="colon" unicode=":" horiz-adv-x="352" 
d="M186 725q-31 0 -50 18.5t-19 47.5q0 31 25 56t57 25q31 0 50 -19t19 -48q0 -32 -24 -56t-58 -24zM70 160q-30 0 -49 18t-19 47q0 32 24 57t56 25q31 0 50.5 -18t19.5 -47q0 -33 -23.5 -57.5t-58.5 -24.5z" />
    <glyph glyph-name="semicolon" unicode=";" horiz-adv-x="411" 
d="M227 725q-31 0 -50 18.5t-19 47.5q0 31 25 56t57 25q31 0 50 -19t19 -48q0 -32 -24 -56t-58 -24zM-221 -229l278 456h138l-322 -456h-94z" />
    <glyph glyph-name="less" unicode="&#x3c;" horiz-adv-x="837" 
d="M666 397l-23 -104l-596 436l776 438l-24 -125l-574 -321z" />
    <glyph glyph-name="equal" unicode="=" horiz-adv-x="886" 
d="M817 825h-700l18 95h701zM756 532h-701l21 95h700z" />
    <glyph glyph-name="greater" unicode="&#x3e;" horiz-adv-x="837" 
d="M795 731l-777 -438l25 123l571 323l-440 322l23 106z" />
    <glyph glyph-name="question" unicode="?" horiz-adv-x="800" 
d="M381 315q-109 0 -177.5 57.5t-68.5 149.5q0 69 33.5 127t92.5 107t165 114l61 37l58 37q69 42 90 66q71 62 74 172q0 75 -61 122.5t-159 47.5q-139 0 -276 -113l25 119q106 92 260 92q141 0 231 -72.5t90 -187.5q0 -103 -51 -191q-17 -28 -74 -73q-57 -47 -88 -66
q-8 -5 -47.5 -30.5t-71.5 -45.5l-55 -32q-14 -9 -31.5 -20t-26 -16.5t-21 -14.5t-27.5 -21q-40 -32 -58 -65t-24 -85q0 -51 38.5 -82.5t104.5 -31.5q70 0 129 26l-20 -102q-61 -25 -115 -25zM178 43q0 31 25 56.5t57 25.5q30 0 49 -19t19 -49q0 -33 -22.5 -56.5t-57.5 -23.5
q-31 0 -50.5 18.5t-19.5 47.5z" />
    <glyph glyph-name="at" unicode="@" horiz-adv-x="1646" 
d="M47 522q0 327 240 570t573 243q308 0 502 -182q197 -182 197 -467q0 -185 -103 -330q-101 -143 -252 -143q-76 0 -129 39.5t-53 101.5v13q-34 -59 -106 -98.5t-160 -39.5q-143 0 -234 88q-90 90 -90 228q0 156 115 280q117 123 284 123q96 0 162 -39.5t90 -103.5l27 125
h94l-98 -484q-6 -35 -6 -51q0 -44 28.5 -70t81.5 -26q106 0 179 117q73 116 73 266q0 253 -168 408q-171 157 -440 157q-296 0 -504 -217q-209 -215 -209 -500q0 -255 164 -419q165 -162 434 -162q150 0 269 51l24 -82q-123 -57 -297 -57q-302 0 -495 184q-193 187 -193 477
zM528 555q0 -103 65 -168t169 -65q127 0 209 94q84 96 84 235q0 92 -66 149.5t-172 57.5q-123 0 -205 -94q-84 -93 -84 -209z" />
    <glyph glyph-name="A" unicode="A" horiz-adv-x="1341" 
d="M268 389l-241 -389h-121l915 1466l320 -1466h-107l-86 389h-680zM774 1206l-442 -719h594z" />
    <glyph glyph-name="B" unicode="B" horiz-adv-x="1204" 
d="M586 0h-535l291 1427h391q149 0 240 -88q94 -88 94 -225q0 -110 -70 -211q-65 -95 -176 -137q98 -29 155.5 -113t57.5 -194q0 -185 -127 -324q-126 -135 -321 -135zM430 1329l-104 -516h350q125 0 207 88q84 90 84 199q0 100 -65.5 164.5t-170.5 64.5h-301zM305 717
l-125 -619h404q146 0 247 107t101 239q0 121 -79.5 197t-207.5 76h-340z" />
    <glyph glyph-name="C" unicode="C" horiz-adv-x="1472" 
d="M88 625q0 327 238 577q241 250 575 250q184 0 335 -80t243 -223l-84 -66q-75 128 -205 198.5t-295 70.5q-291 0 -498 -219q-204 -216 -204 -500q0 -248 161 -402q165 -157 424 -157q269 0 469 194l66 -73q-234 -220 -545 -220q-300 0 -492 183q-188 182 -188 467z" />
    <glyph glyph-name="D" unicode="D" horiz-adv-x="1476" 
d="M602 0h-551l291 1427h381q292 0 477 -176q184 -175 184 -448q0 -206 -94 -387q-89 -177 -274 -299q-182 -117 -414 -117zM432 1329l-252 -1231h428q295 0 482 211q188 212 188 486q0 234 -154 385q-152 149 -401 149h-291z" />
    <glyph glyph-name="E" unicode="E" horiz-adv-x="1112" 
d="M846 0h-795l291 1427h780l-20 -98h-672l-106 -526h630l-18 -98h-631l-125 -607h686z" />
    <glyph glyph-name="F" unicode="F" horiz-adv-x="1011" 
d="M160 0h-109l291 1427h705l-21 -98h-596l-106 -530h542l-20 -99h-543z" />
    <glyph glyph-name="G" unicode="G" horiz-adv-x="1538" 
d="M88 612q0 218 105 408q103 190 292 311t416 121q147 0 283.5 -56t228.5 -155l-78 -72q-75 85 -193 134t-251 49q-277 0 -485 -217q-209 -215 -209 -498q0 -254 161 -408q162 -155 420 -155q116 0 229 36t191 97l92 455h-483l20 100h590l-123 -606q-97 -86 -237 -133.5
t-289 -47.5q-295 0 -489 185q-191 185 -191 452z" />
    <glyph glyph-name="H" unicode="H" horiz-adv-x="1449" 
d="M160 0h-109l291 1427h109l-125 -620h839l125 620h111l-291 -1427h-111l146 709h-840z" />
    <glyph glyph-name="I" unicode="I" horiz-adv-x="518" 
d="M168 0h-109l291 1427h109z" />
    <glyph glyph-name="J" unicode="J" horiz-adv-x="647" 
d="M-111 4l21 96q49 -22 129 -22q102 0 157 70t87 225l215 1054h108l-215 -1052q-22 -106 -42 -166.5t-56 -118.5q-70 -115 -250 -115q-91 0 -154 29z" />
    <glyph glyph-name="K" unicode="K" horiz-adv-x="1255" 
d="M160 0h-109l291 1427h109l-166 -811l903 811h141l-708 -641l442 -786h-119l-405 719l-285 -258z" />
    <glyph glyph-name="L" unicode="L" horiz-adv-x="1003" 
d="M772 0h-721l291 1427h109l-271 -1329h613z" />
    <glyph glyph-name="M" unicode="M" horiz-adv-x="1720" 
d="M158 0h-107l297 1462l443 -1042l886 1042l-297 -1462h-108l227 1106l-735 -866l-375 890z" />
    <glyph glyph-name="N" unicode="N" horiz-adv-x="1499" 
d="M160 0h-109l297 1466l750 -1230l243 1191h109l-299 -1464l-750 1229z" />
    <glyph glyph-name="O" unicode="O" horiz-adv-x="1681" 
d="M90 625q0 327 238 577q241 250 577 250q300 0 494 -188q192 -186 192 -476q0 -207 -104 -393q-100 -182 -293 -303q-190 -117 -422 -117q-299 0 -491 183q-191 182 -191 467zM197 633q0 -248 161 -402q165 -157 424 -157q196 0 359 102t253.5 263t90.5 341
q0 254 -162 412q-165 160 -424 160q-291 0 -498 -219q-204 -216 -204 -500z" />
    <glyph glyph-name="P" unicode="P" horiz-adv-x="1140" 
d="M160 0h-109l291 1427h365q179 0 288 -106q113 -107 113 -272q0 -188 -137 -328q-139 -139 -334 -139h-356zM430 1329l-131 -647h346q150 0 252 111q104 110 104 251q0 125 -83 205t-216 80h-272z" />
    <glyph glyph-name="Q" unicode="Q" horiz-adv-x="1681" 
d="M90 625q0 327 238 577q241 250 577 250q300 0 494 -188q192 -186 192 -476q0 -186 -88 -359t-243 -290l98 -157l-82 -54l-96 156q-189 -109 -408 -109q-299 0 -491 183q-191 182 -191 467zM197 633q0 -248 161 -402q165 -157 424 -157q182 0 344 96l-213 350l82 55
l213 -350q130 103 203.5 250t73.5 305q0 254 -162 412q-165 160 -424 160q-291 0 -498 -219q-204 -216 -204 -500z" />
    <glyph glyph-name="R" unicode="R" horiz-adv-x="1210" 
d="M160 0h-109l289 1427h408q174 0 284 -104q111 -105 111 -268q0 -158 -105 -287q-106 -131 -266 -160l219 -608h-112l-220 596h-376zM428 1329l-127 -633h383q147 0 250 109q100 106 100 246q0 123 -81 200.5t-210 77.5h-315z" />
    <glyph glyph-name="S" unicode="S" horiz-adv-x="1118" 
d="M18 311l95 41q64 -278 366 -278q153 0 260 96q105 94 105 233q0 102 -63.5 171t-211.5 141q-155 76 -226 154.5t-71 195.5q0 159 119 272q121 115 291 115q122 0 216 -60t126 -159l-96 -45q-68 164 -254 164q-121 0 -207 -80t-86 -191q0 -93 58 -153t194 -127
q165 -80 243 -169.5t78 -211.5q0 -185 -137 -316t-346 -131q-174 0 -296 88.5t-157 249.5z" />
    <glyph glyph-name="T" unicode="T" horiz-adv-x="1075" 
d="M446 0h-108l270 1329h-413l20 98h938l-20 -98h-416z" />
    <glyph glyph-name="U" unicode="U" 
d="M129 408q0 57 16 139l179 880h110l-188 -923q-8 -33 -8 -94q0 -150 97.5 -241t262.5 -91q175 0 289 101t155 300l195 948h109l-197 -968q-49 -238 -193.5 -358.5t-365.5 -120.5q-209 0 -334 116q-127 118 -127 312z" />
    <glyph glyph-name="V" unicode="V" horiz-adv-x="1316" 
d="M1384 1427l-884 -1466l-289 1466h108l232 -1191l715 1191h118z" />
    <glyph glyph-name="W" unicode="W" horiz-adv-x="1921" 
d="M1055 1171l-674 -1212l-180 1468h106l142 -1157l663 1196l156 -1196l620 1157h115l-786 -1470z" />
    <glyph glyph-name="X" unicode="X" horiz-adv-x="1296" 
d="M66 0h-132l648 748l-330 679h115l290 -602l529 602h133l-612 -700l350 -727h-115l-311 649z" />
    <glyph glyph-name="Y" unicode="Y" horiz-adv-x="1210" 
d="M510 0h-109l121 596l-332 831h115l289 -725l573 725h127l-665 -845z" />
    <glyph glyph-name="Z" unicode="Z" horiz-adv-x="1271" 
d="M1030 0h-1134l1234 1329h-802l20 98h1004l-1233 -1329h932z" />
    <glyph glyph-name="bracketleft" unicode="[" horiz-adv-x="587" 
d="M412 1329l-332 -1626h297l-19 -98h-403l371 1822h403l-20 -98h-297z" />
    <glyph glyph-name="backslash" unicode="\" horiz-adv-x="833" 
d="M598 -279h-98l-285 1760h98z" />
    <glyph glyph-name="bracketright" unicode="]" horiz-adv-x="587" 
d="M-203 -297h297l332 1626h-297l21 98h403l-371 -1822h-403z" />
    <glyph glyph-name="asciicircum" unicode="^" horiz-adv-x="1079" 
d="M182 717h-129l643 764l328 -764h-109l-249 575z" />
    <glyph glyph-name="underscore" unicode="_" horiz-adv-x="620" 
d="M-221 -395l18 96h615l-19 -96h-614z" />
    <glyph glyph-name="grave" unicode="`" horiz-adv-x="1116" 
d="M702 1130h-81l-115 297h135z" />
    <glyph glyph-name="a" unicode="a" horiz-adv-x="1079" 
d="M0 244q0 97 40.5 166t109.5 106q48 28 88.5 42.5t99.5 25.5q55 11 176 22q190 12 246 51q61 40 61 131q0 78 -70 126.5t-182 48.5q-204 0 -309 -181l-70 60q62 101 165 159t225 58q149 0 244.5 -75t95.5 -196q0 -30 -7 -55l-114 -565q-6 -43 -6 -49q0 -47 55 -47
q27 0 39 6l-13 -74q-30 -18 -75 -18q-48 0 -75.5 23t-27.5 61q0 35 9 59q-102 -156 -371 -156q-149 0 -241.5 74.5t-92.5 196.5zM104 256q0 -85 64.5 -135.5t173.5 -50.5q165 0 266.5 75.5t128.5 210.5l45 222q-45 -51 -284 -72q-83 -6 -138 -16.5t-118 -34.5
q-138 -52 -138 -199z" />
    <glyph glyph-name="b" unicode="b" horiz-adv-x="1236" 
d="M82 0h-102l290 1427h103l-115 -555q63 87 162 137t221 50q213 0 350 -137q139 -139 139 -349q0 -146 -69 -278q-69 -135 -205 -225q-140 -93 -309 -93q-156 0 -268 74.5t-148 192.5zM168 453q0 -167 102 -275q103 -106 275 -106q203 0 342 151q139 154 139 346
q0 172 -111 283q-108 111 -286 111q-190 0 -326 -154q-135 -153 -135 -356z" />
    <glyph glyph-name="c" unicode="c" horiz-adv-x="1073" 
d="M27 453q0 242 176 424t420 182q280 0 424 -211l-72 -66q-114 181 -352 181q-203 0 -349 -152q-143 -149 -143 -352q0 -176 113 -283q114 -108 295 -108q190 0 325 135l64 -68q-168 -162 -400 -162q-223 0 -362 133q-139 136 -139 347z" />
    <glyph glyph-name="d" unicode="d" horiz-adv-x="1255" 
d="M27 451q0 239 172 423q176 185 422 185q171 0 284 -76q120 -75 146 -178l129 622h104l-293 -1427h-104l41 199q-133 -222 -416 -222q-215 0 -350 132t-135 342zM131 457q0 -172 107 -279q106 -106 282 -106q213 0 350 155q142 157 142 389q0 156 -111 250
q-114 97 -291 97q-204 0 -342 -156q-137 -155 -137 -350z" />
    <glyph glyph-name="e" unicode="e" horiz-adv-x="1138" 
d="M18 424q0 254 168 440q171 189 416 189q198 0 316 -127q118 -124 118 -326q0 -62 -14 -108h-895q-4 -16 -4 -56q0 -173 101 -273t280 -100q185 0 321 136l64 -70q-160 -160 -389 -160q-221 0 -353 123q-129 126 -129 332zM145 582h785q4 24 4 41q0 147 -94 241t-244 94
q-156 0 -281 -104q-125 -106 -170 -272z" />
    <glyph glyph-name="f" unicode="f" horiz-adv-x="622" 
d="M180 0h-102l192 936h-159l18 96h160l28 139q26 134 109 207.5t213 73.5q65 0 100 -12l-20 -94q-45 10 -94 10q-168 0 -209 -203l-25 -121h227l-18 -96h-227z" />
    <glyph glyph-name="g" unicode="g" horiz-adv-x="1263" 
d="M-35 -242l68 76q140 -174 409 -174q191 0 302 103t159 311l27 123q-134 -220 -414 -220q-214 0 -352 132q-135 132 -135 342q0 237 172 421q175 187 422 187q171 0 284 -76q120 -75 146 -178l47 227h106l-186 -901q-30 -144 -70 -240t-106 -172q-134 -155 -414 -155
q-301 0 -465 194zM133 457q0 -172 107 -279q106 -106 282 -106q212 0 352 155q142 157 142 389q0 156 -113 250q-114 97 -291 97q-204 0 -342 -156q-137 -155 -137 -350z" />
    <glyph glyph-name="h" unicode="h" horiz-adv-x="1091" 
d="M84 0h-104l290 1427h105l-121 -577q52 93 144.5 146t209.5 53q163 0 255.5 -93.5t92.5 -255.5q0 -60 -12 -112q0 -4 -31 -156l-57 -289l-31 -143h-104q0 10 57 285l60 297q10 65 10 100q0 128 -70.5 200t-197.5 72q-141 0 -242.5 -99t-136.5 -271z" />
    <glyph glyph-name="i" unicode="i" horiz-adv-x="356" 
d="M86 0h-104l211 1032h104zM291 1235q-30 0 -49 18t-19 47q0 32 24 57t56 25t51 -18t19 -47q0 -33 -23.5 -57.5t-58.5 -24.5z" />
    <glyph glyph-name="j" unicode="j" horiz-adv-x="350" 
d="M291 1233q-31 0 -49.5 18t-18.5 47q0 31 24 56.5t56 25.5q31 0 50.5 -19t19.5 -48q0 -32 -24 -56t-58 -24zM-53 -154l241 1186h103l-246 -1200q-28 -137 -98.5 -195.5t-192.5 -58.5q-63 0 -86 10l19 95q30 -9 80 -9q78 0 119 39.5t61 132.5z" />
    <glyph glyph-name="k" unicode="k" horiz-adv-x="917" 
d="M84 0h-104l290 1427h105l-189 -927l588 532h137l-493 -454l332 -578h-119l-291 510l-188 -174z" />
    <glyph glyph-name="l" unicode="l" horiz-adv-x="526" 
d="M27 188q0 42 12 103l233 1136h105l-234 -1144q-10 -52 -10 -78q0 -62 36.5 -96.5t102.5 -34.5q38 0 72 12l-22 -96q-27 -10 -70 -10q-104 0 -164.5 55.5t-60.5 152.5z" />
    <glyph glyph-name="m" unicode="m" horiz-adv-x="1693" 
d="M84 0h-104l208 1032h105l-35 -178q100 195 313 195q125 0 202 -66t97 -170q105 236 375 236q154 0 236 -91.5t82 -240.5q0 -39 -11 -111l-127 -606h-104l125 606q8 57 8 99q0 112 -62.5 180.5t-185.5 68.5t-208.5 -83t-116.5 -232l-129 -639h-105l123 608q10 62 10 99
q0 117 -62.5 182t-174.5 65q-127 0 -215 -91.5t-123 -258.5z" />
    <glyph glyph-name="n" unicode="n" horiz-adv-x="1107" 
d="M82 0h-102l208 1032h103l-39 -184q115 201 360 201q170 0 268.5 -98.5t98.5 -264.5q0 -66 -12 -119l-60 -291q-55 -271 -55 -276h-107q0 1 56 276l59 289q10 65 10 105q0 133 -76.5 208.5t-211.5 75.5q-143 0 -245.5 -99t-137.5 -271z" />
    <glyph glyph-name="o" unicode="o" horiz-adv-x="1241" 
d="M27 453q0 243 178 424q179 182 424 182q225 0 362 -137q142 -139 142 -353q0 -232 -175 -413q-174 -183 -428 -183q-222 0 -364 133q-139 136 -139 347zM131 459q0 -176 113 -283q114 -108 295 -108q206 0 348 151q143 152 143 344q0 175 -115 287q-113 113 -297 113
q-200 0 -346 -152q-141 -150 -141 -352z" />
    <glyph glyph-name="p" unicode="p" horiz-adv-x="1236" 
d="M129 244l-129 -639h-100l290 1427h101l-33 -160q61 87 161 137t222 50q213 0 350 -137q137 -134 137 -349q0 -146 -69 -278q-69 -135 -205 -225q-140 -93 -309 -93q-156 0 -268 74.5t-148 192.5zM168 453q0 -167 102 -275q100 -106 273 -106q203 0 342 151
q141 153 141 346q0 175 -111 283q-111 111 -288 111q-190 0 -326 -154q-133 -154 -133 -356z" />
    <glyph glyph-name="q" unicode="q" horiz-adv-x="1257" 
d="M27 451q0 239 172 423q176 185 422 185q171 0 284 -76q120 -75 146 -178l47 227h104l-291 -1427h-104l121 594q-133 -222 -416 -222q-215 0 -350 132t-135 342zM131 457q0 -172 107 -279q106 -106 282 -106q213 0 350 155q142 157 142 389q0 156 -111 250
q-114 97 -291 97q-204 0 -342 -156q-137 -155 -137 -350z" />
    <glyph glyph-name="r" unicode="r" horiz-adv-x="704" 
d="M84 0h-104l210 1032h105l-41 -192q120 209 381 209q27 0 57 -5l-22 -100q-36 8 -64 8q-157 0 -265 -104.5t-144 -280.5z" />
    <glyph glyph-name="s" unicode="s" horiz-adv-x="823" 
d="M-51 244l90 32q29 -97 104.5 -150.5t184.5 -53.5t182 61q74 65 74 152q0 69 -49 117.5t-164 105.5q-115 54 -171.5 118.5t-56.5 157.5q0 111 88 193t215 82q103 0 177.5 -47.5t105.5 -132.5l-90 -37q-20 57 -70 90t-118 33q-84 0 -143.5 -52.5t-59.5 -124.5
q0 -116 196 -204q125 -58 184.5 -128.5t59.5 -168.5q0 -125 -102 -217q-104 -93 -258 -93q-145 0 -246 71.5t-133 195.5z" />
    <glyph glyph-name="t" unicode="t" horiz-adv-x="647" 
d="M90 188q0 48 12 103l134 645h-121l20 96h119l82 395h104l-82 -395h289l-18 -96h-289l-133 -653q-10 -52 -10 -78q0 -61 38.5 -96t106.5 -35q52 0 111 12l-21 -94q-40 -12 -108 -12q-109 0 -171.5 55.5t-62.5 152.5z" />
    <glyph glyph-name="u" unicode="u" horiz-adv-x="1075" 
d="M35 328q0 34 14 114l119 590h106l-122 -608q-11 -64 -11 -96q0 -111 80.5 -182.5t218.5 -71.5q291 0 355 313l131 645h104l-133 -661q-40 -197 -161 -295.5t-304 -98.5q-178 0 -289 99q-108 99 -108 252z" />
    <glyph glyph-name="v" unicode="v" horiz-adv-x="1034" 
d="M1061 1032l-701 -1085l-258 1085h107l194 -839l541 839h117z" />
    <glyph glyph-name="w" unicode="w" horiz-adv-x="1544" 
d="M795 817l-510 -870l-181 1085h99l135 -823l506 876l151 -872l467 819h109l-625 -1085z" />
    <glyph glyph-name="x" unicode="x" horiz-adv-x="1005" 
d="M455 459l-416 -459h-125l494 547l-250 485h112l209 -409l371 409h129l-451 -497l275 -535h-109z" />
    <glyph glyph-name="y" unicode="y" horiz-adv-x="1005" 
d="M193 -176l106 180l-197 1028h103l172 -903l543 903h114l-733 -1214q-53 -89 -82 -125q-36 -48 -97.5 -82.5t-129.5 -34.5q-62 0 -109 21l19 92q46 -17 92 -17q65 0 109 35t90 117z" />
    <glyph glyph-name="z" unicode="z" horiz-adv-x="1011" 
d="M768 0h-913l925 936h-624l20 96h825l-927 -936h712z" />
    <glyph glyph-name="braceleft" unicode="{" horiz-adv-x="620" 
d="M59 -156l86 424q9 40 9 68q0 138 -136 147l13 68q173 15 211 194l94 459q46 223 250 223h90l-17 -84h-73q-121 0 -148 -139l-92 -450q-21 -104 -64 -162t-128 -82q98 -46 98 -174q0 -14 -10 -92l-86 -420q-4 -36 -4 -41q0 -43 29.5 -68.5t80.5 -25.5h62l-19 -84h-69
q-86 0 -134.5 49.5t-48.5 134.5q0 28 6 55z" />
    <glyph glyph-name="bar" unicode="|" horiz-adv-x="473" 
d="M133 -51h-102l311 1530h102z" />
    <glyph glyph-name="braceright" unicode="}" horiz-adv-x="620" 
d="M102 -172l93 451q21 104 64 161.5t128 81.5q-98 46 -98 174q0 14 10 92l86 420q4 36 4 41q0 43 -29.5 68.5t-80.5 25.5h-62l19 84h69q86 0 134 -49.5t48 -134.5q0 -28 -6 -55l-86 -424q-8 -36 -8 -68q0 -135 135 -147l-12 -68q-173 -15 -211 -194l-94 -459
q-46 -223 -250 -223h-90l16 84h74q120 0 147 139z" />
    <glyph glyph-name="asciitilde" unicode="~" horiz-adv-x="835" 
d="M117 631l-68 8q26 72 86 115t135 43q71 0 160 -47q89 -45 143 -45q100 0 146 88l67 -7q-61 -168 -225 -168q-73 0 -164 48q-89 47 -141 47q-99 0 -139 -82z" />
    <glyph glyph-name="exclamdown" unicode="&#xa1;" horiz-adv-x="456" 
d="M272 891q-31 0 -49 18t-18 47q0 31 24.5 56.5t55.5 25.5t50 -19t19 -48q0 -32 -24 -56t-58 -24zM63 -412h-129l246 1110h88z" />
    <glyph glyph-name="cent" unicode="&#xa2;" horiz-adv-x="1105" 
d="M354 0h-94l92 221q-129 55 -200.5 169.5t-71.5 264.5q0 244 174 424q177 183 418 183q53 0 110 -13l76 178h94l-84 -198q140 -50 228 -170l-74 -66q-62 98 -191 146l-358 -854q50 -15 115 -15q187 0 323 136l62 -68q-165 -162 -395 -162q-74 0 -142 19zM391 315l352 842
q-24 8 -69 8q-201 0 -346 -151q-144 -150 -144 -352q0 -118 54.5 -209t152.5 -138z" />
    <glyph glyph-name="sterling" unicode="&#xa3;" horiz-adv-x="1189" 
d="M942 0h-995l18 92h27q92 0 168 24.5t123.5 63t80.5 87t46.5 95t13.5 89.5q0 95 -45 186h-213l20 100h164q-65 136 -65 273q0 176 133 309t315 133q169 0 273 -98q106 -97 106 -254q0 -32 -6 -53h-107q7 25 7 40q0 117 -77.5 191t-201.5 74q-135 0 -235 -103
q-99 -102 -99 -235q0 -129 68 -277h325l-20 -100h-270q36 -88 36 -170q0 -122 -62 -220.5t-167 -148.5h660z" />
    <glyph glyph-name="currency" unicode="&#xa4;" horiz-adv-x="1339" 
d="M311 326l-166 -156l-63 78l176 139q-72 110 -72 242q0 222 172 385l-135 162l76 63l127 -174q125 88 279 88q191 0 311 -117l168 158l63 -78l-178 -139q74 -109 74 -246q0 -221 -174 -383l135 -158l-76 -63l-127 168q-125 -82 -280 -82q-188 0 -310 113zM631 303
q173 0 293 129t120 291q0 150 -96 245t-250 95q-169 0 -292 -129q-121 -130 -121 -297q0 -148 95.5 -241t250.5 -93z" />
    <glyph glyph-name="yen" unicode="&#xa5;" horiz-adv-x="1212" 
d="M520 0h-108l100 500h-436l20 100h436l-73 184h-326l21 99h264l-215 544h110l291 -725l574 725h127l-431 -544h256l-20 -99h-313l-146 -184h422l-20 -100h-432z" />
    <glyph glyph-name="brokenbar" unicode="&#xa6;" horiz-adv-x="473" 
d="M315 850h-102l119 577h102zM143 0h-102l123 602h102z" />
    <glyph glyph-name="section" unicode="&#xa7;" horiz-adv-x="1050" 
d="M18 -74h107q-6 -24 -6 -53q0 -88 60.5 -144.5t158.5 -56.5q109 0 180 74q72 75 72 168q0 52 -29 102q-7 12 -13.5 22t-11 16.5t-13.5 15t-12.5 12t-16 12.5t-16 11.5t-20.5 13.5t-22 14q-43 27 -86 51l-104 66q-203 138 -203 309q0 131 80 218.5t219 127.5
q-88 76 -88 205q0 139 108 244q107 104 263 104q139 0 227 -82q92 -80 92 -205q0 -29 -8 -65h-107q5 35 5 57q0 85 -62 140t-156 55q-104 0 -178 -74q-73 -70 -73 -168q0 -66 37.5 -117.5t125.5 -107.5l88 -55q15 -9 35 -22t33.5 -21.5t22.5 -14.5q204 -137 204 -307
q0 -126 -81 -215.5t-218 -128.5q86 -77 86 -203q0 -136 -104 -243t-266 -107q-142 0 -230 82t-88 207q0 42 8 63zM442 254q43 -24 86 -51q132 25 203.5 98.5t71.5 155.5q0 56 -20 98t-68 82q-46 40 -88 65q-54 36 -119 74q-48 26 -84 53q-133 -28 -202.5 -100t-69.5 -156
q0 -98 65 -163q73 -70 225 -156z" />
    <glyph glyph-name="dieresis" unicode="&#xa8;" horiz-adv-x="1255" 
d="M952 1233q-31 0 -49 18t-18 47q0 31 24 56.5t56 25.5q31 0 50 -19t19 -48q0 -32 -24 -56t-58 -24zM530 1233q-31 0 -49 18t-18 47q0 31 24 56.5t56 25.5q31 0 50 -19t19 -48q0 -32 -24 -56t-58 -24z" />
    <glyph glyph-name="copyright" unicode="&#xa9;" horiz-adv-x="1656" 
d="M78 625q0 329 239 577q242 248 576 248q304 0 496 -186t192 -476q0 -204 -102 -391q-100 -182 -293 -303q-189 -119 -424 -119q-304 0 -494 181t-190 469zM150 627q0 -259 169 -422q170 -164 447 -164q206 0 383 109q171 109 266.5 278t95.5 356q0 264 -172 433
q-167 167 -446 167q-148 3 -288 -61.5t-240 -170t-159.5 -245t-55.5 -280.5zM420 662q0 185 135 323q136 139 319 139q212 0 326 -153l-74 -66q-82 125 -252 125q-142 0 -247 -108q-103 -109 -103 -250q0 -123 81 -200t210 -77q134 0 229 92l64 -65q-126 -123 -305 -123
q-169 0 -277 102q-106 100 -106 261z" />
    <glyph glyph-name="ordfeminine" unicode="&#xaa;" horiz-adv-x="1019" 
d="M430 647q-110 0 -178 55t-68 146q0 62 26.5 112.5t65.5 77.5q35 28 95 43q17 5 31 9t29 7l22.5 4.5t24.5 3.5t21 2.5t26.5 2.5t27.5 2q127 7 172 35.5t45 93.5q0 56 -47.5 90.5t-126.5 34.5q-142 0 -221 -129l-58 47q103 158 287 158q108 0 177 -56.5t69 -144.5
q0 -1 -4 -47l-84 -403q-4 -28 -4 -31q0 -33 39 -33q22 0 30 4l-14 -61q-23 -13 -55 -13q-76 0 -76 64q0 17 4 37q-71 -111 -256 -111zM434 723q117 0 188.5 55.5t90.5 155.5l28 149q-28 -36 -202 -51q-99 -8 -170 -35q-101 -35 -101 -141q0 -60 45.5 -96.5t120.5 -36.5z" />
    <glyph glyph-name="guillemotleft" unicode="&#xab;" horiz-adv-x="761" 
d="M569 160h-110l-154 358l299 359h127l-309 -371zM301 160h-108l-154 358l297 359h127l-309 -371z" />
    <glyph glyph-name="logicalnot" unicode="&#xac;" horiz-adv-x="1126" 
d="M946 782h-837l18 97h940l-98 -486h-103z" />
    <glyph glyph-name="registered" unicode="&#xae;" horiz-adv-x="821" 
d="M465 805q-133 0 -218 80t-85 205q0 145 106 251q109 109 254 109q134 0 219.5 -82t85.5 -209q0 -139 -104 -246q-105 -108 -258 -108zM467 850q133 0 221 94q90 96 90 215q0 109 -71.5 178.5t-186.5 69.5q-128 0 -221 -96q-90 -96 -90 -217q0 -107 71.5 -175.5
t186.5 -68.5zM391 946h-49l76 375h117q47 0 77.5 -29t30.5 -73q0 -43 -26 -78t-68 -45l57 -150h-55l-55 141h-78zM457 1274l-29 -144h82q34 0 58 24t24 56q0 29 -19 46.5t-49 17.5h-67z" />
    <glyph glyph-name="overscore" unicode="&#xaf;" horiz-adv-x="1284" 
d="M1069 1331h-602l20 96h603z" />
    <glyph glyph-name="degree" unicode="&#xb0;" horiz-adv-x="716" 
d="M430 930q-104 0 -168.5 61.5t-64.5 159.5q0 115 82 197q83 86 196 86q103 0 169.5 -64t66.5 -164q0 -107 -82 -192q-81 -84 -199 -84zM438 1022q72 0 122 53t50 123q0 63 -40 103t-103 40q-71 0 -121.5 -55t-50.5 -125q0 -61 40 -100t103 -39z" />
    <glyph glyph-name="plusminus" unicode="&#xb1;" horiz-adv-x="800" 
d="M387 389h-104l57 277h-256l18 96h256l56 274h104l-55 -274h254l-19 -96h-254zM571 45h-614l20 96h615z" />
    <glyph glyph-name="twosuperior" unicode="&#xb2;" horiz-adv-x="684" 
d="M575 672h-512l443 422q88 82 88 147q0 56 -36 91.5t-93 35.5q-115 0 -156 -135h-78q21 96 84 153.5t158 57.5q88 0 145.5 -56.5t57.5 -142.5q0 -95 -94 -186l-334 -314h344z" />
    <glyph glyph-name="threesuperior" unicode="&#xb3;" horiz-adv-x="722" 
d="M362 655q-102 0 -174 53t-92 140l72 24q40 -141 203 -141q91 0 154 59t63 138q0 70 -53 114.5t-140 44.5q-80 0 -119 -20l306 287h-314l15 73h473l-305 -278h16q91 -10 146 -69.5t55 -145.5q0 -115 -88 -197q-85 -82 -218 -82z" />
    <glyph glyph-name="acute" unicode="&#xb4;" horiz-adv-x="1116" 
d="M668 1130h-88l182 297h137z" />
    <glyph glyph-name="mu" unicode="&#xb5;" horiz-adv-x="1077" 
d="M100 168l-114 -563h-103l289 1427h102l-124 -618q-9 -62 -9 -82q0 -118 78.5 -188t216.5 -70q284 0 357 301l135 657h102l-135 -657q-89 -398 -473 -398q-120 0 -206 52t-116 139z" />
    <glyph glyph-name="paragraph" unicode="&#xb6;" horiz-adv-x="995" 
d="M428 0h-109l119 580q-146 12 -234.5 117.5t-88.5 265.5q0 185 129 323q132 141 311 141h557l-20 -98h-138l-270 -1329h-106l270 1329h-150z" />
    <glyph glyph-name="middot" unicode="&#xb7;" horiz-adv-x="342" 
d="M123 442q-29 0 -48.5 18.5t-19.5 47.5q0 51 50 73t81 -10q16 -21 17 -50t-21.5 -54t-58.5 -25z" />
    <glyph glyph-name="cedilla" unicode="&#xb8;" horiz-adv-x="1097" 
d="M287 -162l102 162h86l-74 -111h2q52 -5 83.5 -34.5t31.5 -79.5q0 -66 -53 -108t-133 -42q-102 0 -146 47l37 54q54 -31 107 -31q42 0 70 23t28 55q0 67 -117 67q-18 0 -24 -2z" />
    <glyph glyph-name="onesuperior" unicode="&#xb9;" horiz-adv-x="460" 
d="M274 672h-79l137 682h-99l17 73h178z" />
    <glyph glyph-name="ordmasculine" unicode="&#xba;" horiz-adv-x="948" 
d="M506 651q-161 0 -266 99t-105 251q0 180 129 312q133 133 311 133q168 0 271 -100q104 -98 104 -256q0 -171 -129 -306q-127 -133 -315 -133zM512 737q145 0 244 105q100 106 100 239q0 124 -79.5 202.5t-207.5 78.5q-140 0 -241 -107t-101 -245q0 -119 79 -196t206 -77z
" />
    <glyph glyph-name="guillemotright" unicode="&#xbb;" horiz-adv-x="761" 
d="M344 160h-127l309 370l-147 347h110l154 -359zM76 160h-127l309 370l-147 347h110l154 -359z" />
    <glyph glyph-name="onequarter" unicode="&#xbc;" horiz-adv-x="1351" 
d="M106 0h-104l1135 1427h102zM299 672h-78l137 682h-98l16 73h177zM1018 168h-455l404 588h88l-355 -514h332l35 170h80l-84 -412h-80z" />
    <glyph glyph-name="onehalf" unicode="&#xbd;" horiz-adv-x="1392" 
d="M78 0h-103l1135 1427h102zM299 672h-78l137 682h-98l16 73h177zM1118 0h-512l445 422q86 86 86 147q0 56 -35 91.5t-94 35.5q-116 0 -156 -135h-78q21 96 84 153.5t158 57.5q90 0 146.5 -56t56.5 -143q0 -97 -95 -186l-333 -313h344z" />
    <glyph glyph-name="threequarters" unicode="&#xbe;" horiz-adv-x="1546" 
d="M307 0h-102l1134 1427h103zM111 848l71 24q40 -141 203 -141q88 0 154 60q63 57 63 137q0 70 -53 114.5t-139 44.5q-82 0 -121 -20l307 287h-315l16 73h473l-307 -280q2 2 16 2q92 -10 146.5 -69t54.5 -146q0 -114 -86 -197q-85 -82 -217 -82q-102 0 -174 53t-92 140z
M1212 168h-454l403 588h88l-354 -514h332l35 170h79l-84 -412h-79z" />
    <glyph glyph-name="questiondown" unicode="&#xbf;" horiz-adv-x="800" 
d="M457 891q-31 0 -49.5 18.5t-18.5 48.5q0 33 23.5 56.5t58.5 23.5q29 0 48.5 -18.5t19.5 -44.5q0 -32 -25 -58t-57 -26zM336 700q109 0 177.5 -57t68.5 -149q0 -112 -70 -185q-75 -75 -221 -164l-64 -39l-57 -34q-4 -3 -42.5 -30t-47.5 -36q-2 -2 -10 -10.5t-13 -14.5
t-11.5 -15t-11.5 -17t-7 -15q-19 -64 -19 -100q0 -75 60.5 -122.5t158.5 -47.5q140 0 277 113l-25 -119q-106 -92 -260 -92q-141 0 -231 72.5t-90 187.5q0 104 51 188q16 30 71 76q68 53 89 66l120 75l54 33q73 44 108 72q41 32 58.5 64.5t23.5 84.5q0 51 -39 83t-104 32
q-68 0 -129 -27l20 103q58 24 115 24z" />
    <glyph glyph-name="Agrave" unicode="&#xc0;" horiz-adv-x="1341" 
d="M268 389l-241 -389h-121l915 1466l320 -1466h-107l-86 389h-680zM774 1206l-442 -719h594zM858 1526h-82l-114 297h135z" />
    <glyph glyph-name="Aacute" unicode="&#xc1;" horiz-adv-x="1341" 
d="M866 1526h-88l183 297h139zM268 389l-241 -389h-121l915 1466l320 -1466h-107l-86 389h-680zM774 1206l-442 -719h594z" />
    <glyph glyph-name="Acircumflex" unicode="&#xc2;" horiz-adv-x="1341" 
d="M268 389l-241 -389h-121l915 1466l320 -1466h-107l-86 389h-680zM774 1206l-442 -719h594zM649 1575h-137l377 287l258 -287h-125l-150 190z" />
    <glyph glyph-name="Atilde" unicode="&#xc3;" horiz-adv-x="1341" 
d="M608 1565l-76 6q24 74 77.5 119t123.5 45q60 0 125 -45t109 -45q81 0 118 98l76 -8q-53 -176 -205 -176q-63 0 -131 45q-65 45 -108 45q-74 0 -109 -84zM268 389l-241 -389h-121l915 1466l320 -1466h-107l-86 389h-680zM774 1206l-442 -719h594z" />
    <glyph glyph-name="Adieresis" unicode="&#xc4;" horiz-adv-x="1341" 
d="M1047 1548q-29 0 -48.5 18.5t-19.5 47.5q0 31 25 56.5t57 25.5q31 0 50 -19t19 -49q0 -32 -24 -56t-59 -24zM625 1548q-29 0 -48.5 18.5t-19.5 47.5q0 31 25 56.5t57 25.5q31 0 50.5 -19.5t19.5 -48.5q0 -31 -24.5 -55.5t-59.5 -24.5zM268 389l-241 -389h-121l915 1466
l320 -1466h-107l-86 389h-680zM774 1206l-442 -719h594z" />
    <glyph glyph-name="Aring" unicode="&#xc5;" horiz-adv-x="1341" 
d="M268 389l-241 -389h-121l866 1393q-50 11 -80 49t-30 92q0 74 55.5 130t128.5 56q69 0 112 -41.5t43 -107.5q0 -68 -45.5 -121.5t-115.5 -60.5l301 -1389h-107l-86 389h-680zM823 1458q43 0 74 32.5t31 74.5q0 37 -24 60.5t-62 23.5q-42 0 -74.5 -32.5t-32.5 -74.5
q0 -37 25 -60.5t63 -23.5zM776 1210l-444 -723h594z" />
    <glyph glyph-name="AE" unicode="&#xc6;" horiz-adv-x="1886" 
d="M358 375l-362 -375h-139l1388 1427h653l-20 -98h-573l-107 -524h533l-19 -100h-534l-123 -607h587l-20 -98h-698l77 375h-643zM1171 1208l-714 -735h565z" />
    <glyph glyph-name="Ccedilla" unicode="&#xc7;" horiz-adv-x="1472" 
d="M442 -328l39 52q48 -31 107 -31q42 0 70 23.5t28 56.5q0 67 -117 67q-16 0 -22 -2l90 148q-252 41 -399 213q-150 175 -150 426q0 327 238 577q241 250 575 250q184 0 335 -80t243 -223l-84 -66q-75 128 -205 198.5t-295 70.5q-291 0 -498 -219q-204 -216 -204 -500
q0 -248 161 -402q165 -157 424 -157q269 0 469 194l66 -73q-234 -220 -545 -220q-45 0 -53 2l-58 -92q52 -2 83.5 -31.5t31.5 -78.5q0 -66 -52 -108t-130 -42q-101 0 -148 47z" />
    <glyph glyph-name="Egrave" unicode="&#xc8;" horiz-adv-x="1112" 
d="M846 0h-795l291 1427h780l-20 -98h-672l-106 -526h630l-18 -98h-631l-125 -607h686zM831 1526h-81l-115 297h135z" />
    <glyph glyph-name="Eacute" unicode="&#xc9;" horiz-adv-x="1112" 
d="M774 1526h-88l182 297h140zM846 0h-795l291 1427h780l-20 -98h-672l-106 -526h630l-18 -98h-631l-125 -607h686z" />
    <glyph glyph-name="Ecircumflex" unicode="&#xca;" horiz-adv-x="1112" 
d="M846 0h-795l291 1427h780l-20 -98h-672l-106 -526h630l-18 -98h-631l-125 -607h686zM575 1575h-137l377 287l258 -287h-125l-149 190z" />
    <glyph glyph-name="Edieresis" unicode="&#xcb;" horiz-adv-x="1112" 
d="M981 1573q-30 0 -49 18t-19 47q0 32 24 57t56 25q31 0 50.5 -18t19.5 -47q0 -33 -23.5 -57.5t-58.5 -24.5zM559 1573q-29 0 -48 18t-19 47q0 33 23.5 57.5t55.5 24.5q31 0 50.5 -18t19.5 -47q0 -33 -23.5 -57.5t-58.5 -24.5zM846 0h-795l291 1427h780l-20 -98h-672
l-106 -526h630l-18 -98h-631l-125 -607h686z" />
    <glyph glyph-name="Igrave" unicode="&#xcc;" horiz-adv-x="518" 
d="M465 1526h-84l-113 297h135zM168 0h-109l291 1427h109z" />
    <glyph glyph-name="Iacute" unicode="&#xcd;" horiz-adv-x="518" 
d="M467 1526h-88l182 297h139zM168 0h-109l291 1427h109z" />
    <glyph glyph-name="Icircumflex" unicode="&#xce;" horiz-adv-x="518" 
d="M262 1575h-131l358 287l244 -287h-125l-135 188zM168 0h-109l291 1427h109z" />
    <glyph glyph-name="Idieresis" unicode="&#xcf;" horiz-adv-x="518" 
d="M612 1573q-31 0 -50 18t-19 47q0 32 25 57t57 25q31 0 49 -18t18 -47q0 -33 -23 -57.5t-57 -24.5zM252 1573q-30 0 -49 18t-19 47q0 32 24 57t56 25t51 -18t19 -47q0 -33 -23.5 -57.5t-58.5 -24.5zM168 0h-109l291 1427h109z" />
    <glyph glyph-name="Eth" unicode="&#xd0;" horiz-adv-x="1476" 
d="M602 0h-551l137 684h-122l20 100h123l133 643h381q292 0 477 -176q184 -175 184 -448q0 -206 -94 -387q-89 -177 -274 -299q-182 -117 -414 -117zM301 684l-121 -586h428q295 0 482 211q188 212 188 486q0 234 -154 385q-152 149 -401 149h-291l-113 -545h295l-20 -100
h-293z" />
    <glyph glyph-name="Ntilde" unicode="&#xd1;" horiz-adv-x="1499" 
d="M682 1565l-76 6q26 74 78.5 119t122.5 45q60 0 125 -45t110 -45q80 0 117 98l76 -8q-53 -176 -205 -176q-61 0 -129 45q-65 45 -110 45q-74 0 -109 -84zM160 0h-109l297 1466l750 -1230l243 1191h109l-299 -1464l-750 1229z" />
    <glyph glyph-name="Ograve" unicode="&#xd2;" horiz-adv-x="1681" 
d="M90 625q0 327 238 577q241 250 577 250q300 0 494 -188q192 -186 192 -476q0 -207 -104 -393q-100 -182 -293 -303q-190 -117 -422 -117q-299 0 -491 183q-191 182 -191 467zM197 633q0 -248 161 -402q165 -157 424 -157q196 0 359 102t253.5 263t90.5 341
q0 254 -162 412q-165 160 -424 160q-291 0 -498 -219q-204 -216 -204 -500zM1042 1526h-81l-115 297h135z" />
    <glyph glyph-name="Oacute" unicode="&#xd3;" horiz-adv-x="1681" 
d="M1024 1526h-88l182 297h139zM90 625q0 327 238 577q241 250 577 250q300 0 494 -188q192 -186 192 -476q0 -207 -104 -393q-100 -182 -293 -303q-190 -117 -422 -117q-299 0 -491 183q-191 182 -191 467zM197 633q0 -248 161 -402q165 -157 424 -157q196 0 359 102
t253.5 263t90.5 341q0 254 -162 412q-165 160 -424 160q-291 0 -498 -219q-204 -216 -204 -500z" />
    <glyph glyph-name="Ocircumflex" unicode="&#xd4;" horiz-adv-x="1681" 
d="M811 1575h-135l377 287l258 -287h-127l-148 190zM90 625q0 327 238 577q241 250 577 250q300 0 494 -188q192 -186 192 -476q0 -207 -104 -393q-100 -182 -293 -303q-190 -117 -422 -117q-299 0 -491 183q-191 182 -191 467zM197 633q0 -248 161 -402q165 -157 424 -157
q196 0 359 102t253.5 263t90.5 341q0 254 -162 412q-165 160 -424 160q-291 0 -498 -219q-204 -216 -204 -500z" />
    <glyph glyph-name="Otilde" unicode="&#xd5;" horiz-adv-x="1681" 
d="M770 1565l-76 6q26 74 78.5 119t122.5 45q60 0 125 -45q68 -45 110 -45q80 0 117 98l76 -8q-53 -176 -205 -176q-64 0 -129 45t-108 45q-76 0 -111 -84zM90 625q0 327 238 577q241 250 577 250q300 0 494 -188q192 -186 192 -476q0 -207 -104 -393q-100 -182 -293 -303
q-190 -117 -422 -117q-299 0 -491 183q-191 182 -191 467zM197 633q0 -248 161 -402q165 -157 424 -157q196 0 359 102t253.5 263t90.5 341q0 254 -162 412q-165 160 -424 160q-291 0 -498 -219q-204 -216 -204 -500z" />
    <glyph glyph-name="Odieresis" unicode="&#xd6;" horiz-adv-x="1681" 
d="M1186 1548q-31 0 -49.5 18.5t-18.5 47.5q0 31 24 56.5t56 25.5q31 0 50.5 -19.5t19.5 -48.5q0 -32 -24 -56t-58 -24zM762 1548q-29 0 -48.5 18.5t-19.5 47.5q0 31 24 56.5t56 25.5q31 0 50.5 -19.5t19.5 -48.5q0 -32 -24 -56t-58 -24zM90 625q0 327 238 577
q241 250 577 250q300 0 494 -188q192 -186 192 -476q0 -207 -104 -393q-100 -182 -293 -303q-190 -117 -422 -117q-299 0 -491 183q-191 182 -191 467zM197 633q0 -248 161 -402q165 -157 424 -157q196 0 359 102t253.5 263t90.5 341q0 254 -162 412q-165 160 -424 160
q-291 0 -498 -219q-204 -216 -204 -500z" />
    <glyph glyph-name="multiply" unicode="&#xd7;" horiz-adv-x="800" 
d="M381 618l-283 -237l-57 74l281 237l-183 232l80 65l182 -233l281 235l59 -71l-282 -238l182 -231l-78 -66z" />
    <glyph glyph-name="Oslash" unicode="&#xd8;" horiz-adv-x="1681" 
d="M170 -72l-68 60l172 178q-184 181 -184 459q0 327 238 577q241 250 577 250q266 0 449 -149l178 186l70 -59l-181 -189q170 -182 170 -453q0 -207 -104 -393q-100 -182 -293 -303q-190 -117 -422 -117q-251 0 -432 134zM346 244l936 983q-155 125 -383 125
q-291 0 -498 -219q-204 -216 -204 -500q0 -234 149 -389zM1348 1163l-932 -977q147 -112 366 -112q196 0 359 102t253.5 263t90.5 341q0 231 -137 383z" />
    <glyph glyph-name="Ugrave" unicode="&#xd9;" 
d="M899 1526h-84l-113 297h134zM129 408q0 57 16 139l179 880h110l-188 -923q-8 -33 -8 -94q0 -150 97.5 -241t262.5 -91q175 0 289 101t155 300l195 948h109l-197 -968q-49 -238 -193.5 -358.5t-365.5 -120.5q-209 0 -334 116q-127 118 -127 312z" />
    <glyph glyph-name="Uacute" unicode="&#xda;" 
d="M856 1526h-88l184 297h138zM129 408q0 57 16 139l179 880h110l-188 -923q-8 -33 -8 -94q0 -150 97.5 -241t262.5 -91q175 0 289 101t155 300l195 948h109l-197 -968q-49 -238 -193.5 -358.5t-365.5 -120.5q-209 0 -334 116q-127 118 -127 312z" />
    <glyph glyph-name="Ucircumflex" unicode="&#xdb;" 
d="M668 1575h-138l377 287l258 -287h-125l-147 190zM129 408q0 57 16 139l179 880h110l-188 -923q-8 -33 -8 -94q0 -150 97.5 -241t262.5 -91q175 0 289 101t155 300l195 948h109l-197 -968q-49 -238 -193.5 -358.5t-365.5 -120.5q-209 0 -334 116q-127 118 -127 312z" />
    <glyph glyph-name="Udieresis" unicode="&#xdc;" 
d="M1063 1548q-31 0 -49.5 18.5t-18.5 47.5q0 31 24.5 56.5t55.5 25.5t50.5 -19.5t19.5 -48.5q0 -32 -24 -56t-58 -24zM641 1548q-31 0 -49.5 18.5t-18.5 47.5q0 31 24.5 56.5t55.5 25.5t50.5 -19.5t19.5 -48.5q0 -32 -24 -56t-58 -24zM129 408q0 57 16 139l179 880h110
l-188 -923q-8 -33 -8 -94q0 -150 97.5 -241t262.5 -91q175 0 289 101t155 300l195 948h109l-197 -968q-49 -238 -193.5 -358.5t-365.5 -120.5q-209 0 -334 116q-127 118 -127 312z" />
    <glyph glyph-name="Yacute" unicode="&#xdd;" horiz-adv-x="1210" 
d="M510 0h-109l121 596l-332 831h115l289 -725l573 725h127l-665 -845zM758 1526h-88l182 297h137z" />
    <glyph glyph-name="Thorn" unicode="&#xde;" horiz-adv-x="954" 
d="M160 0h-109l291 1427h109l-66 -317h92q175 0 285 -98t110 -250q0 -181 -131 -318q-130 -139 -321 -139h-197zM367 1010l-125 -602h178q147 0 244 106q100 106 100 244q0 111 -82 181.5t-215 70.5h-100z" />
    <glyph glyph-name="germandbls" unicode="&#xdf;" horiz-adv-x="1116" 
d="M84 0h-107l226 1108q9 49 25.5 94.5t46 92t68.5 80.5t97 55.5t127 21.5q138 0 226 -88q88 -85 88 -219q0 -87 -48.5 -165t-127.5 -116q135 -36 215.5 -137.5t80.5 -241.5q0 -202 -153 -358t-383 -156q-107 0 -156 15l21 102q47 -18 145 -18q175 0 295 123
q121 127 121 280q0 139 -94 227q-97 94 -246 97q-34 -2 -78 -11l19 91q116 9 198 88q82 76 82 172q0 94 -59.5 154.5t-153.5 60.5q-108 0 -170 -74t-80 -170z" />
    <glyph glyph-name="agrave" unicode="&#xe0;" horiz-adv-x="1079" 
d="M676 1130h-84l-113 297h133zM0 244q0 97 40.5 166t109.5 106q48 28 88.5 42.5t99.5 25.5q55 11 176 22q190 12 246 51q61 40 61 131q0 78 -70 126.5t-182 48.5q-204 0 -309 -181l-70 60q62 101 165 159t225 58q149 0 244.5 -75t95.5 -196q0 -30 -7 -55l-114 -565
q-6 -43 -6 -49q0 -47 55 -47q27 0 39 6l-13 -74q-30 -18 -75 -18q-48 0 -75.5 23t-27.5 61q0 35 9 59q-102 -156 -371 -156q-149 0 -241.5 74.5t-92.5 196.5zM104 256q0 -85 64.5 -135.5t173.5 -50.5q165 0 266.5 75.5t128.5 210.5l45 222q-45 -51 -284 -72
q-83 -6 -138 -16.5t-118 -34.5q-138 -52 -138 -199z" />
    <glyph glyph-name="aacute" unicode="&#xe1;" horiz-adv-x="1079" 
d="M647 1130h-88l182 297h140zM0 244q0 97 40.5 166t109.5 106q48 28 88.5 42.5t99.5 25.5q55 11 176 22q190 12 246 51q61 40 61 131q0 78 -70 126.5t-182 48.5q-204 0 -309 -181l-70 60q62 101 165 159t225 58q149 0 244.5 -75t95.5 -196q0 -30 -7 -55l-114 -565
q-6 -43 -6 -49q0 -47 55 -47q27 0 39 6l-13 -74q-30 -18 -75 -18q-48 0 -75.5 23t-27.5 61q0 35 9 59q-102 -156 -371 -156q-149 0 -241.5 74.5t-92.5 196.5zM104 256q0 -85 64.5 -135.5t173.5 -50.5q165 0 266.5 75.5t128.5 210.5l45 222q-45 -51 -284 -72
q-83 -6 -138 -16.5t-118 -34.5q-138 -52 -138 -199z" />
    <glyph glyph-name="acircumflex" unicode="&#xe2;" horiz-adv-x="1079" 
d="M0 244q0 97 40.5 166t109.5 106q48 28 88.5 42.5t99.5 25.5q55 11 176 22q190 12 246 51q61 40 61 131q0 78 -70 126.5t-182 48.5q-204 0 -309 -181l-70 60q62 101 165 159t225 58q149 0 244.5 -75t95.5 -196q0 -30 -7 -55l-114 -565q-6 -43 -6 -49q0 -47 55 -47
q27 0 39 6l-13 -74q-30 -18 -75 -18q-48 0 -75.5 23t-27.5 61q0 35 9 59q-102 -156 -371 -156q-149 0 -241.5 74.5t-92.5 196.5zM104 256q0 -85 64.5 -135.5t173.5 -50.5q165 0 266.5 75.5t128.5 210.5l45 222q-45 -51 -284 -72q-83 -6 -138 -16.5t-118 -34.5
q-138 -52 -138 -199zM457 1180h-138l377 286l258 -286h-125l-149 190z" />
    <glyph glyph-name="atilde" unicode="&#xe3;" horiz-adv-x="1079" 
d="M416 1223l-76 6q24 74 77 118t124 44q60 0 125 -45q67 -43 108 -43q79 0 117 96l76 -6q-53 -176 -205 -176q-62 0 -129 43q-65 45 -109 45q-78 0 -108 -82zM0 244q0 97 40.5 166t109.5 106q48 28 88.5 42.5t99.5 25.5q55 11 176 22q190 12 246 51q61 40 61 131
q0 78 -70 126.5t-182 48.5q-204 0 -309 -181l-70 60q62 101 165 159t225 58q149 0 244.5 -75t95.5 -196q0 -30 -7 -55l-114 -565q-6 -43 -6 -49q0 -47 55 -47q27 0 39 6l-13 -74q-30 -18 -75 -18q-48 0 -75.5 23t-27.5 61q0 35 9 59q-102 -156 -371 -156q-149 0 -241.5 74.5
t-92.5 196.5zM104 256q0 -85 64.5 -135.5t173.5 -50.5q165 0 266.5 75.5t128.5 210.5l45 222q-45 -51 -284 -72q-83 -6 -138 -16.5t-118 -34.5q-138 -52 -138 -199z" />
    <glyph glyph-name="adieresis" unicode="&#xe4;" horiz-adv-x="1079" 
d="M846 1233q-30 0 -49 18t-19 47q0 31 25 56.5t57 25.5q31 0 50.5 -19t19.5 -48q0 -31 -24.5 -55.5t-59.5 -24.5zM442 1233q-31 0 -50 18t-19 47q0 31 25 56.5t57 25.5q31 0 50 -19t19 -48q0 -32 -24 -56t-58 -24zM0 244q0 97 40.5 166t109.5 106q48 28 88.5 42.5
t99.5 25.5q55 11 176 22q190 12 246 51q61 40 61 131q0 78 -70 126.5t-182 48.5q-204 0 -309 -181l-70 60q62 101 165 159t225 58q149 0 244.5 -75t95.5 -196q0 -30 -7 -55l-114 -565q-6 -43 -6 -49q0 -47 55 -47q27 0 39 6l-13 -74q-30 -18 -75 -18q-48 0 -75.5 23
t-27.5 61q0 35 9 59q-102 -156 -371 -156q-149 0 -241.5 74.5t-92.5 196.5zM104 256q0 -85 64.5 -135.5t173.5 -50.5q165 0 266.5 75.5t128.5 210.5l45 222q-45 -51 -284 -72q-83 -6 -138 -16.5t-118 -34.5q-138 -52 -138 -199z" />
    <glyph glyph-name="aring" unicode="&#xe5;" horiz-adv-x="1079" 
d="M655 1145q-69 0 -112 41.5t-43 107.5q0 76 54.5 132.5t131.5 56.5q69 0 113.5 -43.5t44.5 -110.5q0 -73 -55.5 -128.5t-133.5 -55.5zM662 1219q42 0 73 32.5t31 71.5q0 37 -24 60.5t-62 23.5q-42 0 -73.5 -31.5t-31.5 -72.5q0 -37 24.5 -60.5t62.5 -23.5zM0 244
q0 97 40.5 166t109.5 106q48 28 88.5 42.5t99.5 25.5q55 11 176 22q190 12 246 51q61 40 61 131q0 78 -70 126.5t-182 48.5q-204 0 -309 -181l-70 60q62 101 165 159t225 58q149 0 244.5 -75t95.5 -196q0 -30 -7 -55l-114 -565q-6 -43 -6 -49q0 -47 55 -47q27 0 39 6
l-13 -74q-30 -18 -75 -18q-48 0 -75.5 23t-27.5 61q0 35 9 59q-102 -156 -371 -156q-149 0 -241.5 74.5t-92.5 196.5zM104 256q0 -85 64.5 -135.5t173.5 -50.5q165 0 266.5 75.5t128.5 210.5l45 222q-45 -51 -284 -72q-83 -6 -138 -16.5t-118 -34.5q-138 -52 -138 -199z" />
    <glyph glyph-name="ae" unicode="&#xe6;" horiz-adv-x="1847" 
d="M-8 244q0 89 35.5 159.5t89.5 108.5q49 35 129 57q73 21 121.5 27t130.5 8q207 6 278 62q45 36 45 116t-68 130.5t-178 50.5q-202 0 -307 -181l-69 56q60 105 161 163t224 58q128 0 218.5 -62.5t102.5 -156.5q75 100 182 156.5t228 56.5q197 0 311 -129
q117 -126 117 -326q0 -54 -14 -106h-871q-6 -18 -6 -66q0 -167 95.5 -265t264.5 -98q183 0 318 132l59 -66q-160 -160 -381 -160q-147 0 -254.5 61.5t-154.5 176.5q-126 -234 -461 -234q-155 0 -250.5 74.5t-95.5 196.5zM877 582h759q4 24 4 41q0 144 -92 239
q-91 94 -239 94q-149 0 -269 -102q-116 -101 -163 -272zM96 256q0 -85 68.5 -135.5t185.5 -50.5q153 0 257.5 68t146.5 190q-6 41 -6 88q0 63 16 141q-62 -39 -283 -51q-147 -3 -254 -45q-131 -51 -131 -205z" />
    <glyph glyph-name="ccedilla" unicode="&#xe7;" horiz-adv-x="1073" 
d="M233 -328l37 54q54 -31 107 -31q42 0 70 23t28 55q0 67 -117 67q-18 0 -24 -2l92 146q-181 27 -291 155q-108 129 -108 314q0 242 176 424t420 182q280 0 424 -211l-72 -66q-114 181 -352 181q-203 0 -349 -152q-143 -149 -143 -352q0 -176 113 -283q114 -108 295 -108
q190 0 325 135l64 -68q-168 -162 -400 -162q-18 0 -22 2l-55 -86q52 -5 83 -34.5t31 -79.5q0 -66 -53 -108t-133 -42q-102 0 -146 47z" />
    <glyph glyph-name="egrave" unicode="&#xe8;" horiz-adv-x="1138" 
d="M717 1130h-84l-113 297h135zM18 424q0 254 168 440q171 189 416 189q198 0 316 -127q118 -124 118 -326q0 -62 -14 -108h-895q-4 -16 -4 -56q0 -173 101 -273t280 -100q185 0 321 136l64 -70q-160 -160 -389 -160q-221 0 -353 123q-129 126 -129 332zM145 582h785
q4 24 4 41q0 147 -94 241t-244 94q-156 0 -281 -104q-125 -106 -170 -272z" />
    <glyph glyph-name="eacute" unicode="&#xe9;" horiz-adv-x="1138" 
d="M666 1130h-86l182 297h137zM18 424q0 254 168 440q171 189 416 189q198 0 316 -127q118 -124 118 -326q0 -62 -14 -108h-895q-4 -16 -4 -56q0 -173 101 -273t280 -100q185 0 321 136l64 -70q-160 -160 -389 -160q-221 0 -353 123q-129 126 -129 332zM145 582h785
q4 24 4 41q0 147 -94 241t-244 94q-156 0 -281 -104q-125 -106 -170 -272z" />
    <glyph glyph-name="ecircumflex" unicode="&#xea;" horiz-adv-x="1138" 
d="M18 424q0 254 168 440q171 189 416 189q198 0 316 -127q118 -124 118 -326q0 -62 -14 -108h-895q-4 -16 -4 -56q0 -173 101 -273t280 -100q185 0 321 136l64 -70q-160 -160 -389 -160q-221 0 -353 123q-129 126 -129 332zM145 582h785q4 24 4 41q0 147 -94 241t-244 94
q-156 0 -281 -104q-125 -106 -170 -272zM473 1180h-137l377 286l258 -286h-125l-150 190z" />
    <glyph glyph-name="edieresis" unicode="&#xeb;" horiz-adv-x="1138" 
d="M895 1233q-30 0 -49 18t-19 47q0 34 25 57t53.5 23.5t50.5 -16.5q18 -21 19.5 -50t-21.5 -54t-59 -25zM473 1233q-29 0 -48 18t-19 47q0 34 25 57t53.5 23.5t50.5 -16.5q18 -21 19 -50t-22 -54t-59 -25zM18 424q0 254 168 440q171 189 416 189q198 0 316 -127
q118 -124 118 -326q0 -62 -14 -108h-895q-4 -16 -4 -56q0 -173 101 -273t280 -100q185 0 321 136l64 -70q-160 -160 -389 -160q-221 0 -353 123q-129 126 -129 332zM145 582h785q4 24 4 41q0 147 -94 241t-244 94q-156 0 -281 -104q-125 -106 -170 -272z" />
    <glyph glyph-name="igrave" unicode="&#xec;" horiz-adv-x="356" 
d="M311 1130h-84l-112 297h133zM86 0h-104l211 1032h104z" />
    <glyph glyph-name="iacute" unicode="&#xed;" horiz-adv-x="356" 
d="M299 1130h-88l182 297h139zM86 0h-104l211 1032h104z" />
    <glyph glyph-name="icircumflex" unicode="&#xee;" horiz-adv-x="356" 
d="M145 1180h-131l316 286l198 -286h-122l-91 176zM86 0h-104l211 1032h104z" />
    <glyph glyph-name="idieresis" unicode="&#xef;" horiz-adv-x="356" 
d="M414 1233q-30 0 -49 18t-19 47q0 31 25 56.5t57 25.5q31 0 50.5 -19t19.5 -48q0 -31 -24.5 -55.5t-59.5 -24.5zM156 1233q-30 0 -49 18t-19 47q0 51 50 73.5t81 -9.5q16 -21 17 -50t-21.5 -54t-58.5 -25zM86 0h-104l211 1032h104z" />
    <glyph glyph-name="eth" unicode="&#xf0;" horiz-adv-x="1093" 
d="M14 393q0 207 150 363q149 155 354 155q131 0 232 -59.5t139 -161.5q2 8 2 41q-4 125 -58.5 240.5t-144.5 202.5l-211 -170l-53 69l194 158q-118 85 -258 119l29 96q172 -40 313 -150l218 174l51 -71l-201 -160q106 -103 164.5 -251.5t58.5 -317.5q0 -50 -16 -119
q-21 -260 -162 -416q-143 -158 -364 -158q-193 0 -316 117q-121 118 -121 299zM123 399q0 -143 92.5 -233t241.5 -90q169 0 284 127q117 126 117 286q0 141 -93.5 231.5t-240.5 90.5q-165 0 -284 -125q-117 -123 -117 -287z" />
    <glyph glyph-name="ntilde" unicode="&#xf1;" horiz-adv-x="1107" 
d="M440 1223l-75 6q24 74 77 118t123 44q60 0 125 -45q67 -43 109 -43q78 0 116 96l76 -6q-53 -176 -205 -176q-62 0 -129 43q-65 45 -108 45q-79 0 -109 -82zM82 0h-102l208 1032h103l-39 -184q115 201 360 201q170 0 268.5 -98.5t98.5 -264.5q0 -66 -12 -119l-60 -291
q-55 -271 -55 -276h-107q0 1 56 276l59 289q10 65 10 105q0 133 -76.5 208.5t-211.5 75.5q-143 0 -245.5 -99t-137.5 -271z" />
    <glyph glyph-name="ograve" unicode="&#xf2;" horiz-adv-x="1241" 
d="M745 1130h-81l-113 297h133zM27 453q0 243 178 424q179 182 424 182q225 0 362 -137q142 -139 142 -353q0 -232 -175 -413q-174 -183 -428 -183q-222 0 -364 133q-139 136 -139 347zM131 459q0 -176 113 -283q114 -108 295 -108q206 0 348 151q143 152 143 344
q0 175 -115 287q-113 113 -297 113q-200 0 -346 -152q-141 -150 -141 -352z" />
    <glyph glyph-name="oacute" unicode="&#xf3;" horiz-adv-x="1241" 
d="M723 1130h-88l182 297h139zM27 453q0 243 178 424q179 182 424 182q225 0 362 -137q142 -139 142 -353q0 -232 -175 -413q-174 -183 -428 -183q-222 0 -364 133q-139 136 -139 347zM131 459q0 -176 113 -283q114 -108 295 -108q206 0 348 151q143 152 143 344
q0 175 -115 287q-113 113 -297 113q-200 0 -346 -152q-141 -150 -141 -352z" />
    <glyph glyph-name="ocircumflex" unicode="&#xf4;" horiz-adv-x="1241" 
d="M506 1180h-135l377 286l258 -286h-127l-148 190zM27 453q0 243 178 424q179 182 424 182q225 0 362 -137q142 -139 142 -353q0 -232 -175 -413q-174 -183 -428 -183q-222 0 -364 133q-139 136 -139 347zM131 459q0 -176 113 -283q114 -108 295 -108q206 0 348 151
q143 152 143 344q0 175 -115 287q-113 113 -297 113q-200 0 -346 -152q-141 -150 -141 -352z" />
    <glyph glyph-name="otilde" unicode="&#xf5;" horiz-adv-x="1241" 
d="M475 1223l-76 6q24 74 77 118t124 44q60 0 125 -45q67 -43 109 -43q80 0 118 96l76 -6q-53 -176 -207 -176q-60 0 -127 43q-65 45 -110 45q-75 0 -109 -82zM27 453q0 243 178 424q179 182 424 182q225 0 362 -137q142 -139 142 -353q0 -232 -175 -413
q-174 -183 -428 -183q-222 0 -364 133q-139 136 -139 347zM131 459q0 -176 113 -283q114 -108 295 -108q206 0 348 151q143 152 143 344q0 175 -115 287q-113 113 -297 113q-200 0 -346 -152q-141 -150 -141 -352z" />
    <glyph glyph-name="odieresis" unicode="&#xf6;" horiz-adv-x="1241" 
d="M27 453q0 243 178 424q179 182 424 182q225 0 362 -137q142 -139 142 -353q0 -232 -175 -413q-174 -183 -428 -183q-222 0 -364 133q-139 136 -139 347zM131 459q0 -176 113 -283q114 -108 295 -108q206 0 348 151q143 152 143 344q0 175 -115 287q-113 113 -297 113
q-200 0 -346 -152q-141 -150 -141 -352zM926 1233q-31 0 -49.5 18t-18.5 47q0 31 24 56.5t56 25.5q31 0 50.5 -19t19.5 -48q0 -32 -24 -56t-58 -24zM504 1233q-31 0 -49.5 18t-18.5 47q0 31 24 56.5t56 25.5q31 0 50.5 -19t19.5 -48q0 -32 -24 -56t-58 -24z" />
    <glyph glyph-name="divide" unicode="&#xf7;" horiz-adv-x="886" 
d="M487 893q-29 0 -48 18t-19 47q0 31 24 55.5t56 24.5q31 0 50 -18t19 -47q0 -33 -23.5 -56.5t-58.5 -23.5zM784 666h-700l18 96h701zM385 387q-31 0 -50.5 18.5t-19.5 47.5q0 32 25 57t57 25q31 0 50.5 -18.5t19.5 -47.5q0 -33 -23.5 -57.5t-58.5 -24.5z" />
    <glyph glyph-name="oslash" unicode="&#xf8;" horiz-adv-x="1241" 
d="M100 -70l-69 62l123 131q-127 127 -127 330q0 243 178 424q179 182 424 182q177 0 311 -96l119 127l69 -62l-120 -127q125 -131 125 -332q0 -232 -175 -413q-174 -183 -428 -183q-176 0 -307 90zM223 199l647 690q-109 74 -252 74q-200 0 -346 -152q-141 -150 -141 -352
q0 -157 92 -260zM938 825l-645 -688q97 -69 246 -69q206 0 348 151q143 152 143 344q0 153 -92 262z" />
    <glyph glyph-name="ugrave" unicode="&#xf9;" horiz-adv-x="1075" 
d="M35 328q0 34 14 114l119 590h106l-122 -608q-11 -64 -11 -96q0 -111 80.5 -182.5t218.5 -71.5q291 0 355 313l131 645h104l-133 -661q-40 -197 -161 -295.5t-304 -98.5q-178 0 -289 99q-108 99 -108 252zM662 1130h-82l-115 297h135z" />
    <glyph glyph-name="uacute" unicode="&#xfa;" horiz-adv-x="1075" 
d="M621 1130h-89l185 297h137zM35 328q0 34 14 114l119 590h106l-122 -608q-11 -64 -11 -96q0 -111 80.5 -182.5t218.5 -71.5q291 0 355 313l131 645h104l-133 -661q-40 -197 -161 -295.5t-304 -98.5q-178 0 -289 99q-108 99 -108 252z" />
    <glyph glyph-name="ucircumflex" unicode="&#xfb;" horiz-adv-x="1075" 
d="M35 328q0 34 14 114l119 590h106l-122 -608q-11 -64 -11 -96q0 -111 80.5 -182.5t218.5 -71.5q291 0 355 313l131 645h104l-133 -661q-40 -197 -161 -295.5t-304 -98.5q-178 0 -289 99q-108 99 -108 252zM432 1180h-137l377 286l258 -286h-125l-150 190z" />
    <glyph glyph-name="udieresis" unicode="&#xfc;" horiz-adv-x="1075" 
d="M844 1233q-31 0 -50.5 18t-19.5 47q0 31 25 56.5t57 25.5q30 0 49 -19t19 -48q0 -32 -23 -56t-57 -24zM428 1233q-31 0 -49.5 18t-18.5 47q0 31 24 56.5t56 25.5q31 0 50.5 -19t19.5 -48q0 -32 -24 -56t-58 -24zM35 328q0 34 14 114l119 590h106l-122 -608
q-11 -64 -11 -96q0 -111 80.5 -182.5t218.5 -71.5q291 0 355 313l131 645h104l-133 -661q-40 -197 -161 -295.5t-304 -98.5q-178 0 -289 99q-108 99 -108 252z" />
    <glyph glyph-name="yacute" unicode="&#xfd;" horiz-adv-x="1005" 
d="M592 1130h-88l182 297h139zM193 -176l106 180l-197 1028h103l172 -903l543 903h114l-733 -1214q-53 -89 -82 -125q-36 -48 -97.5 -82.5t-129.5 -34.5q-62 0 -109 21l19 92q46 -17 92 -17q65 0 109 35t90 117z" />
    <glyph glyph-name="thorn" unicode="&#xfe;" horiz-adv-x="1236" 
d="M129 244l-129 -639h-100l370 1822h101l-113 -555q62 87 159.5 137t217.5 50q217 0 354 -137q139 -136 139 -349q0 -146 -69 -278q-69 -135 -205 -225q-140 -93 -309 -93q-156 0 -267 74t-149 193zM168 453q0 -167 102 -275q100 -106 273 -106q203 0 342 151
q141 153 141 346q0 176 -113 283q-111 111 -290 111q-189 0 -322 -154t-133 -356z" />
    <glyph glyph-name="ydieresis" unicode="&#xff;" horiz-adv-x="1005" 
d="M807 1233q-30 0 -49 18t-19 47q0 31 25 56.5t57 25.5q31 0 50.5 -19t19.5 -48q0 -31 -24.5 -55.5t-59.5 -24.5zM385 1233q-30 0 -49 18t-19 47q0 31 25 56.5t57 25.5q31 0 50.5 -19t19.5 -48q0 -31 -24.5 -55.5t-59.5 -24.5zM193 -176l106 180l-197 1028h103l172 -903
l543 903h114l-733 -1214q-53 -89 -82 -125q-36 -48 -97.5 -82.5t-129.5 -34.5q-62 0 -109 21l19 92q46 -17 92 -17q65 0 109 35t90 117z" />
    <glyph glyph-name="Amacron" unicode="&#x100;" horiz-adv-x="1341" 
d="M268 389l-241 -389h-121l915 1466l320 -1466h-107l-86 389h-680zM774 1206l-442 -719h594zM1122 1575h-602l21 96h602z" />
    <glyph glyph-name="amacron" unicode="&#x101;" horiz-adv-x="1079" 
d="M956 1243h-602l19 96h602zM0 244q0 97 40.5 166t109.5 106q48 28 88.5 42.5t99.5 25.5q55 11 176 22q190 12 246 51q61 40 61 131q0 78 -70 126.5t-182 48.5q-204 0 -309 -181l-70 60q62 101 165 159t225 58q149 0 244.5 -75t95.5 -196q0 -30 -7 -55l-114 -565
q-6 -43 -6 -49q0 -47 55 -47q27 0 39 6l-13 -74q-30 -18 -75 -18q-48 0 -75.5 23t-27.5 61q0 35 9 59q-102 -156 -371 -156q-149 0 -241.5 74.5t-92.5 196.5zM104 256q0 -85 64.5 -135.5t173.5 -50.5q165 0 266.5 75.5t128.5 210.5l45 222q-45 -51 -284 -72
q-83 -6 -138 -16.5t-118 -34.5q-138 -52 -138 -199z" />
    <glyph glyph-name="Abreve" unicode="&#x102;" horiz-adv-x="1341" 
d="M838 1538q-109 0 -171.5 65t-62.5 177h96q5 -76 41.5 -114t110.5 -38q72 0 126 41.5t79 110.5h94q-32 -117 -113.5 -179.5t-199.5 -62.5zM268 389l-241 -389h-121l915 1466l320 -1466h-107l-86 389h-680zM774 1206l-442 -719h594z" />
    <glyph glyph-name="abreve" unicode="&#x103;" horiz-adv-x="1079" 
d="M645 1186q-109 0 -171 64.5t-62 176.5h96q9 -149 151 -149q150 0 205 149h97q-32 -115 -115 -178t-201 -63zM0 244q0 97 40.5 166t109.5 106q48 28 88.5 42.5t99.5 25.5q55 11 176 22q190 12 246 51q61 40 61 131q0 78 -70 126.5t-182 48.5q-204 0 -309 -181l-70 60
q62 101 165 159t225 58q149 0 244.5 -75t95.5 -196q0 -30 -7 -55l-114 -565q-6 -43 -6 -49q0 -47 55 -47q27 0 39 6l-13 -74q-30 -18 -75 -18q-48 0 -75.5 23t-27.5 61q0 35 9 59q-102 -156 -371 -156q-149 0 -241.5 74.5t-92.5 196.5zM104 256q0 -85 64.5 -135.5
t173.5 -50.5q165 0 266.5 75.5t128.5 210.5l45 222q-45 -51 -284 -72q-83 -6 -138 -16.5t-118 -34.5q-138 -52 -138 -199z" />
    <glyph glyph-name="Aogonek" unicode="&#x104;" horiz-adv-x="1341" 
d="M268 389l-241 -389h-121l915 1466l320 -1466q-207 -115 -207 -223q0 -38 26.5 -63t69.5 -25q62 0 117 24l-35 -82q-42 -22 -104 -22q-75 0 -122.5 40.5t-47.5 106.5q0 137 196 242v2l-86 389h-680zM776 1208l-444 -721h594z" />
    <glyph glyph-name="aogonek" unicode="&#x105;" horiz-adv-x="1079" 
d="M0 244q0 97 40.5 166t109.5 106q48 28 88.5 42.5t99.5 25.5q55 11 176 22q190 12 246 51q61 40 61 131q0 78 -70 126.5t-182 48.5q-204 0 -309 -181l-70 60q62 101 165 159t225 58q149 0 244.5 -75t95.5 -196q0 -30 -7 -55l-114 -565q-6 -43 -6 -49q0 -47 55 -47
q30 0 43 8l-14 -76q-203 -111 -203 -221q0 -41 26.5 -64.5t71.5 -23.5q66 0 117 26l-37 -86q-52 -22 -104 -22q-75 0 -121.5 40.5t-46.5 106.5q0 73 49.5 135.5t130.5 100.5q-64 9 -64 74q0 35 9 59q-102 -156 -371 -156q-149 0 -241.5 74.5t-92.5 196.5zM104 256
q0 -85 64.5 -135.5t173.5 -50.5q165 0 266.5 75.5t128.5 210.5l45 222q-45 -51 -284 -72q-83 -6 -138 -16.5t-118 -34.5q-138 -52 -138 -199z" />
    <glyph glyph-name="Cacute" unicode="&#x106;" horiz-adv-x="1472" 
d="M1014 1526h-88l182 297h139zM88 625q0 327 238 577q241 250 575 250q184 0 335 -80t243 -223l-84 -66q-75 128 -205 198.5t-295 70.5q-291 0 -498 -219q-204 -216 -204 -500q0 -248 161 -402q165 -157 424 -157q269 0 469 194l66 -73q-234 -220 -545 -220
q-300 0 -492 183q-188 182 -188 467z" />
    <glyph glyph-name="cacute" unicode="&#x107;" horiz-adv-x="1073" 
d="M27 453q0 242 176 424t420 182q280 0 424 -211l-72 -66q-114 181 -352 181q-203 0 -349 -152q-143 -149 -143 -352q0 -176 113 -283q114 -108 295 -108q190 0 325 135l64 -68q-168 -162 -400 -162q-223 0 -362 133q-139 136 -139 347zM721 1130h-88l182 297h137z" />
    <glyph glyph-name="Ccircumflex" unicode="&#x108;" horiz-adv-x="1472" 
d="M788 1575h-135l377 287l258 -287h-127l-147 190zM88 625q0 327 238 577q241 250 575 250q184 0 335 -80t243 -223l-84 -66q-75 128 -205 198.5t-295 70.5q-291 0 -498 -219q-204 -216 -204 -500q0 -248 161 -402q165 -157 424 -157q269 0 469 194l66 -73
q-234 -220 -545 -220q-300 0 -492 183q-188 182 -188 467z" />
    <glyph glyph-name="ccircumflex" unicode="&#x109;" horiz-adv-x="1073" 
d="M498 1180h-138l377 286l258 -286h-125l-147 190zM27 453q0 242 176 424t420 182q280 0 424 -211l-72 -66q-114 181 -352 181q-203 0 -349 -152q-143 -149 -143 -352q0 -176 113 -283q114 -108 295 -108q190 0 325 135l64 -68q-168 -162 -400 -162q-223 0 -362 133
q-139 136 -139 347z" />
    <glyph glyph-name="Cdotaccent" unicode="&#x10a;" horiz-adv-x="1472" 
d="M999 1573q-31 0 -50 18t-19 47q0 32 25 57t57 25q31 0 50 -18t19 -47q0 -33 -23.5 -57.5t-58.5 -24.5zM88 625q0 327 238 577q241 250 575 250q184 0 335 -80t243 -223l-84 -66q-75 128 -205 198.5t-295 70.5q-291 0 -498 -219q-204 -216 -204 -500q0 -248 161 -402
q165 -157 424 -157q269 0 469 194l66 -73q-234 -220 -545 -220q-300 0 -492 183q-188 182 -188 467z" />
    <glyph glyph-name="cdotaccent" unicode="&#x10b;" horiz-adv-x="1073" 
d="M705 1233q-30 0 -49 18t-19 47q0 32 25 57t57 25q31 0 50 -18t19 -47q0 -33 -24 -57.5t-59 -24.5zM27 453q0 242 176 424t420 182q280 0 424 -211l-72 -66q-114 181 -352 181q-203 0 -349 -152q-143 -149 -143 -352q0 -176 113 -283q114 -108 295 -108q190 0 325 135
l64 -68q-168 -162 -400 -162q-223 0 -362 133q-139 136 -139 347z" />
    <glyph glyph-name="Ccaron" unicode="&#x10c;" horiz-adv-x="1472" 
d="M1354 1823l-377 -287l-258 287h125l149 -191l224 191h137zM88 625q0 327 238 577q241 250 575 250q184 0 335 -80t243 -223l-84 -66q-75 128 -205 198.5t-295 70.5q-291 0 -498 -219q-204 -216 -204 -500q0 -248 161 -402q165 -157 424 -157q269 0 469 194l66 -73
q-234 -220 -545 -220q-300 0 -492 183q-188 182 -188 467z" />
    <glyph glyph-name="ccaron" unicode="&#x10d;" horiz-adv-x="1073" 
d="M1047 1427l-377 -286l-258 286h125l149 -190l223 190h138zM27 453q0 242 176 424t420 182q280 0 424 -211l-72 -66q-114 181 -352 181q-203 0 -349 -152q-143 -149 -143 -352q0 -176 113 -283q114 -108 295 -108q190 0 325 135l64 -68q-168 -162 -400 -162
q-223 0 -362 133q-139 136 -139 347z" />
    <glyph glyph-name="Dcaron" unicode="&#x10e;" horiz-adv-x="1476" 
d="M1227 1823l-375 -287l-258 287h123l149 -197l230 197h131zM602 0h-551l291 1427h381q292 0 477 -176q184 -175 184 -448q0 -206 -94 -387q-89 -177 -274 -299q-182 -117 -414 -117zM432 1329l-252 -1231h428q295 0 482 211q188 212 188 486q0 234 -154 385
q-152 149 -401 149h-291z" />
    <glyph glyph-name="dcaron" unicode="&#x10f;" horiz-adv-x="1558" 
d="M1374 1130h-88l182 297h140zM27 451q0 239 172 423q176 185 422 185q171 0 284 -76q120 -75 146 -178l129 622h104l-293 -1427h-104l41 199q-133 -222 -416 -222q-215 0 -350 132t-135 342zM131 457q0 -172 107 -279q106 -106 282 -106q213 0 350 155q142 157 142 389
q0 156 -111 250q-114 97 -291 97q-204 0 -342 -156q-137 -155 -137 -350z" />
    <glyph glyph-name="Dcroat" unicode="&#x110;" horiz-adv-x="1476" 
d="M602 0h-551l137 684h-122l20 100h123l133 643h381q292 0 477 -176q184 -175 184 -448q0 -206 -94 -387q-89 -177 -274 -299q-182 -117 -414 -117zM301 684l-121 -586h428q295 0 482 211q188 212 188 486q0 234 -154 385q-152 149 -401 149h-291l-113 -545h295l-20 -100
h-293z" />
    <glyph glyph-name="dslash" unicode="&#x111;" horiz-adv-x="1236" 
d="M27 451q0 239 172 423q176 185 422 185q171 0 284 -76q120 -75 146 -178l79 393h-444l19 84h444l31 145h104l-31 -145h113l-16 -84h-113l-246 -1198h-104l41 199q-133 -222 -416 -222q-215 0 -350 132t-135 342zM131 457q0 -172 107 -279q106 -106 282 -106
q213 0 350 155q142 157 142 389q0 156 -111 250q-114 97 -291 97q-204 0 -342 -156q-137 -155 -137 -350z" />
    <glyph glyph-name="Emacron" unicode="&#x112;" horiz-adv-x="1112" 
d="M846 0h-795l291 1427h780l-20 -98h-672l-106 -526h630l-18 -98h-631l-125 -607h686zM1057 1575h-602l20 96h602z" />
    <glyph glyph-name="emacron" unicode="&#x113;" horiz-adv-x="1138" 
d="M969 1243h-602l18 96h602zM18 424q0 254 168 440q171 189 416 189q198 0 316 -127q118 -124 118 -326q0 -62 -14 -108h-895q-4 -16 -4 -56q0 -173 101 -273t280 -100q185 0 321 136l64 -70q-160 -160 -389 -160q-221 0 -353 123q-129 126 -129 332zM145 582h785
q4 24 4 41q0 147 -94 241t-244 94q-156 0 -281 -104q-125 -106 -170 -272z" />
    <glyph glyph-name="Ebreve" unicode="&#x114;" horiz-adv-x="1112" 
d="M756 1538q-109 0 -171.5 65t-62.5 177h94q6 -76 43 -114t109 -38q73 0 127 41.5t78 110.5h96q-32 -117 -113.5 -179.5t-199.5 -62.5zM846 0h-795l291 1427h780l-20 -98h-672l-106 -526h630l-18 -98h-631l-125 -607h686z" />
    <glyph glyph-name="ebreve" unicode="&#x115;" horiz-adv-x="1138" 
d="M659 1186q-109 0 -171 64.5t-62 176.5h96q5 -76 41.5 -112.5t110.5 -36.5q150 0 205 149h96q-32 -115 -115 -178t-201 -63zM18 424q0 254 168 440q171 189 416 189q198 0 316 -127q118 -124 118 -326q0 -62 -14 -108h-895q-4 -16 -4 -56q0 -173 101 -273t280 -100
q185 0 321 136l64 -70q-160 -160 -389 -160q-221 0 -353 123q-129 126 -129 332zM145 582h785q4 24 4 41q0 147 -94 241t-244 94q-156 0 -281 -104q-125 -106 -170 -272z" />
    <glyph glyph-name="Edotaccent" unicode="&#x116;" horiz-adv-x="1112" 
d="M754 1573q-30 0 -49 18t-19 47q0 32 24 57t56 25q31 0 50.5 -18t19.5 -47q0 -33 -23.5 -57.5t-58.5 -24.5zM846 0h-795l291 1427h780l-20 -98h-672l-106 -526h630l-18 -98h-631l-125 -607h686z" />
    <glyph glyph-name="edotaccent" unicode="&#x117;" horiz-adv-x="1138" 
d="M672 1233q-31 0 -50.5 18t-19.5 47q0 31 25 56.5t57 25.5q30 0 49 -19t19 -48q0 -32 -23 -56t-57 -24zM18 424q0 254 168 440q171 189 416 189q198 0 316 -127q118 -124 118 -326q0 -62 -14 -108h-895q-4 -16 -4 -56q0 -173 101 -273t280 -100q185 0 321 136l64 -70
q-160 -160 -389 -160q-221 0 -353 123q-129 126 -129 332zM145 582h785q4 24 4 41q0 147 -94 241t-244 94q-156 0 -281 -104q-125 -106 -170 -272z" />
    <glyph glyph-name="Eogonek" unicode="&#x118;" horiz-adv-x="1112" 
d="M743 0h-692l291 1427h780l-20 -98h-672l-106 -526h630l-18 -98h-631l-125 -607h686l-20 -98q-207 -112 -207 -223q0 -39 26 -62.5t70 -23.5q61 0 117 24l-37 -84q-42 -22 -104 -22q-75 0 -121.5 40.5t-46.5 106.5q0 149 200 244z" />
    <glyph glyph-name="eogonek" unicode="&#x119;" horiz-adv-x="1138" 
d="M367 -233q0 115 141 206q-16 -4 -35 -4q-212 9 -334 131q-121 124 -121 324q0 254 168 440q171 189 416 189q198 0 316 -127q118 -124 118 -326q0 -62 -14 -108h-895q-4 -16 -4 -56q0 -173 101 -273t280 -100q191 0 325 134l60 -68q-70 -70 -176 -117q-107 -49 -164 -88
q-86 -59 -86 -137q0 -37 27 -60.5t71 -23.5q59 0 117 23l-37 -84q-54 -23 -104 -23q-75 0 -122.5 41t-47.5 107zM145 582h785q4 24 4 41q0 147 -94 241t-244 94q-156 0 -281 -104q-125 -106 -170 -272z" />
    <glyph glyph-name="Ecaron" unicode="&#x11a;" horiz-adv-x="1112" 
d="M1137 1823l-377 -287l-256 287h125l147 -191l225 191h136zM846 0h-795l291 1427h780l-20 -98h-672l-106 -526h630l-18 -98h-631l-125 -607h686z" />
    <glyph glyph-name="ecaron" unicode="&#x11b;" horiz-adv-x="1138" 
d="M1038 1427l-376 -286l-259 286h127l148 -190l225 190h135zM18 424q0 254 168 440q171 189 416 189q198 0 316 -127q118 -124 118 -326q0 -62 -14 -108h-895q-4 -16 -4 -56q0 -173 101 -273t280 -100q185 0 321 136l64 -70q-160 -160 -389 -160q-221 0 -353 123
q-129 126 -129 332zM145 582h785q4 24 4 41q0 147 -94 241t-244 94q-156 0 -281 -104q-125 -106 -170 -272z" />
    <glyph glyph-name="Gcircumflex" unicode="&#x11c;" horiz-adv-x="1538" 
d="M791 1575h-136l377 287l258 -287h-125l-149 190zM88 612q0 218 105 408q103 190 292 311t416 121q147 0 283.5 -56t228.5 -155l-78 -72q-75 85 -193 134t-251 49q-277 0 -485 -217q-209 -215 -209 -498q0 -254 161 -408q162 -155 420 -155q116 0 229 36t191 97l92 455
h-483l20 100h590l-123 -606q-97 -86 -237 -133.5t-289 -47.5q-295 0 -489 185q-191 185 -191 452z" />
    <glyph glyph-name="gcircumflex" unicode="&#x11d;" horiz-adv-x="1263" 
d="M-35 -242l68 76q140 -174 409 -174q191 0 302 103t159 311l27 123q-134 -220 -414 -220q-214 0 -352 132q-135 132 -135 342q0 237 172 421q175 187 422 187q171 0 284 -76q120 -75 146 -178l47 227h106l-186 -901q-30 -144 -70 -240t-106 -172q-134 -155 -414 -155
q-301 0 -465 194zM133 457q0 -172 107 -279q106 -106 282 -106q212 0 352 155q142 157 142 389q0 156 -113 250q-114 97 -291 97q-204 0 -342 -156q-137 -155 -137 -350zM518 1180h-137l377 286l258 -286h-125l-150 190z" />
    <glyph glyph-name="Gbreve" unicode="&#x11e;" horiz-adv-x="1538" 
d="M965 1538q-109 0 -171.5 65t-62.5 177h94q6 -76 43 -114t109 -38q73 0 127 41.5t78 110.5h96q-32 -117 -113.5 -179.5t-199.5 -62.5zM88 612q0 218 105 408q103 190 292 311t416 121q147 0 283.5 -56t228.5 -155l-78 -72q-75 85 -193 134t-251 49q-277 0 -485 -217
q-209 -215 -209 -498q0 -254 161 -408q162 -155 420 -155q116 0 229 36t191 97l92 455h-483l20 100h590l-123 -606q-97 -86 -237 -133.5t-289 -47.5q-295 0 -489 185q-191 185 -191 452z" />
    <glyph glyph-name="gbreve" unicode="&#x11f;" horiz-adv-x="1263" 
d="M717 1186q-109 0 -171.5 64.5t-62.5 176.5h97q5 -76 41 -112.5t110 -36.5q150 0 205 149h96q-32 -115 -115 -178t-200 -63zM-35 -242l68 76q140 -174 409 -174q191 0 302 103t159 311l27 123q-134 -220 -414 -220q-214 0 -352 132q-135 132 -135 342q0 237 172 421
q175 187 422 187q171 0 284 -76q120 -75 146 -178l47 227h106l-186 -901q-30 -144 -70 -240t-106 -172q-134 -155 -414 -155q-301 0 -465 194zM133 457q0 -172 107 -279q106 -106 282 -106q212 0 352 155q142 157 142 389q0 156 -113 250q-114 97 -291 97q-204 0 -342 -156
q-137 -155 -137 -350z" />
    <glyph glyph-name="Gdotaccent" unicode="&#x120;" horiz-adv-x="1538" 
d="M979 1573q-30 0 -49 18t-19 47q0 32 25 57t57 25q31 0 49.5 -18t18.5 -47q0 -33 -23.5 -57.5t-58.5 -24.5zM88 612q0 218 105 408q103 190 292 311t416 121q147 0 283.5 -56t228.5 -155l-78 -72q-75 85 -193 134t-251 49q-277 0 -485 -217q-209 -215 -209 -498
q0 -254 161 -408q162 -155 420 -155q116 0 229 36t191 97l92 455h-483l20 100h590l-123 -606q-97 -86 -237 -133.5t-289 -47.5q-295 0 -489 185q-191 185 -191 452z" />
    <glyph glyph-name="gdotaccent" unicode="&#x121;" horiz-adv-x="1263" 
d="M725 1227q-30 0 -48 17t-18 46q0 32 25 58t57 26q30 0 49 -18t19 -47q0 -33 -24 -57.5t-60 -24.5zM-35 -242l68 76q140 -174 409 -174q191 0 302 103t159 311l27 123q-134 -220 -414 -220q-214 0 -352 132q-135 132 -135 342q0 237 172 421q175 187 422 187
q171 0 284 -76q120 -75 146 -178l47 227h106l-186 -901q-30 -144 -70 -240t-106 -172q-134 -155 -414 -155q-301 0 -465 194zM133 457q0 -172 107 -279q106 -106 282 -106q212 0 352 155q142 157 142 389q0 156 -113 250q-114 97 -291 97q-204 0 -342 -156
q-137 -155 -137 -350z" />
    <glyph glyph-name="Gcommaaccent" unicode="&#x122;" horiz-adv-x="1538" 
d="M88 612q0 218 105 408q103 190 292 311t416 121q147 0 283.5 -56t228.5 -155l-78 -72q-75 85 -193 134t-251 49q-277 0 -485 -217q-209 -215 -209 -498q0 -254 161 -408q162 -155 420 -155q116 0 229 36t191 97l92 455h-483l20 100h590l-123 -606q-97 -86 -237 -133.5
t-289 -47.5q-295 0 -489 185q-191 185 -191 452zM530 -395h-88l183 297h139z" />
    <glyph glyph-name="gcommaaccent" unicode="&#x123;" horiz-adv-x="1263" 
d="M715 1130h-88l184 297h137zM-35 -242l68 76q140 -174 409 -174q191 0 302 103t159 311l27 123q-134 -220 -414 -220q-214 0 -352 132q-135 132 -135 342q0 237 172 421q175 187 422 187q171 0 284 -76q120 -75 146 -178l47 227h106l-186 -901q-30 -144 -70 -240
t-106 -172q-134 -155 -414 -155q-301 0 -465 194zM133 457q0 -172 107 -279q106 -106 282 -106q212 0 352 155q142 157 142 389q0 156 -113 250q-114 97 -291 97q-204 0 -342 -156q-137 -155 -137 -350z" />
    <glyph glyph-name="Hcircumflex" unicode="&#x124;" horiz-adv-x="1449" 
d="M160 0h-109l291 1427h109l-125 -620h839l125 620h111l-291 -1427h-111l146 709h-840zM705 1575h-138l377 287l258 -287h-125l-149 190z" />
    <glyph glyph-name="hcircumflex" unicode="&#x125;" horiz-adv-x="1091" 
d="M162 1477h-133l358 288l244 -288h-123l-135 188zM84 0h-104l290 1427h105l-121 -577q52 93 144.5 146t209.5 53q163 0 255.5 -93.5t92.5 -255.5q0 -60 -12 -112q0 -4 -31 -156l-57 -289l-31 -143h-104q0 10 57 285l60 297q10 65 10 100q0 128 -70.5 200t-197.5 72
q-141 0 -242.5 -99t-136.5 -271z" />
    <glyph glyph-name="Hbar" unicode="&#x126;" horiz-adv-x="1449" 
d="M160 0h-109l213 1055h-119l19 96h119l59 276h109l-56 -276h840l55 276h111l-58 -276h123l-20 -96h-121l-215 -1055h-111l146 709h-840zM375 1055l-49 -248h839l49 248h-839z" />
    <glyph glyph-name="hbar" unicode="&#x127;" horiz-adv-x="1091" 
d="M84 0h-104l241 1196h-112l18 84h113l30 147h105l-31 -147h434l-18 -84h-434l-72 -346q52 93 144.5 146t209.5 53q163 0 255.5 -93.5t92.5 -255.5q0 -60 -12 -112q0 -4 -31 -156l-57 -289l-31 -143h-104q0 10 57 285l60 297q10 65 10 100q0 128 -70.5 200t-197.5 72
q-141 0 -242.5 -99t-136.5 -271z" />
    <glyph glyph-name="Itilde" unicode="&#x128;" horiz-adv-x="518" 
d="M213 1565l-76 6q24 74 77.5 119t123.5 45q60 0 125 -45t108 -45q82 0 119 98l76 -8q-53 -176 -205 -176q-64 0 -129 45t-110 45q-74 0 -109 -84zM168 0h-109l291 1427h109z" />
    <glyph glyph-name="itilde" unicode="&#x129;" horiz-adv-x="376" 
d="M113 1223l-76 8q24 71 71 115.5t105 44.5q47 0 104 -45q61 -43 93 -43q62 0 96 98l74 -8q-52 -174 -181 -174q-48 0 -106 43q-57 45 -92 45q-61 0 -88 -84zM96 0h-104l211 1032h104z" />
    <glyph glyph-name="Imacron" unicode="&#x12a;" horiz-adv-x="518" 
d="M684 1575h-518l20 96h519zM168 0h-109l291 1427h109z" />
    <glyph glyph-name="imacron" unicode="&#x12b;" horiz-adv-x="356" 
d="M500 1243h-447l19 96h448zM86 0h-104l211 1032h104z" />
    <glyph glyph-name="Ibreve" unicode="&#x12c;" horiz-adv-x="518" 
d="M434 1538q-109 0 -171 64.5t-62 177.5h96q5 -76 41.5 -114t110.5 -38q72 0 125.5 41.5t78.5 110.5h97q-32 -116 -115 -179t-201 -63zM168 0h-109l291 1427h109z" />
    <glyph glyph-name="ibreve" unicode="&#x12d;" horiz-adv-x="356" 
d="M276 1192q-89 0 -143.5 56.5t-54.5 154.5l2 24h96q-2 -6 -2 -20q0 -60 30.5 -91.5t86.5 -31.5q60 0 104.5 39t65.5 104h96q-31 -112 -104.5 -173.5t-176.5 -61.5zM86 0h-104l211 1032h104z" />
    <glyph glyph-name="Iogonek" unicode="&#x12e;" horiz-adv-x="518" 
d="M57 -6v2l293 1431h109l-291 -1427q-207 -115 -207 -223q0 -38 26.5 -63t69.5 -25q61 0 117 24l-35 -82q-42 -22 -104 -22q-76 0 -123 39.5t-47 105.5q0 139 192 240z" />
    <glyph glyph-name="iogonek" unicode="&#x12f;" horiz-adv-x="356" 
d="M297 1032l-211 -1032q-209 -114 -209 -223q0 -38 27 -62t71 -24q62 0 115 24l-35 -84q-42 -22 -104 -22q-75 0 -121.5 40.5t-46.5 106.5q0 145 199 244v2l211 1030h104zM291 1235q-30 0 -49 18t-19 47q0 32 24 57t56 25t51 -18t19 -47q0 -33 -23.5 -57.5t-58.5 -24.5z
" />
    <glyph glyph-name="Idot" unicode="&#x130;" horiz-adv-x="518" 
d="M168 0h-109l291 1427h109zM440 1573q-31 0 -49 18t-18 47q0 32 24 57t56 25q31 0 50 -18t19 -47q0 -33 -23.5 -57.5t-58.5 -24.5z" />
    <glyph glyph-name="dotlessi" unicode="&#x131;" horiz-adv-x="356" 
d="M86 0h-104l211 1032h104z" />
    <glyph glyph-name="IJ" unicode="&#x132;" horiz-adv-x="923" 
d="M61 14l21 101q84 -37 197 -37q123 0 186.5 70.5t95.5 224.5l215 1054h109l-215 -1052q-19 -94 -44 -158t-67 -123q-85 -119 -278 -119q-141 0 -220 39zM225 289h-106l231 1138h107z" />
    <glyph glyph-name="ij" unicode="&#x133;" horiz-adv-x="688" 
d="M625 1233q-31 0 -49.5 18t-18.5 47q0 31 24.5 56.5t55.5 25.5t50.5 -19t19.5 -48q0 -32 -24 -56t-58 -24zM291 1233q-31 0 -50.5 18t-19.5 47q0 31 25 56.5t57 25.5q31 0 50.5 -19t19.5 -48q0 -32 -24 -56t-58 -24zM0 4l20 90q61 -22 146 -22q86 0 131 39.5t68 132.5
l161 788h103l-164 -803q-30 -139 -103.5 -196.5t-205.5 -57.5q-106 0 -156 29zM141 283h-102l154 749h102z" />
    <glyph glyph-name="Jcircumflex" unicode="&#x134;" horiz-adv-x="647" 
d="M403 1575h-133l361 287l241 -287h-122l-136 188zM-111 4l21 96q49 -22 129 -22q102 0 157 70t87 225l215 1054h108l-215 -1052q-22 -106 -42 -166.5t-56 -118.5q-70 -115 -250 -115q-91 0 -154 29z" />
    <glyph glyph-name="jcircumflex" unicode="&#x135;" horiz-adv-x="391" 
d="M156 1180h-133l319 286l201 -286h-123l-94 176zM-33 -154l244 1186h102l-245 -1200q-28 -137 -99.5 -195.5t-193.5 -58.5q-59 0 -86 10l18 95q35 -9 82 -9q77 0 117.5 39.5t60.5 132.5z" />
    <glyph glyph-name="Kcommaaccent" unicode="&#x136;" horiz-adv-x="1255" 
d="M160 0h-109l291 1427h109l-166 -811l903 811h141l-708 -641l442 -786h-119l-405 719l-285 -258zM287 -395l182 297h139l-233 -297h-88z" />
    <glyph glyph-name="kcommaaccent" unicode="&#x137;" horiz-adv-x="917" 
d="M84 0h-104l290 1427h105l-189 -927l588 532h137l-493 -454l332 -578h-119l-291 510l-188 -174zM82 -395l184 297h137l-233 -297h-88z" />
    <glyph glyph-name="Lacute" unicode="&#x139;" horiz-adv-x="1003" 
d="M473 1526h-88l182 297h140zM772 0h-721l291 1427h109l-271 -1329h613z" />
    <glyph glyph-name="lacute" unicode="&#x13a;" horiz-adv-x="526" 
d="M367 1479h-86l182 297h137zM27 188q0 42 12 103l233 1136h105l-234 -1144q-10 -52 -10 -78q0 -62 36.5 -96.5t102.5 -34.5q38 0 72 12l-22 -96q-27 -10 -70 -10q-104 0 -164.5 55.5t-60.5 152.5z" />
    <glyph glyph-name="Lcommaaccent" unicode="&#x13b;" horiz-adv-x="1003" 
d="M772 0h-721l291 1427h109l-271 -1329h613zM162 -395l184 297h137l-233 -297h-88z" />
    <glyph glyph-name="lcommaaccent" unicode="&#x13c;" horiz-adv-x="526" 
d="M27 188q0 42 12 103l233 1136h105l-234 -1144q-10 -52 -10 -78q0 -62 36.5 -96.5t102.5 -34.5q38 0 72 12l-22 -96q-27 -10 -70 -10q-104 0 -164.5 55.5t-60.5 152.5zM-129 -395l182 297h137l-233 -297h-86z" />
    <glyph glyph-name="Lcaron" unicode="&#x13d;" horiz-adv-x="1003" 
d="M686 1130h-88l182 297h140zM772 0h-721l291 1427h109l-271 -1329h613z" />
    <glyph glyph-name="lcaron" unicode="&#x13e;" horiz-adv-x="610" 
d="M498 1130h-88l182 297h139zM27 188q0 42 12 103l233 1136h105l-234 -1144q-10 -52 -10 -78q0 -62 36.5 -96.5t102.5 -34.5q38 0 72 12l-22 -96q-27 -10 -70 -10q-104 0 -164.5 55.5t-60.5 152.5z" />
    <glyph glyph-name="Ldot" unicode="&#x13f;" horiz-adv-x="1003" 
d="M772 0h-721l291 1427h109l-271 -1329h613zM633 696q-31 0 -49.5 18.5t-18.5 47.5q0 32 24 57t56 25q31 0 50.5 -18.5t19.5 -47.5q0 -33 -23.5 -57.5t-58.5 -24.5z" />
    <glyph glyph-name="ldot" unicode="&#x140;" horiz-adv-x="571" 
d="M27 188q0 42 12 103l233 1136h105l-234 -1144q-10 -52 -10 -78q0 -62 36.5 -96.5t102.5 -34.5q38 0 72 12l-22 -96q-27 -10 -70 -10q-104 0 -164.5 55.5t-60.5 152.5zM420 682q-29 0 -48.5 18.5t-19.5 44.5q0 32 24 57t56 25t51 -18t19 -47q0 -32 -24 -56t-58 -24z" />
    <glyph glyph-name="Lslash" unicode="&#x141;" horiz-adv-x="1003" 
d="M772 0h-721l123 608l-154 -80l23 115l154 78l145 706h109l-132 -645l322 168l-23 -114l-321 -166l-117 -572h613z" />
    <glyph glyph-name="lslash" unicode="&#x142;" horiz-adv-x="550" 
d="M53 188q0 36 13 103l75 377l-151 -82l22 110l152 80l135 651h104l-120 -587l194 104l-22 -110l-193 -105l-92 -446q-10 -52 -10 -78q0 -62 36.5 -96.5t102.5 -34.5q37 0 72 12l-23 -96q-27 -10 -69 -10q-104 0 -165 55.5t-61 152.5z" />
    <glyph glyph-name="Nacute" unicode="&#x143;" horiz-adv-x="1499" 
d="M915 1526h-88l183 297h139zM160 0h-109l297 1466l750 -1230l243 1191h109l-299 -1464l-750 1229z" />
    <glyph glyph-name="nacute" unicode="&#x144;" horiz-adv-x="1107" 
d="M659 1130h-88l183 297h139zM82 0h-102l208 1032h103l-39 -184q115 201 360 201q170 0 268.5 -98.5t98.5 -264.5q0 -66 -12 -119l-60 -291q-55 -271 -55 -276h-107q0 1 56 276l59 289q10 65 10 105q0 133 -76.5 208.5t-211.5 75.5q-143 0 -245.5 -99t-137.5 -271z" />
    <glyph glyph-name="Ncommaaccent" unicode="&#x145;" horiz-adv-x="1499" 
d="M160 0h-109l297 1466l750 -1230l243 1191h109l-299 -1464l-750 1229zM467 -395h-88l184 297h137z" />
    <glyph glyph-name="ncommaaccent" unicode="&#x146;" horiz-adv-x="1107" 
d="M82 0h-102l208 1032h103l-39 -184q115 201 360 201q170 0 268.5 -98.5t98.5 -264.5q0 -66 -12 -119l-60 -291q-55 -271 -55 -276h-107q0 1 56 276l59 289q10 65 10 105q0 133 -76.5 208.5t-211.5 75.5q-143 0 -245.5 -99t-137.5 -271zM188 -395l185 297h137l-234 -297
h-88z" />
    <glyph glyph-name="Ncaron" unicode="&#x147;" horiz-adv-x="1499" 
d="M1274 1823l-377 -287l-258 287h123l149 -197l230 197h133zM160 0h-109l297 1466l750 -1230l243 1191h109l-299 -1464l-750 1229z" />
    <glyph glyph-name="ncaron" unicode="&#x148;" horiz-adv-x="1107" 
d="M1026 1427l-377 -286l-258 286h125l150 -190l223 190h137zM82 0h-102l208 1032h103l-39 -184q115 201 360 201q170 0 268.5 -98.5t98.5 -264.5q0 -66 -12 -119l-60 -291q-55 -271 -55 -276h-107q0 1 56 276l59 289q10 65 10 105q0 133 -76.5 208.5t-211.5 75.5
q-143 0 -245.5 -99t-137.5 -271z" />
    <glyph glyph-name="Eng" unicode="&#x14a;" horiz-adv-x="1499" 
d="M160 0h-109l297 1464l733 -1306l258 1269h111l-295 -1447q-19 -97 -41 -159t-59 -120q-75 -121 -248 -121q-90 0 -154 25l23 100q49 -22 127 -22q103 0 157.5 69.5t86.5 224.5l6 25l-654 1172z" />
    <glyph glyph-name="eng" unicode="&#x14b;" horiz-adv-x="1093" 
d="M84 0h-104l210 1032h103l-39 -184q52 95 144 148t212 53q164 0 257.5 -94.5t93.5 -256.5q0 -57 -13 -114l-151 -746q-28 -137 -98.5 -195.5t-192.5 -58.5q-60 0 -90 10l20 95q27 -8 80 -8q79 0 120 39.5t60 132.5l146 727q10 92 10 100q0 129 -72.5 201.5t-201.5 72.5
q-141 0 -241.5 -99t-135.5 -271z" />
    <glyph glyph-name="Omacron" unicode="&#x14c;" horiz-adv-x="1681" 
d="M90 625q0 327 238 577q241 250 577 250q300 0 494 -188q192 -186 192 -476q0 -207 -104 -393q-100 -182 -293 -303q-190 -117 -422 -117q-299 0 -491 183q-191 182 -191 467zM197 633q0 -248 161 -402q165 -157 424 -157q196 0 359 102t253.5 263t90.5 341
q0 254 -162 412q-165 160 -424 160q-291 0 -498 -219q-204 -216 -204 -500zM1280 1575h-602l20 96h602z" />
    <glyph glyph-name="omacron" unicode="&#x14d;" horiz-adv-x="1241" 
d="M1008 1243h-602l18 96h602zM27 453q0 243 178 424q179 182 424 182q225 0 362 -137q142 -139 142 -353q0 -232 -175 -413q-174 -183 -428 -183q-222 0 -364 133q-139 136 -139 347zM131 459q0 -176 113 -283q114 -108 295 -108q206 0 348 151q143 152 143 344
q0 175 -115 287q-113 113 -297 113q-200 0 -346 -152q-141 -150 -141 -352z" />
    <glyph glyph-name="Obreve" unicode="&#x14e;" horiz-adv-x="1681" 
d="M993 1538q-109 0 -171 64.5t-62 177.5h96q5 -76 41.5 -114t110.5 -38q72 0 125.5 41.5t78.5 110.5h97q-32 -116 -115 -179t-201 -63zM90 625q0 327 238 577q241 250 577 250q300 0 494 -188q192 -186 192 -476q0 -207 -104 -393q-100 -182 -293 -303q-190 -117 -422 -117
q-299 0 -491 183q-191 182 -191 467zM197 633q0 -248 161 -402q165 -157 424 -157q196 0 359 102t253.5 263t90.5 341q0 254 -162 412q-165 160 -424 160q-291 0 -498 -219q-204 -216 -204 -500z" />
    <glyph glyph-name="obreve" unicode="&#x14f;" horiz-adv-x="1241" 
d="M705 1186q-109 0 -171.5 64.5t-62.5 176.5h96q5 -76 41.5 -112.5t110.5 -36.5q150 0 205 149h96q-32 -115 -115 -178t-200 -63zM27 453q0 243 178 424q179 182 424 182q225 0 362 -137q142 -139 142 -353q0 -232 -175 -413q-174 -183 -428 -183q-222 0 -364 133
q-139 136 -139 347zM131 459q0 -176 113 -283q114 -108 295 -108q206 0 348 151q143 152 143 344q0 175 -115 287q-113 113 -297 113q-200 0 -346 -152q-141 -150 -141 -352z" />
    <glyph glyph-name="Ohungarumlaut" unicode="&#x150;" horiz-adv-x="1681" 
d="M1165 1526h-86l205 297h137zM850 1526h-86l205 297h137zM90 625q0 327 238 577q241 250 577 250q300 0 494 -188q192 -186 192 -476q0 -207 -104 -393q-100 -182 -293 -303q-190 -117 -422 -117q-299 0 -491 183q-191 182 -191 467zM197 633q0 -248 161 -402
q165 -157 424 -157q196 0 359 102t253.5 263t90.5 341q0 254 -162 412q-165 160 -424 160q-291 0 -498 -219q-204 -216 -204 -500z" />
    <glyph glyph-name="ohungarumlaut" unicode="&#x151;" horiz-adv-x="1241" 
d="M874 1130h-83l202 297h137zM559 1130h-84l203 297h137zM27 453q0 243 178 424q179 182 424 182q225 0 362 -137q142 -139 142 -353q0 -232 -175 -413q-174 -183 -428 -183q-222 0 -364 133q-139 136 -139 347zM131 459q0 -176 113 -283q114 -108 295 -108q206 0 348 151
q143 152 143 344q0 175 -115 287q-113 113 -297 113q-200 0 -346 -152q-141 -150 -141 -352z" />
    <glyph glyph-name="OE" unicode="&#x152;" horiz-adv-x="2275" 
d="M88 625q-4 125 36.5 249.5t117 228.5t176.5 184t224.5 124t252.5 41q247 0 412 -119q166 -117 213 -293l79 387h768l-20 -98h-657l-107 -526h617l-19 -98h-616l-125 -607h671l-20 -98h-782l57 281q-98 -148 -254 -227t-348 -79q-296 0 -488 183q-188 182 -188 467z
M195 633q0 -248 159 -404q158 -155 418 -155q171 0 313.5 74t225.5 194q79 117 121.5 235.5t42.5 221.5q0 237 -158 395t-428 158q-285 0 -492 -219q-202 -217 -202 -500z" />
    <glyph glyph-name="oe" unicode="&#x153;" horiz-adv-x="2123" 
d="M27 453q0 243 178 424q179 182 424 182q183 0 311 -98q133 -100 160 -252q64 155 198 247q142 97 308 97q197 0 315 -127q117 -126 117 -326q0 -64 -13 -108h-895q-4 -16 -4 -56q0 -173 101 -273t280 -100q190 0 324 134l61 -68q-160 -160 -389 -160q-181 0 -302.5 89.5
t-151.5 238.5q-66 -144 -205 -234q-140 -90 -316 -90q-220 0 -362 133q-139 136 -139 347zM131 459q0 -176 113 -283q114 -108 295 -108q206 0 348 151q141 153 141 344q0 175 -115 287q-113 113 -295 113q-200 0 -346 -152q-141 -150 -141 -352zM1149 582h784q4 24 4 41
q0 147 -94 241t-244 94q-155 0 -280 -104q-125 -106 -170 -272z" />
    <glyph glyph-name="Racute" unicode="&#x154;" horiz-adv-x="1210" 
d="M752 1526h-88l182 297h139zM160 0h-109l289 1427h408q174 0 284 -104q111 -105 111 -268q0 -158 -105 -287q-106 -131 -266 -160l219 -608h-112l-220 596h-376zM428 1329l-127 -633h383q147 0 250 109q100 106 100 246q0 123 -81 200.5t-210 77.5h-315z" />
    <glyph glyph-name="racute" unicode="&#x155;" horiz-adv-x="704" 
d="M442 1130h-86l183 297h137zM84 0h-104l210 1032h105l-41 -192q120 209 381 209q27 0 57 -5l-22 -100q-36 8 -64 8q-157 0 -265 -104.5t-144 -280.5z" />
    <glyph glyph-name="Rcommaaccent" unicode="&#x156;" horiz-adv-x="1210" 
d="M160 0h-109l289 1427h408q174 0 284 -104q111 -105 111 -268q0 -158 -105 -287q-106 -131 -266 -160l219 -608h-112l-220 596h-376zM428 1329l-127 -633h383q147 0 250 109q100 106 100 246q0 123 -81 200.5t-210 77.5h-315zM264 -395l182 297h140l-234 -297h-88z" />
    <glyph glyph-name="rcommaaccent" unicode="&#x157;" horiz-adv-x="704" 
d="M84 0h-104l210 1032h105l-41 -192q120 209 381 209q27 0 57 -5l-22 -100q-36 8 -64 8q-157 0 -265 -104.5t-144 -280.5zM-193 -395l183 297h137l-231 -297h-89z" />
    <glyph glyph-name="Rcaron" unicode="&#x158;" horiz-adv-x="1210" 
d="M160 0h-109l289 1427h408q174 0 284 -104q111 -105 111 -268q0 -158 -105 -287q-106 -131 -266 -160l219 -608h-112l-220 596h-376zM428 1329l-127 -633h383q147 0 250 109q100 106 100 246q0 123 -81 200.5t-210 77.5h-315zM1118 1823l-377 -287l-258 287h125l148 -191
l225 191h137z" />
    <glyph glyph-name="rcaron" unicode="&#x159;" horiz-adv-x="704" 
d="M821 1427l-377 -286l-256 286h125l148 -190l225 190h135zM84 0h-104l210 1032h105l-41 -192q120 209 381 209q27 0 57 -5l-22 -100q-36 8 -64 8q-157 0 -265 -104.5t-144 -280.5z" />
    <glyph glyph-name="Sacute" unicode="&#x15a;" horiz-adv-x="1118" 
d="M18 311l95 41q64 -278 366 -278q153 0 260 96q105 94 105 233q0 102 -63.5 171t-211.5 141q-155 76 -226 154.5t-71 195.5q0 159 119 272q121 115 291 115q122 0 216 -60t126 -159l-96 -45q-68 164 -254 164q-121 0 -207 -80t-86 -191q0 -93 58 -153t194 -127
q165 -80 243 -169.5t78 -211.5q0 -185 -137 -316t-346 -131q-174 0 -296 88.5t-157 249.5zM768 1526h-88l182 297h137z" />
    <glyph glyph-name="sacute" unicode="&#x15b;" horiz-adv-x="823" 
d="M514 1130h-88l184 297h138zM-51 244l90 32q29 -97 104.5 -150.5t184.5 -53.5t182 61q74 65 74 152q0 69 -49 117.5t-164 105.5q-115 54 -171.5 118.5t-56.5 157.5q0 111 88 193t215 82q103 0 177.5 -47.5t105.5 -132.5l-90 -37q-20 57 -70 90t-118 33q-84 0 -143.5 -52.5
t-59.5 -124.5q0 -116 196 -204q125 -58 184.5 -128.5t59.5 -168.5q0 -125 -102 -217q-104 -93 -258 -93q-145 0 -246 71.5t-133 195.5z" />
    <glyph glyph-name="Scircumflex" unicode="&#x15c;" horiz-adv-x="1118" 
d="M547 1575h-135l376 287l259 -287h-127l-148 190zM18 311l95 41q64 -278 366 -278q153 0 260 96q105 94 105 233q0 102 -63.5 171t-211.5 141q-155 76 -226 154.5t-71 195.5q0 159 119 272q121 115 291 115q122 0 216 -60t126 -159l-96 -45q-68 164 -254 164
q-121 0 -207 -80t-86 -191q0 -93 58 -153t194 -127q165 -80 243 -169.5t78 -211.5q0 -185 -137 -316t-346 -131q-174 0 -296 88.5t-157 249.5z" />
    <glyph glyph-name="scircumflex" unicode="&#x15d;" horiz-adv-x="823" 
d="M313 1180h-135l377 286l258 -286h-127l-147 190zM-51 244l90 32q29 -97 104.5 -150.5t184.5 -53.5t182 61q74 65 74 152q0 69 -49 117.5t-164 105.5q-115 54 -171.5 118.5t-56.5 157.5q0 111 88 193t215 82q103 0 177.5 -47.5t105.5 -132.5l-90 -37q-20 57 -70 90
t-118 33q-84 0 -143.5 -52.5t-59.5 -124.5q0 -116 196 -204q125 -58 184.5 -128.5t59.5 -168.5q0 -125 -102 -217q-104 -93 -258 -93q-145 0 -246 71.5t-133 195.5z" />
    <glyph glyph-name="Scedilla" unicode="&#x15e;" horiz-adv-x="1118" 
d="M223 -328l39 54q48 -31 107 -31q42 0 70 23t28 55q0 67 -117 67q-18 0 -24 -2l86 139q-152 14 -258 101.5t-136 232.5l95 41q64 -278 366 -278q153 0 260 96q105 94 105 233q0 102 -63.5 171t-211.5 141q-155 76 -226 154.5t-71 195.5q0 159 119 272q121 115 291 115
q122 0 216 -60t126 -159l-96 -45q-68 164 -254 164q-121 0 -207 -80t-86 -191q0 -93 58 -153t194 -127q165 -80 243 -169.5t78 -211.5q0 -180 -129 -309q-130 -127 -329 -136l-54 -86q52 -5 82.5 -34.5t30.5 -79.5q0 -66 -52 -108t-132 -42q-104 0 -148 47z" />
    <glyph glyph-name="scedilla" unicode="&#x15f;" horiz-adv-x="823" 
d="M57 -328l37 54q54 -31 107 -31q42 0 70 23t28 55q0 67 -115 67q-20 0 -26 -2l92 148q-116 17 -194 84t-107 174l90 32q29 -97 104.5 -150.5t184.5 -53.5t182 61q74 65 74 152q0 69 -49 117.5t-164 105.5q-115 54 -171.5 118.5t-56.5 157.5q0 111 88 193t215 82
q103 0 177.5 -47.5t105.5 -132.5l-90 -37q-20 57 -70 90t-118 33q-84 0 -143.5 -52.5t-59.5 -124.5q0 -116 196 -204q125 -58 184.5 -128.5t59.5 -168.5q0 -125 -102 -217q-104 -90 -254 -93l-58 -88q52 -5 83.5 -34.5t31.5 -79.5q0 -66 -53 -108t-133 -42q-102 0 -146 47z
" />
    <glyph glyph-name="Scaron" unicode="&#x160;" horiz-adv-x="1118" 
d="M1102 1823l-377 -287l-256 287h125l147 -191l226 191h135zM18 311l95 41q64 -278 366 -278q153 0 260 96q105 94 105 233q0 102 -63.5 171t-211.5 141q-155 76 -226 154.5t-71 195.5q0 159 119 272q121 115 291 115q122 0 216 -60t126 -159l-96 -45q-68 164 -254 164
q-121 0 -207 -80t-86 -191q0 -93 58 -153t194 -127q165 -80 243 -169.5t78 -211.5q0 -185 -137 -316t-346 -131q-174 0 -296 88.5t-157 249.5z" />
    <glyph glyph-name="scaron" unicode="&#x161;" horiz-adv-x="823" 
d="M877 1427l-377 -286l-258 286h125l149 -190l223 190h138zM-51 244l90 32q29 -97 104.5 -150.5t184.5 -53.5t182 61q74 65 74 152q0 69 -49 117.5t-164 105.5q-115 54 -171.5 118.5t-56.5 157.5q0 111 88 193t215 82q103 0 177.5 -47.5t105.5 -132.5l-90 -37
q-20 57 -70 90t-118 33q-84 0 -143.5 -52.5t-59.5 -124.5q0 -116 196 -204q125 -58 184.5 -128.5t59.5 -168.5q0 -125 -102 -217q-104 -93 -258 -93q-145 0 -246 71.5t-133 195.5z" />
    <glyph glyph-name="Tcommaaccent" unicode="&#x162;" horiz-adv-x="1075" 
d="M446 0h-108l270 1329h-413l20 98h938l-20 -98h-416zM121 -395l182 297h139l-233 -297h-88z" />
    <glyph glyph-name="tcommaaccent" unicode="&#x163;" horiz-adv-x="647" 
d="M88 188q0 48 12 103l133 645h-120l18 96h121l80 395h106l-82 -395h289l-20 -96h-287l-133 -653q-10 -52 -10 -78q0 -61 38.5 -96t106.5 -35q52 0 111 12l-21 -94q-41 -12 -108 -12q-109 0 -171.5 55.5t-62.5 152.5zM-39 -395l182 297h140l-234 -297h-88z" />
    <glyph glyph-name="Tcaron" unicode="&#x164;" horiz-adv-x="1075" 
d="M1065 1823l-377 -287l-256 287h125l148 -191l225 191h135zM446 0h-108l270 1329h-413l20 98h938l-20 -98h-416z" />
    <glyph glyph-name="tcaron" unicode="&#x165;" horiz-adv-x="692" 
d="M602 1130h-88l182 297h140zM88 188q0 48 12 103l133 645h-120l18 96h121l80 395h106l-82 -395h289l-20 -96h-287l-133 -653q-10 -52 -10 -78q0 -61 38.5 -96t106.5 -35q52 0 111 12l-21 -94q-41 -12 -108 -12q-109 0 -171.5 55.5t-62.5 152.5z" />
    <glyph glyph-name="Tbar" unicode="&#x166;" horiz-adv-x="1075" 
d="M446 0h-108l158 784h-242l18 97h244l92 448h-413l20 98h938l-20 -98h-416l-92 -448h249l-18 -97h-250z" />
    <glyph glyph-name="tbar" unicode="&#x167;" horiz-adv-x="647" 
d="M88 188q0 48 12 103l74 356h-129l21 96h127l40 193h-120l18 96h121l80 395h106l-82 -395h289l-20 -96h-287l-39 -193h279l-21 -96h-278l-74 -364q-10 -52 -10 -78q0 -61 38.5 -96t106.5 -35q52 0 111 12l-21 -94q-41 -12 -108 -12q-109 0 -171.5 55.5t-62.5 152.5z" />
    <glyph glyph-name="Utilde" unicode="&#x168;" 
d="M631 1565l-76 6q26 74 78.5 119t122.5 45q60 0 125 -45t110 -45q80 0 117 98l76 -8q-53 -176 -205 -176q-61 0 -129 45q-65 45 -111 45q-73 0 -108 -84zM129 408q0 57 16 139l179 880h110l-188 -923q-8 -33 -8 -94q0 -150 97.5 -241t262.5 -91q175 0 289 101t155 300
l195 948h109l-197 -968q-49 -238 -193.5 -358.5t-365.5 -120.5q-209 0 -334 116q-127 118 -127 312z" />
    <glyph glyph-name="utilde" unicode="&#x169;" horiz-adv-x="1075" 
d="M401 1223l-75 6q26 74 78 118t122 44q60 0 125 -45q70 -43 111 -43q79 0 117 96l75 -6q-53 -176 -204 -176q-62 0 -129 43q-65 45 -109 45q-77 0 -111 -82zM35 328q0 34 14 114l119 590h106l-122 -608q-11 -64 -11 -96q0 -111 80.5 -182.5t218.5 -71.5q291 0 355 313
l131 645h104l-133 -661q-40 -197 -161 -295.5t-304 -98.5q-178 0 -289 99q-108 99 -108 252z" />
    <glyph glyph-name="Umacron" unicode="&#x16a;" 
d="M129 408q0 57 16 139l179 880h110l-188 -923q-8 -33 -8 -94q0 -150 97.5 -241t262.5 -91q175 0 289 101t155 300l195 948h109l-197 -968q-49 -238 -193.5 -358.5t-365.5 -120.5q-209 0 -334 116q-127 118 -127 312zM1153 1575h-602l20 96h603z" />
    <glyph glyph-name="umacron" unicode="&#x16b;" horiz-adv-x="1075" 
d="M928 1243h-602l18 96h602zM35 328q0 34 14 114l119 590h106l-122 -608q-11 -64 -11 -96q0 -111 80.5 -182.5t218.5 -71.5q291 0 355 313l131 645h104l-133 -661q-40 -197 -161 -295.5t-304 -98.5q-178 0 -289 99q-108 99 -108 252z" />
    <glyph glyph-name="Ubreve" unicode="&#x16c;" 
d="M838 1538q-109 0 -171.5 65t-62.5 177h96q5 -76 41.5 -114t110.5 -38q72 0 126 41.5t79 110.5h94q-32 -117 -113.5 -179.5t-199.5 -62.5zM129 408q0 57 16 139l179 880h110l-188 -923q-8 -33 -8 -94q0 -150 97.5 -241t262.5 -91q175 0 289 101t155 300l195 948h109
l-197 -968q-49 -238 -193.5 -358.5t-365.5 -120.5q-209 0 -334 116q-127 118 -127 312z" />
    <glyph glyph-name="ubreve" unicode="&#x16d;" horiz-adv-x="1075" 
d="M614 1186q-109 0 -171 64.5t-62 176.5h96q5 -76 41.5 -112.5t110.5 -36.5q150 0 205 149h96q-32 -115 -115 -178t-201 -63zM35 328q0 34 14 114l119 590h106l-122 -608q-11 -64 -11 -96q0 -111 80.5 -182.5t218.5 -71.5q291 0 355 313l131 645h104l-133 -661
q-40 -197 -161 -295.5t-304 -98.5q-178 0 -289 99q-108 99 -108 252z" />
    <glyph glyph-name="Uring" unicode="&#x16e;" 
d="M838 1448q-69 0 -112.5 40.5t-43.5 106.5q0 76 54.5 132.5t131.5 56.5q69 0 113.5 -43t44.5 -109q0 -74 -55 -129t-133 -55zM846 1522q42 0 73 31t31 73q0 37 -25 60.5t-63 23.5q-42 0 -73 -32t-31 -74q0 -35 25 -58.5t63 -23.5zM129 408q0 57 16 139l179 880h110
l-188 -923q-8 -33 -8 -94q0 -150 97.5 -241t262.5 -91q175 0 289 101t155 300l195 948h109l-197 -968q-49 -238 -193.5 -358.5t-365.5 -120.5q-209 0 -334 116q-127 118 -127 312z" />
    <glyph glyph-name="uring" unicode="&#x16f;" horiz-adv-x="1075" 
d="M604 1094q-68 0 -110.5 41.5t-42.5 107.5q0 75 54.5 132t129.5 57q69 0 113.5 -43.5t44.5 -110.5q0 -73 -55.5 -128.5t-133.5 -55.5zM612 1167q42 0 73.5 33t31.5 72q0 37 -24 60.5t-62 23.5q-42 0 -73.5 -31.5t-31.5 -73.5q0 -37 24 -60.5t62 -23.5zM35 328q0 34 14 114
l119 590h106l-122 -608q-11 -64 -11 -96q0 -111 80.5 -182.5t218.5 -71.5q291 0 355 313l131 645h104l-133 -661q-40 -197 -161 -295.5t-304 -98.5q-178 0 -289 99q-108 99 -108 252z" />
    <glyph glyph-name="Uhungarumlaut" unicode="&#x170;" 
d="M129 408q0 57 16 139l179 880h110l-188 -923q-8 -33 -8 -94q0 -150 97.5 -241t262.5 -91q175 0 289 101t155 300l195 948h109l-197 -968q-49 -238 -193.5 -358.5t-365.5 -120.5q-209 0 -334 116q-127 118 -127 312zM1016 1526h-84l205 297h135zM700 1526h-84l205 297h135
z" />
    <glyph glyph-name="uhungarumlaut" unicode="&#x171;" horiz-adv-x="1075" 
d="M791 1130h-86l204 297h135zM475 1130h-86l205 297h135zM35 328q0 34 14 114l119 590h106l-122 -608q-11 -64 -11 -96q0 -111 80.5 -182.5t218.5 -71.5q291 0 355 313l131 645h104l-133 -661q-40 -197 -161 -295.5t-304 -98.5q-178 0 -289 99q-108 99 -108 252z" />
    <glyph glyph-name="Uogonek" unicode="&#x172;" 
d="M131 418q0 43 16 137l185 872h108l-186 -899q-14 -66 -14 -114q0 -42 9 -84t34 -88.5t63.5 -82t103.5 -58.5t148 -23q362 0 444 401l195 948h109l-197 -968q-55 -277 -262 -404q-19 -12 -133 -61q-115 -52 -165 -100t-50 -117q0 -39 27.5 -63.5t74.5 -24.5q55 0 113 22
l-31 -80q-49 -22 -107 -22q-76 0 -124 40t-48 105q0 147 183 230q-20 -4 -37 -4q-218 0 -338.5 117.5t-120.5 320.5z" />
    <glyph glyph-name="uogonek" unicode="&#x173;" horiz-adv-x="1075" 
d="M35 328q0 34 14 114l123 590h107l-127 -608q-11 -71 -11 -96q0 -111 80.5 -182.5t218.5 -71.5q291 0 355 313l131 645h104l-133 -661q-50 -245 -235 -346l-91 -45q-28 -14 -65 -34l-37 -20q-37 -24 -66.5 -65t-29.5 -84q0 -38 27 -62t71 -24q59 0 115 24l-37 -84
q-42 -22 -103 -22q-75 0 -122.5 40.5t-47.5 106.5q0 132 170 221h-30q-168 3 -277 103q-104 98 -104 248z" />
    <glyph glyph-name="Wcircumflex" unicode="&#x174;" horiz-adv-x="1921" 
d="M928 1575h-135l376 287l258 -287h-127l-147 190zM1055 1171l-674 -1212l-180 1468h106l142 -1157l663 1196l156 -1196l620 1157h115l-786 -1470z" />
    <glyph glyph-name="wcircumflex" unicode="&#x175;" horiz-adv-x="1544" 
d="M657 1180h-135l377 286l256 -286h-125l-147 190zM795 817l-510 -870l-181 1085h99l135 -823l506 876l151 -872l467 819h109l-625 -1085z" />
    <glyph glyph-name="Ycircumflex" unicode="&#x176;" horiz-adv-x="1210" 
d="M557 1575h-135l377 287l256 -287h-125l-148 190zM510 0h-109l121 596l-332 831h115l289 -725l573 725h127l-665 -845z" />
    <glyph glyph-name="ycircumflex" unicode="&#x177;" horiz-adv-x="1005" 
d="M193 -176l106 180l-197 1028h103l172 -903l543 903h114l-733 -1214q-53 -89 -82 -125q-36 -48 -97.5 -82.5t-129.5 -34.5q-62 0 -109 21l19 92q46 -17 92 -17q65 0 109 35t90 117zM393 1180h-137l377 286l258 -286h-125l-150 190z" />
    <glyph glyph-name="Ydieresis" unicode="&#x178;" horiz-adv-x="1210" 
d="M961 1546q-29 0 -48.5 18.5t-19.5 47.5q0 33 24 58.5t56 25.5q31 0 50 -18.5t19 -49.5q0 -33 -23.5 -57.5t-57.5 -24.5zM539 1546q-29 0 -48.5 18.5t-19.5 47.5q0 33 24 58.5t56 25.5q31 0 50.5 -18.5t19.5 -49.5q0 -33 -23.5 -57.5t-58.5 -24.5zM510 0h-109l121 596
l-332 831h115l289 -725l573 725h127l-665 -845z" />
    <glyph glyph-name="Zacute" unicode="&#x179;" horiz-adv-x="1271" 
d="M850 1526h-88l184 297h137zM1030 0h-1134l1234 1329h-802l20 98h1004l-1233 -1329h932z" />
    <glyph glyph-name="zacute" unicode="&#x17a;" horiz-adv-x="1011" 
d="M598 1130h-88l182 297h139zM768 0h-913l925 936h-624l20 96h825l-927 -936h712z" />
    <glyph glyph-name="Zdotaccent" unicode="&#x17b;" horiz-adv-x="1271" 
d="M862 1573q-31 0 -50 18t-19 47q0 32 24.5 57t56.5 25q31 0 50.5 -18t19.5 -47q0 -33 -23.5 -57.5t-58.5 -24.5zM1030 0h-1134l1234 1329h-802l20 98h1004l-1233 -1329h932z" />
    <glyph glyph-name="zdotaccent" unicode="&#x17c;" horiz-adv-x="1011" 
d="M618 1233q-31 0 -50 18t-19 47q0 31 25 56.5t57 25.5q31 0 50 -19t19 -48q0 -32 -24 -56t-58 -24zM768 0h-913l925 936h-624l20 96h825l-927 -936h712z" />
    <glyph glyph-name="Zcaron" unicode="&#x17d;" horiz-adv-x="1271" 
d="M1229 1823l-377 -287l-258 287h125l149 -191l224 191h137zM1030 0h-1134l1234 1329h-802l20 98h1004l-1233 -1329h932z" />
    <glyph glyph-name="zcaron" unicode="&#x17e;" horiz-adv-x="1011" 
d="M975 1427l-377 -286l-258 286h127l147 -190l226 190h135zM768 0h-913l925 936h-624l20 96h825l-927 -936h712z" />
    <glyph glyph-name="florin" unicode="&#x192;" horiz-adv-x="743" 
d="M385 791l-414 -998h-104l416 998h-156l37 88h155l125 299q46 113 111 178q58 61 110 79.5t130 18.5q71 0 127 -27l-39 -86q-60 17 -115 17q-145 0 -219 -176l-127 -303h225l-35 -88h-227z" />
    <glyph glyph-name="Aringacute" unicode="&#x1fa;" horiz-adv-x="1341" 
d="M924 1808h-84l180 297h135zM268 389l-241 -389h-121l866 1393q-50 11 -80 49t-30 92q0 74 55.5 130t128.5 56q69 0 112 -41.5t43 -107.5q0 -68 -45.5 -121.5t-115.5 -60.5l301 -1389h-107l-86 389h-680zM823 1458q43 0 74 32.5t31 74.5q0 37 -24 60.5t-62 23.5
q-42 0 -74.5 -32.5t-32.5 -74.5q0 -37 25 -60.5t63 -23.5zM776 1210l-444 -723h594z" />
    <glyph glyph-name="aringacute" unicode="&#x1fb;" horiz-adv-x="1079" 
d="M655 1145q-69 0 -112 41.5t-43 107.5q0 76 54.5 132.5t131.5 56.5q69 0 113.5 -43.5t44.5 -110.5q0 -73 -55.5 -128.5t-133.5 -55.5zM662 1219q42 0 73 32.5t31 71.5q0 37 -24 60.5t-62 23.5q-42 0 -73.5 -31.5t-31.5 -72.5q0 -37 24.5 -60.5t62.5 -23.5zM0 244
q0 97 40.5 166t109.5 106q48 28 88.5 42.5t99.5 25.5q55 11 176 22q190 12 246 51q61 40 61 131q0 78 -70 126.5t-182 48.5q-204 0 -309 -181l-70 60q62 101 165 159t225 58q149 0 244.5 -75t95.5 -196q0 -30 -7 -55l-114 -565q-6 -43 -6 -49q0 -47 55 -47q27 0 39 6
l-13 -74q-30 -18 -75 -18q-48 0 -75.5 23t-27.5 61q0 35 9 59q-102 -156 -371 -156q-149 0 -241.5 74.5t-92.5 196.5zM104 256q0 -85 64.5 -135.5t173.5 -50.5q165 0 266.5 75.5t128.5 210.5l45 222q-45 -51 -284 -72q-83 -6 -138 -16.5t-118 -34.5q-138 -52 -138 -199z
M752 1573h-88l182 297h137z" />
    <glyph glyph-name="AEacute" unicode="&#x1fc;" horiz-adv-x="1886" 
d="M1333 1526h-88l185 297h137zM358 375l-362 -375h-139l1388 1427h653l-20 -98h-573l-107 -524h533l-19 -100h-534l-123 -607h587l-20 -98h-698l77 375h-643zM1171 1208l-714 -735h565z" />
    <glyph glyph-name="aeacute" unicode="&#x1fd;" horiz-adv-x="1847" 
d="M1018 1130h-86l184 297h135zM-8 244q0 89 35.5 159.5t89.5 108.5q49 35 129 57q73 21 121.5 27t130.5 8q207 6 278 62q45 36 45 116t-68 130.5t-178 50.5q-202 0 -307 -181l-69 56q60 105 161 163t224 58q128 0 218.5 -62.5t102.5 -156.5q75 100 182 156.5t228 56.5
q197 0 311 -129q117 -126 117 -326q0 -54 -14 -106h-871q-6 -18 -6 -66q0 -167 95.5 -265t264.5 -98q183 0 318 132l59 -66q-160 -160 -381 -160q-147 0 -254.5 61.5t-154.5 176.5q-126 -234 -461 -234q-155 0 -250.5 74.5t-95.5 196.5zM877 582h759q4 24 4 41
q0 144 -92 239q-91 94 -239 94q-149 0 -269 -102q-116 -101 -163 -272zM96 256q0 -85 68.5 -135.5t185.5 -50.5q153 0 257.5 68t146.5 190q-6 41 -6 88q0 63 16 141q-62 -39 -283 -51q-147 -3 -254 -45q-131 -51 -131 -205z" />
    <glyph glyph-name="Oslashacute" unicode="&#x1fe;" horiz-adv-x="1681" 
d="M1022 1526h-88l184 297h137zM170 -72l-68 60l172 178q-184 181 -184 459q0 327 238 577q241 250 577 250q266 0 449 -149l178 186l70 -59l-181 -189q170 -182 170 -453q0 -207 -104 -393q-100 -182 -293 -303q-190 -117 -422 -117q-251 0 -432 134zM346 244l936 983
q-155 125 -383 125q-291 0 -498 -219q-204 -216 -204 -500q0 -234 149 -389zM1348 1163l-932 -977q147 -112 366 -112q196 0 359 102t253.5 263t90.5 341q0 231 -137 383z" />
    <glyph glyph-name="oslashacute" unicode="&#x1ff;" horiz-adv-x="1241" 
d="M727 1130h-88l182 297h140zM100 -70l-69 62l123 131q-127 127 -127 330q0 243 178 424q179 182 424 182q177 0 311 -96l119 127l69 -62l-120 -127q125 -131 125 -332q0 -232 -175 -413q-174 -183 -428 -183q-176 0 -307 90zM223 199l647 690q-109 74 -252 74
q-200 0 -346 -152q-141 -150 -141 -352q0 -157 92 -260zM938 825l-645 -688q97 -69 246 -69q206 0 348 151q143 152 143 344q0 153 -92 262z" />
    <glyph glyph-name="Scommaaccent" unicode="&#x218;" horiz-adv-x="1118" 
d="M18 311l95 41q64 -278 366 -278q153 0 260 96q105 94 105 233q0 102 -63.5 171t-211.5 141q-155 76 -226 154.5t-71 195.5q0 159 119 272q121 115 291 115q122 0 216 -60t126 -159l-96 -45q-68 164 -254 164q-121 0 -207 -80t-86 -191q0 -93 58 -153t194 -127
q165 -80 243 -169.5t78 -211.5q0 -185 -137 -316t-346 -131q-174 0 -296 88.5t-157 249.5zM209 -395l182 297h139l-233 -297h-88z" />
    <glyph glyph-name="scommaaccent" unicode="&#x219;" horiz-adv-x="823" 
d="M-51 244l90 32q29 -97 104.5 -150.5t184.5 -53.5t182 61q74 65 74 152q0 69 -49 117.5t-164 105.5q-115 54 -171.5 118.5t-56.5 157.5q0 111 88 193t215 82q103 0 177.5 -47.5t105.5 -132.5l-90 -37q-20 57 -70 90t-118 33q-84 0 -143.5 -52.5t-59.5 -124.5
q0 -116 196 -204q125 -58 184.5 -128.5t59.5 -168.5q0 -125 -102 -217q-104 -93 -258 -93q-145 0 -246 71.5t-133 195.5zM43 -395l182 297h140l-234 -297h-88z" />
    <glyph glyph-name="circumflex" unicode="&#x2c6;" horiz-adv-x="1263" 
d="M545 1180h-137l376 286l258 -286h-124l-150 190z" />
    <glyph glyph-name="caron" unicode="&#x2c7;" horiz-adv-x="1263" 
d="M1096 1427l-377 -286l-258 286h125l147 -190l225 190h138z" />
    <glyph glyph-name="breve" unicode="&#x2d8;" horiz-adv-x="1255" 
d="M733 1186q-109 0 -171 64.5t-62 176.5h96q5 -76 41.5 -112.5t110.5 -36.5q72 0 125.5 40.5t78.5 108.5h95q-32 -115 -115 -178t-199 -63z" />
    <glyph glyph-name="dotaccent" unicode="&#x2d9;" horiz-adv-x="1089" 
d="M657 1235q-29 0 -48 18t-19 47q0 32 24 57t56 25t50.5 -17.5t18.5 -47.5q0 -33 -23.5 -57.5t-58.5 -24.5z" />
    <glyph glyph-name="ring" unicode="&#x2da;" horiz-adv-x="503" 
d="M352 1116q-69 0 -112 42t-43 108q0 76 54.5 132t131.5 56q69 0 112.5 -43t43.5 -111q0 -75 -54.5 -129.5t-132.5 -54.5zM358 1190q42 0 73.5 32.5t31.5 71.5q0 37 -24 60.5t-62 23.5q-43 0 -74 -31t-31 -73q0 -37 24 -60.5t62 -23.5z" />
    <glyph glyph-name="ogonek" unicode="&#x2db;" horiz-adv-x="1091" 
d="M145 -244q0 149 201 244h103q-207 -112 -207 -223q0 -39 26 -62.5t70 -23.5q62 0 117 24l-37 -84q-42 -22 -103 -22q-75 0 -122.5 40.5t-47.5 106.5z" />
    <glyph glyph-name="tilde" unicode="&#x2dc;" horiz-adv-x="1206" 
d="M500 1282l-76 6q25 74 78 118t123 44q60 0 125 -45q67 -43 110 -43q79 0 117 96l76 -6q-53 -176 -205 -176q-62 0 -129 43q-65 45 -109 45q-76 0 -110 -82z" />
    <glyph glyph-name="hungarumlaut" unicode="&#x2dd;" horiz-adv-x="1212" 
d="M836 1130h-84l204 297h136zM520 1130h-84l205 297h135z" />
    <glyph glyph-name="pi" unicode="&#x3c0;" horiz-adv-x="1198" 
d="M178 0h-119q234 383 351 936h-25q-68 0 -136.5 -33.5t-111.5 -91.5l-74 49q59 78 155 124t190 46h811l-39 -94h-168l-142 -688q-6 -24 -6 -58q0 -100 107 -100l-19 -94h-2q-90 0 -139 47.5t-49 134.5q0 42 8 78l139 680h-391q-113 -542 -340 -936z" />
    <glyph glyph-name="Wgrave" unicode="&#x1e80;" horiz-adv-x="1921" 
d="M1169 1526h-82l-112 297h133zM1055 1171l-674 -1212l-180 1468h106l142 -1157l663 1196l156 -1196l620 1157h115l-786 -1470z" />
    <glyph glyph-name="wgrave" unicode="&#x1e81;" horiz-adv-x="1544" 
d="M932 1130h-84l-113 297h135zM795 817l-510 -870l-181 1085h99l135 -823l506 876l151 -872l467 819h109l-625 -1085z" />
    <glyph glyph-name="Wacute" unicode="&#x1e82;" horiz-adv-x="1921" 
d="M1128 1526h-88l183 297h139zM1055 1171l-674 -1212l-180 1468h106l142 -1157l663 1196l156 -1196l620 1157h115l-786 -1470z" />
    <glyph glyph-name="wacute" unicode="&#x1e83;" horiz-adv-x="1544" 
d="M795 817l-510 -870l-181 1085h99l135 -823l506 876l151 -872l467 819h109l-625 -1085zM854 1130h-88l182 297h137z" />
    <glyph glyph-name="Wdieresis" unicode="&#x1e84;" horiz-adv-x="1921" 
d="M1325 1548q-31 0 -49.5 18.5t-18.5 47.5q0 31 24.5 56.5t55.5 25.5t50.5 -19.5t19.5 -48.5q0 -32 -24 -56t-58 -24zM903 1548q-31 0 -49 18t-18 48q0 31 24 56.5t55 25.5t50.5 -19.5t19.5 -48.5q0 -32 -24 -56t-58 -24zM1055 1171l-674 -1212l-180 1468h106l142 -1157
l663 1196l156 -1196l620 1157h115l-786 -1470z" />
    <glyph glyph-name="wdieresis" unicode="&#x1e85;" horiz-adv-x="1544" 
d="M795 817l-510 -870l-181 1085h99l135 -823l506 876l151 -872l467 819h109l-625 -1085zM1069 1233q-31 0 -49.5 18t-18.5 47q0 31 24 56.5t56 25.5q31 0 50.5 -19t19.5 -48q0 -32 -24 -56t-58 -24zM647 1233q-31 0 -49 18t-18 47q0 31 23.5 56.5t55.5 25.5q31 0 50.5 -19
t19.5 -48q0 -32 -24 -56t-58 -24z" />
    <glyph glyph-name="Ygrave" unicode="&#x1ef2;" horiz-adv-x="1210" 
d="M510 0h-109l121 596l-332 831h115l289 -725l573 725h127l-665 -845zM805 1526h-82l-115 297h135z" />
    <glyph glyph-name="ygrave" unicode="&#x1ef3;" horiz-adv-x="1005" 
d="M633 1130h-84l-113 297h133zM193 -176l106 180l-197 1028h103l172 -903l543 903h114l-733 -1214q-53 -89 -82 -125q-36 -48 -97.5 -82.5t-129.5 -34.5q-62 0 -109 21l19 92q46 -17 92 -17q65 0 109 35t90 117z" />
    <glyph glyph-name="endash" unicode="&#x2013;" horiz-adv-x="948" 
d="M813 492h-766l19 94h765z" />
    <glyph glyph-name="emdash" unicode="&#x2014;" horiz-adv-x="1488" 
d="M1354 492h-1307l19 94h1306z" />
    <glyph glyph-name="quoteleft" unicode="&#x2018;" horiz-adv-x="352" 
d="M213 911h-135l356 516h90z" />
    <glyph glyph-name="quoteright" unicode="&#x2019;" horiz-adv-x="362" 
d="M127 911h-90l309 516h137z" />
    <glyph glyph-name="quotesinglbase" unicode="&#x201a;" horiz-adv-x="360" 
d="M-256 -262l295 489h137l-342 -489h-90z" />
    <glyph glyph-name="quotedblleft" unicode="&#x201c;" horiz-adv-x="647" 
d="M510 911h-137l358 516h90zM213 911h-135l356 516h90z" />
    <glyph glyph-name="quotedblright" unicode="&#x201d;" horiz-adv-x="657" 
d="M422 911h-88l309 516h137zM127 911h-90l309 516h137z" />
    <glyph glyph-name="quotedblbase" unicode="&#x201e;" horiz-adv-x="641" 
d="M131 -262h-90l295 489h137zM-256 -262l295 489h137l-342 -489h-90z" />
    <glyph glyph-name="dagger" unicode="&#x2020;" horiz-adv-x="604" 
d="M332 616h-99l111 510l-186 -4l18 90l182 -4l41 219h97l-50 -219l185 4l-19 -90l-184 4z" />
    <glyph glyph-name="daggerdbl" unicode="&#x2021;" horiz-adv-x="604" 
d="M330 616h-97l48 220l-183 -5l19 91l184 -4l43 208l-186 -4l18 90l182 -4l41 219h97l-50 -219l185 4l-19 -90l-184 4l-43 -208l186 4l-18 -91l-182 5z" />
    <glyph glyph-name="bullet" unicode="&#x2022;" horiz-adv-x="458" 
d="M178 397q-51 0 -81.5 29.5t-30.5 77.5q0 56 40 96.5t95 40.5q49 0 80.5 -31.5t31.5 -79.5q0 -54 -39.5 -93.5t-95.5 -39.5z" />
    <glyph glyph-name="ellipsis" unicode="&#x2026;" horiz-adv-x="983" 
d="M600 53q0 32 24 57t56 25q31 0 50.5 -18t19.5 -47q0 -33 -23.5 -57.5t-58.5 -24.5q-30 0 -49 18t-19 47zM285 53q0 32 24 57t56 25q31 0 50 -18t19 -47q0 -33 -23.5 -57.5t-58.5 -24.5q-29 0 -48 18t-19 47zM-31 53q0 32 24 57t56 25q31 0 50.5 -18t19.5 -47
q0 -33 -23.5 -57.5t-58.5 -24.5q-31 0 -49.5 18t-18.5 47z" />
    <glyph glyph-name="perthousand" unicode="&#x2030;" horiz-adv-x="2244" 
d="M455 811q-130 0 -213.5 79t-83.5 202q0 142 104 249q109 109 250 109q130 0 214.5 -81t84.5 -206q0 -137 -102 -245q-101 -107 -254 -107zM195 0h-121l1214 1427h121zM463 895q108 0 182 80t74 180q0 92 -59.5 150.5t-153.5 58.5q-101 0 -178 -80q-74 -80 -74 -182
q0 -91 58 -149t151 -58zM1432 260q0 143 104 250q108 108 250 108q130 0 214.5 -80.5t84.5 -205.5q0 -137 -103 -246q-100 -106 -253 -106q-130 0 -213.5 78.5t-83.5 201.5zM664 260q0 143 104 250q108 108 250 108q130 0 214.5 -80.5t84.5 -205.5q0 -137 -103 -246
q-100 -106 -253 -106q-130 0 -213.5 78.5t-83.5 201.5zM1526 268q0 -91 58.5 -148t152.5 -57q108 0 180 78q74 80 74 181q0 92 -59.5 151t-153.5 59q-103 0 -179 -79q-73 -79 -73 -185zM760 268q0 -91 58.5 -148t152.5 -57q108 0 180 78q74 80 74 181q0 92 -59.5 151
t-153.5 59q-102 0 -178 -79q-74 -80 -74 -185z" />
    <glyph glyph-name="guilsinglleft" unicode="&#x2039;" horiz-adv-x="493" 
d="M301 160h-108l-154 358l297 359h127l-309 -371z" />
    <glyph glyph-name="guilsinglright" unicode="&#x203a;" horiz-adv-x="493" 
d="M76 160h-127l309 370l-147 347h110l154 -359z" />
    <glyph glyph-name="fraction" unicode="&#x2044;" horiz-adv-x="1009" 
d="M1165 1427l-1214 -1427h-107l1215 1427h106z" />
    <glyph glyph-name="zerosuperior" unicode="&#x2070;" horiz-adv-x="776" 
d="M397 655q-104 0 -169.5 59t-65.5 150q0 45 33 191l36 155q25 107 101 170.5t184 63.5q100 0 166 -59t66 -150q0 -31 -29 -182q-16 -91 -39 -166q-20 -73 -66 -139q-67 -93 -217 -93zM406 735q151 0 192 160q21 55 39 158q27 138 27 172q0 61 -43 100t-109 39
q-69 0 -121.5 -43t-75.5 -117q-26 -108 -34 -151q-33 -146 -33 -185q0 -62 41.5 -97.5t116.5 -35.5z" />
    <glyph glyph-name="foursuperior" unicode="&#x2074;" horiz-adv-x="716" 
d="M580 672h-80l32 168h-452l403 587h88l-354 -514h332l35 170h80z" />
    <glyph glyph-name="fivesuperior" unicode="&#x2075;" horiz-adv-x="714" 
d="M340 655q-86 0 -155.5 41.5t-98.5 112.5l74 35q43 -113 188 -113q96 0 160 64q65 65 65 149q0 74 -53 122t-137 48q-106 0 -182 -49l139 362h356l-16 -73h-287l-71 -178q25 14 67 14q117 0 188.5 -66t71.5 -176q0 -119 -88 -207q-86 -86 -221 -86z" />
    <glyph glyph-name="sixsuperior" unicode="&#x2076;" horiz-adv-x="755" 
d="M395 655q-108 0 -176.5 68t-68.5 174q0 69 33.5 125t123.5 149l246 256h98l-250 -262q26 11 50 11q104 -1 169.5 -66.5t65.5 -165.5q0 -116 -84 -203q-83 -86 -207 -86zM401 731q87 0 146 62q61 64 61 143q0 73 -48.5 119.5t-125.5 46.5q-85 0 -143 -64q-60 -63 -60 -141
q0 -72 47.5 -119t122.5 -47z" />
    <glyph glyph-name="sevensuperior" unicode="&#x2077;" horiz-adv-x="714" 
d="M285 672h-99l469 682h-397l14 73h533z" />
    <glyph glyph-name="eightsuperior" unicode="&#x2078;" horiz-adv-x="753" 
d="M399 657q-105 0 -171 62.5t-66 161.5q0 85 54 152.5t134 84.5q-55 43 -55 121q0 83 63 143q65 62 150 62q81 0 131.5 -49t50.5 -127q0 -55 -30 -102t-80 -70q98 -52 98 -164q0 -95 -68 -184q-69 -91 -211 -91zM481 1133q53 0 91 39.5t38 91.5q0 47 -29.5 75.5t-76.5 28.5
q-53 0 -90 -38.5t-37 -90.5q0 -45 29 -75.5t75 -30.5zM406 733q80 0 135 57t55 134q0 66 -45 105.5t-119 39.5q-77 0 -132.5 -54.5t-55.5 -127.5q0 -68 44.5 -111t117.5 -43z" />
    <glyph glyph-name="ninesuperior" unicode="&#x2079;" horiz-adv-x="772" 
d="M342 672h-98l262 272q-17 -10 -51 -10q-104 0 -171 63.5t-67 161.5q0 119 84 203q82 82 205 82q106 0 172.5 -63.5t66.5 -166.5q0 -71 -27 -124.5t-97 -128.5zM467 1006q90 0 145.5 59t55.5 143q0 69 -47.5 115.5t-120.5 46.5q-85 0 -144 -59t-59 -144q0 -72 47.5 -116.5
t122.5 -44.5z" />
    <glyph glyph-name="zero.inferior" unicode="&#x2080;" horiz-adv-x="768" 
d="M260 -16q-104 0 -169.5 59t-65.5 150q0 48 32 190l37 156q25 107 101 170t184 63q100 0 165.5 -59t65.5 -150q0 -36 -28 -182q-16 -91 -39 -166q-20 -73 -66 -139q-66 -92 -217 -92zM268 63q76 0 125.5 43.5t67.5 116.5q21 55 39 158q26 133 26 172q0 61 -42.5 100
t-108.5 39q-69 0 -121.5 -43t-75.5 -117q-31 -131 -35 -151q-32 -142 -32 -184q0 -62 41.5 -98t115.5 -36z" />
    <glyph glyph-name="one.inferior" unicode="&#x2081;" horiz-adv-x="460" 
d="M137 0h-80l138 682h-99l17 74h178z" />
    <glyph glyph-name="two.inferior" unicode="&#x2082;" horiz-adv-x="684" 
d="M438 0h-512l443 422q88 82 88 147q0 56 -36 91.5t-93 35.5q-116 0 -156 -135h-78q21 96 84 153.5t158 57.5q88 0 145.5 -56.5t57.5 -142.5q0 -94 -95 -186l-333 -313h344z" />
    <glyph glyph-name="three.inferior" unicode="&#x2083;" horiz-adv-x="722" 
d="M225 -16q-102 0 -174 52.5t-92 139.5l72 25q41 -142 202 -142q91 0 154.5 59t63.5 138q0 70 -53 115t-140 45q-78 0 -119 -21l305 287h-313l14 74h473l-305 -279h17q91 -10 145.5 -69.5t54.5 -145.5q0 -114 -88 -196q-85 -82 -217 -82z" />
    <glyph glyph-name="four.inferior" unicode="&#x2084;" horiz-adv-x="716" 
d="M397 168h-454l403 588h88l-354 -514h332l34 170h80l-84 -412h-77z" />
    <glyph glyph-name="five.inferior" unicode="&#x2085;" horiz-adv-x="714" 
d="M-49 137l74 35q43 -113 188 -113q96 0 160 64q65 65 65 149q0 74 -53 122t-137 48q-106 0 -182 -49l139 363h356l-16 -74h-287l-72 -178q25 14 68 14q117 0 188.5 -66t71.5 -176q0 -118 -88 -206q-86 -86 -221 -86q-86 0 -155.5 41t-98.5 112z" />
    <glyph glyph-name="six.inferior" unicode="&#x2086;" horiz-adv-x="755" 
d="M260 -16q-109 0 -177.5 67.5t-68.5 173.5q0 69 34 125.5t124 149.5l246 256h98l-250 -262q23 10 49 10q104 -1 170 -66.5t66 -165.5q0 -115 -84 -202q-83 -86 -207 -86zM266 59q87 0 146 62q61 64 61 143q0 73 -48.5 119.5t-125.5 46.5q-86 0 -143 -63q-60 -63 -60 -142
q0 -72 47.5 -119t122.5 -47z" />
    <glyph glyph-name="seven.inferior" unicode="&#x2087;" horiz-adv-x="714" 
d="M147 0h-98l469 682h-397l14 74h533z" />
    <glyph glyph-name="eight.inferior" unicode="&#x2088;" horiz-adv-x="753" 
d="M20 207q0 85 54.5 152.5t134.5 84.5q-53 44 -53 121q0 84 63 144q63 63 150 63q80 0 131 -50t51 -128q0 -55 -31.5 -101.5t-81.5 -70.5q99 -52 99 -164q0 -95 -68 -184q-69 -90 -211 -90q-104 0 -171 62.5t-67 160.5zM340 459q53 0 91 39.5t38 91.5q0 47 -29.5 75.5
t-77.5 28.5q-53 0 -89.5 -38.5t-36.5 -90.5q0 -45 29 -75.5t75 -30.5zM102 213q0 -68 45 -111t117 -43q83 0 137 57t54 134q0 66 -44 105.5t-118 39.5q-79 0 -135 -54.5t-56 -127.5z" />
    <glyph glyph-name="nine.inferior" unicode="&#x2089;" horiz-adv-x="749" 
d="M199 0h-99l260 272q-17 -10 -51 -10q-104 0 -169.5 63t-65.5 162q0 121 82 203t204 82q106 0 173 -63.5t67 -165.5q0 -71 -27 -125t-98 -129zM322 334q90 0 145 59t55 144q0 70 -46.5 115.5t-119.5 45.5q-86 0 -145 -58.5t-59 -143.5q0 -72 47.5 -117t122.5 -45z" />
    <glyph glyph-name="Euro" unicode="&#x20ac;" horiz-adv-x="1538" 
d="M236 516h-228l62 94h161q-2 6 -2 23q0 91 29 201h-141l61 96h107q85 228 276 375q193 147 424 147q176 0 319.5 -77t229.5 -214l-84 -65q-69 122 -191.5 189t-277.5 67q-191 0 -346 -119q-153 -117 -229 -303h612l-62 -96h-583q-31 -91 -31 -201q0 -17 2 -23h479l-61 -94
h-410q35 -200 170 -321q139 -121 340 -121q256 0 441 194l65 -73q-214 -220 -514 -220q-245 0 -416 148q-167 148 -202 393z" />
    <glyph glyph-name="uni2113" unicode="&#x2113;" horiz-adv-x="927" 
d="M-25 248l-22 71l174 117l121 606q82 408 352 408q102 0 164.5 -66.5t62.5 -171.5q0 -196 -147 -388t-461 -433q-18 -83 -18 -123q0 -95 50.5 -146.5t147.5 -51.5q152 0 289 180l51 -60q-89 -114 -175 -164.5t-197 -50.5q-119 0 -193 73t-74 190q0 41 13 98
q-33 -23 -138 -88zM356 1063l-114 -553q239 203 361 370t122 324q0 68 -38 110t-101 42q-84 0 -144 -80t-86 -213z" />
    <glyph glyph-name="uni2116" unicode="&#x2116;" horiz-adv-x="2353" 
d="M160 0h-109l297 1466l672 -1216l240 1177h110l-299 -1464l-672 1211zM1493 942q0 179 129 311q130 133 309 133q167 0 267 -100q104 -98 104 -256q0 -172 -127 -305t-315 -133q-164 0 -265 98q-102 99 -102 252zM1597 952q0 -117 75 -190.5t196 -73.5q138 0 233 103
q97 105 97 231q0 119 -76 193.5t-199 74.5q-137 0 -231 -102q-95 -103 -95 -236zM2142 346h-739l20 96h738z" />
    <glyph glyph-name="trademark" unicode="&#x2122;" horiz-adv-x="1665" 
d="M848 668h-105l156 762h19l270 -465l481 465h12l-153 -762h-105l105 506l-361 -351l-213 373zM397 668h-102l135 661h-252l21 98h606l-21 -98h-252z" />
    <glyph glyph-name="Omega" unicode="&#x2126;" horiz-adv-x="1585" 
d="M545 0h-516l20 98h268q-100 87 -163 240q-62 151 -62 319q0 319 227 555q229 238 541 238q283 0 465 -176q180 -174 180 -451q0 -215 -119 -413q-119 -203 -309 -312h211l-20 -98h-516q96 36 186 89t173.5 129t146 164t100 198.5t37.5 228.5q0 237 -152 389
q-151 154 -391 154q-269 0 -463 -215q-192 -210 -192 -492q0 -201 102 -385q107 -184 246 -260z" />
    <glyph glyph-name="estimated" unicode="&#x212e;" horiz-adv-x="1875" 
d="M389 735l-104 -516q187 -211 510 -211q184 0 359.5 71.5t309.5 199.5h45q-142 -142 -333 -223t-388 -81q-303 0 -501 189q-197 188 -197 471q0 239 143 446q144 212 377 334q235 125 494 125q182 0 336 -74q160 -76 258 -230t98 -353q0 -101 -12 -148h-1395zM506 1303
l-111 -535h1106l107 528q-190 211 -508 211q-323 0 -594 -204z" />
    <glyph glyph-name="onethird" unicode="&#x2153;" horiz-adv-x="1507" 
d="M106 0h-104l1135 1427h102zM299 672h-78l137 682h-98l16 73h177zM727 176l74 25q35 -142 200 -142q90 0 156 60q64 58 64 137q0 70 -54 115t-141 45q-78 0 -119 -21l305 287h-313l14 74h473l-307 -281q4 2 19 2q91 -10 145.5 -69.5t54.5 -145.5q0 -114 -88 -196
q-85 -82 -215 -82q-101 0 -172.5 52.5t-95.5 139.5z" />
    <glyph glyph-name="twothirds" unicode="&#x2154;" horiz-adv-x="1615" 
d="M602 672h-512l442 422q34 34 48.5 50t27.5 42.5t13 54.5q0 56 -36 91.5t-93 35.5q-116 0 -156 -135h-78q19 96 82 153.5t158 57.5q90 0 147 -56t57 -143q0 -93 -96 -186l-334 -314h344zM297 0h-104l1134 1427h103zM836 176l71 25q41 -142 203 -142q88 0 154 60
q63 57 63 137q0 70 -53.5 115t-138.5 45q-81 0 -121 -21l307 287h-315l16 74h473l-307 -281q4 2 18 2q90 -10 144.5 -69t54.5 -146q0 -113 -86 -196q-85 -82 -217 -82q-102 0 -174 52.5t-92 139.5z" />
    <glyph glyph-name="arrowleft" unicode="&#x2190;" horiz-adv-x="1284" 
d="M438 176l-78 -65l-337 421l509 422l60 -75l-356 -297h950l-21 -99h-972z" />
    <glyph glyph-name="arrowup" unicode="&#x2191;" horiz-adv-x="1325" 
d="M569 0h-106l188 922l-332 -279l-61 76l487 407l322 -407l-76 -64l-231 289z" />
    <glyph glyph-name="arrowright" unicode="&#x2192;" horiz-adv-x="1284" 
d="M973 483h-950l20 99h975l-248 307l80 65l338 -422l-510 -421l-62 75z" />
    <glyph glyph-name="arrowdown" unicode="&#x2193;" horiz-adv-x="1325" 
d="M500 -72l-322 406l76 65l231 -290l187 923h106l-184 -901l332 279l61 -76z" />
    <glyph glyph-name="arrowboth" unicode="&#x2194;" horiz-adv-x="1736" 
d="M438 176l-78 -65l-337 421l509 422l60 -75l-356 -297h1234l-245 307l78 65l337 -422l-510 -421l-61 75l356 297h-1232z" />
    <glyph glyph-name="arrowupdn" unicode="&#x2195;" horiz-adv-x="1325" 
d="M492 -121l-302 377l78 66l207 -263l193 947l-299 -250l-60 75l453 379l301 -379l-78 -65l-209 262l-55 -266l-84 -416q-30 -144 -51 -264l297 250l61 -76z" />
    <glyph glyph-name="arrownorthwest" unicode="&#x2196;" horiz-adv-x="1325" 
d="M274 354h-104l123 598h600l-23 -102h-430l553 -696l-78 -66l-550 692z" />
    <glyph glyph-name="arrownortheast" unicode="&#x2197;" horiz-adv-x="1325" 
d="M985 764l-825 -682l-64 78l834 690h-420l20 102h600l-122 -598h-107z" />
    <glyph glyph-name="arrowsoutheast" unicode="&#x2198;" horiz-adv-x="1325" 
d="M956 98h-600l23 103h430l-553 696l78 66l551 -693l90 426h104z" />
    <glyph glyph-name="arrowsouthwest" unicode="&#x2199;" horiz-adv-x="1325" 
d="M719 98h-600l123 598h106l-84 -409l826 682l63 -80l-834 -688h420z" />
    <glyph glyph-name="partialdiff" unicode="&#x2202;" horiz-adv-x="1036" 
d="M8 354q0 216 144 375q143 162 344 162q122 0 207 -65.5t108 -176.5q0 -31 -4 -51q63 171 63 330q0 198 -80.5 319t-216.5 121q-114 0 -202 -104l-60 61q106 139 269 139q175 0 284 -145t109 -379q0 -243 -131 -557q-170 -406 -486 -406q-153 0 -252 105q-96 110 -96 272z
M111 354q0 -124 70.5 -201t185.5 -77q152 0 266 135q115 136 115 328q0 110 -75 184t-186 74q-154 0 -266 -133q-110 -131 -110 -310z" />
    <glyph glyph-name="increment" unicode="&#x2206;" horiz-adv-x="1275" 
d="M1073 0h-1161l876 1454zM739 1184l-651 -1086h860z" />
    <glyph glyph-name="product" unicode="&#x220f;" horiz-adv-x="1314" 
d="M242 0h-105l271 1331h-211l20 96h1174l-21 -96h-211l-270 -1331h-105l271 1331h-543z" />
    <glyph glyph-name="summation" unicode="&#x2211;" horiz-adv-x="1179" 
d="M920 0h-1006l686 760l-367 667h955l-21 -98h-764l320 -586l-582 -645h799z" />
    <glyph glyph-name="minus" unicode="&#x2212;" horiz-adv-x="800" 
d="M698 666h-614l18 96h615z" />
    <glyph glyph-name="radical" unicode="&#x221a;" horiz-adv-x="1470" 
d="M377 852l205 -909l891 1693h108l-1036 -1972l-242 1067l-201 -78l-20 82z" />
    <glyph glyph-name="infinity" unicode="&#x221e;" horiz-adv-x="1597" 
d="M383 383q-131 0 -212 71.5t-81 186.5q0 130 105 229t247 99q186 0 361 -224q109 101 123 113q42 33 121 72q74 39 151 39q128 0 209.5 -73.5t81.5 -188.5q0 -126 -103 -226q-101 -98 -251 -98q-178 0 -349 219q-59 -54 -127 -110q-57 -44 -132 -76.5t-144 -32.5zM909 715
l-49 -45q150 -191 287 -191q100 0 166 66q67 67 67 151q0 78 -54 127t-142 49q-53 -6 -87.5 -19.5t-82.5 -47.5l-49 -39zM399 479q63 0 144 47q39 25 92 72l47 41l47 41q-155 192 -293 192q-96 0 -166 -67q-69 -66 -69 -156q0 -74 55.5 -122t142.5 -48z" />
    <glyph glyph-name="integral" unicode="&#x222b;" horiz-adv-x="657" 
d="M-31 -119q98 0 145.5 74.5t84.5 261.5q21 113 77 471q62 372 89 506q43 225 123.5 324.5t220.5 99.5q36 0 69 -10l-18 -84l-10 2q-11 1 -25.5 2.5t-24.5 1.5q-95 0 -148 -84.5t-87 -259.5q-25 -127 -84 -492q-69 -426 -82 -495q-41 -221 -118 -314.5t-218 -93.5
q-47 0 -84 16l17 84q42 -10 73 -10z" />
    <glyph glyph-name="approxequal" unicode="&#x2248;" horiz-adv-x="847" 
d="M147 784l-67 9q26 72 86 114.5t135 42.5q71 0 160 -47q89 -45 145 -45q98 0 144 88l67 -6q-61 -168 -225 -168q-75 0 -164 47t-141 47q-100 0 -140 -82zM104 508l-69 8q30 73 88.5 115.5t132.5 42.5q71 0 160 -47q89 -45 145 -45q101 0 144 88l69 -6q-61 -168 -225 -168
q-75 0 -164 47t-141 47q-100 0 -140 -82z" />
    <glyph glyph-name="notequal" unicode="&#x2260;" horiz-adv-x="886" 
d="M346 532l-213 -270l-72 45l177 225h-183l21 95h237l158 198h-354l18 95h412l205 260l69 -47l-170 -213h185l-19 -95h-239l-158 -198h356l-20 -95h-410z" />
    <glyph glyph-name="lessequal" unicode="&#x2264;" horiz-adv-x="837" 
d="M666 397l-23 -104l-596 436l776 438l-24 -125l-574 -321zM594 45h-668l19 96h669z" />
    <glyph glyph-name="greaterequal" unicode="&#x2265;" horiz-adv-x="837" 
d="M795 729l-777 -438l25 125l571 321l-440 324l23 104zM639 45h-668l19 96h669z" />
    <glyph glyph-name="triagup" unicode="&#x25b2;" horiz-adv-x="917" 
d="M659 346h-548l360 469z" />
    <glyph glyph-name="triagrt" unicode="&#x25ba;" horiz-adv-x="917" 
d="M692 547l-524 -283l111 549z" />
    <glyph glyph-name="triagdn" unicode="&#x25bc;" horiz-adv-x="917" 
d="M737 733l-377 -467l-172 467h549z" />
    <glyph glyph-name="triaglf" unicode="&#x25c4;" horiz-adv-x="917" 
d="M567 264l-409 283l522 266z" />
    <glyph glyph-name="lozenge" unicode="&#x25ca;" horiz-adv-x="1087" 
d="M1008 715l-621 -766l-309 766l618 751zM195 698l223 -553l473 584l-223 543z" />
    <glyph glyph-name="uni25E2" unicode="&#x25e2;" horiz-adv-x="917" 
d="M614 305l-503 133l467 387z" />
    <glyph glyph-name="uni25E3" unicode="&#x25e3;" horiz-adv-x="917" 
d="M694 438l-557 -131l248 518z" />
    <glyph glyph-name="uni25E4" unicode="&#x25e4;" horiz-adv-x="917" 
d="M733 651l-467 -389l-35 520z" />
    <glyph glyph-name="uni25E5" unicode="&#x25e5;" horiz-adv-x="917" 
d="M715 782l-240 -530l-307 387z" />
    <glyph glyph-name="fl" unicode="&#xfb02;" horiz-adv-x="1124" 
d="M180 0h-102l192 936h-159l18 96h160l28 139q26 134 109 207.5t213 73.5q69 0 100 -8l-20 -96q-27 8 -94 8q-165 0 -209 -203l-25 -121h227l-18 -96h-227zM604 188q0 42 12 103l232 1136h104l-233 -1144q-10 -52 -10 -78q0 -62 36.5 -96.5t102.5 -34.5q38 0 72 12l-23 -96
q-27 -10 -70 -10q-104 0 -163.5 55.5t-59.5 152.5z" />
    <glyph glyph-name="ffl" unicode="&#xfb04;" horiz-adv-x="1632" 
d="M180 0h-102l192 936h-159l18 96h160l28 139q26 136 110 208.5t212 72.5q76 0 100 -8l-20 -96q-27 8 -96 8q-166 0 -207 -203l-25 -121h377l29 139q26 136 109.5 208.5t211.5 72.5q77 0 101 -8l-21 -96q-27 8 -96 8q-166 0 -207 -203l-25 -121h228l-19 -96h-227l-193 -936
h-102l193 936h-377zM1112 188q0 42 12 103l232 1136h104l-233 -1144q-10 -52 -10 -78q0 -62 37 -96.5t104 -34.5q34 0 69 12l-20 -96q-30 -10 -72 -10q-104 0 -163.5 55.5t-59.5 152.5z" />
    <glyph glyph-name="CR" horiz-adv-x="681" 
 />
    <glyph glyph-name="space.frac" horiz-adv-x="61" 
 />
    <glyph glyph-name="ygrave.alt" horiz-adv-x="1026" 
d="M45 -395l256 409l-197 1018h103l170 -895l563 895h115l-897 -1427h-113zM651 1130h-82l-114 297h135z" />
    <glyph glyph-name="yacute.alt" horiz-adv-x="1026" 
d="M596 1130h-88l184 297h137zM45 -395l256 409l-197 1018h103l170 -895l563 895h115l-897 -1427h-113z" />
    <glyph glyph-name="ycircumflex.alt" horiz-adv-x="1026" 
d="M399 1180h-135l377 286l258 -286h-127l-147 190zM45 -395l256 409l-197 1018h103l170 -895l563 895h115l-897 -1427h-113z" />
    <glyph glyph-name="ydieresis.alt" horiz-adv-x="1026" 
d="M805 1233q-31 0 -49.5 18t-18.5 47q0 31 24.5 56.5t55.5 25.5t50.5 -19t19.5 -48q0 -32 -24 -56t-58 -24zM383 1233q-31 0 -49.5 18t-18.5 47q0 31 24.5 56.5t55.5 25.5t50.5 -19t19.5 -48q0 -32 -24 -56t-58 -24zM45 -395l256 409l-197 1018h103l170 -895l563 895h115
l-897 -1427h-113z" />
    <glyph glyph-name="C.alt" horiz-adv-x="1380" 
d="M88 625q0 217 107 403q108 190 297 305q188 117 409 117q292 0 469 -160l-27 -112q-168 174 -448 174q-291 0 -498 -219q-204 -216 -204 -500q0 -248 161 -402q165 -157 424 -157q211 0 377 106l-22 -117q-156 -90 -365 -90q-297 0 -489 183q-191 185 -191 469z" />
    <glyph glyph-name="G.alt" horiz-adv-x="1540" 
d="M88 612q0 333 238 586q236 254 579 254q143 0 272 -46t212 -132l-23 -117q-82 89 -205 142t-270 53q-277 0 -485 -217q-209 -215 -209 -498q0 -254 161 -408q162 -155 420 -155q116 0 229 36t191 97l92 455h-483l20 100h590l-123 -606q-97 -86 -237 -133.5t-289 -47.5
q-295 0 -489 185q-191 185 -191 452z" />
    <glyph glyph-name="K.alt" horiz-adv-x="1193" 
d="M158 0h-107l291 1427h107l-136 -657l803 657h148l-856 -702l585 -725h-133l-559 696z" />
    <glyph glyph-name="M.alt" horiz-adv-x="1722" 
d="M451 1124l-424 -1124h-111l553 1473l283 -1266l807 1266l-39 -1473h-105l27 1116l-733 -1153z" />
    <glyph glyph-name="Q.alt" horiz-adv-x="1681" 
d="M90 625q0 327 238 577q241 250 577 250q300 0 494 -188q192 -186 192 -476q0 -176 -77.5 -339t-215.5 -281l129 -168h-120l-86 113q-199 -138 -449 -138q-299 0 -491 183q-191 182 -191 467zM197 633q0 -248 161 -402q165 -157 424 -157q203 0 377 116l-321 424h120
l279 -366q117 103 182.5 243t65.5 289q0 254 -162 412q-165 160 -424 160q-291 0 -498 -219q-204 -216 -204 -500z" />
    <glyph glyph-name="S.alt" horiz-adv-x="1093" 
d="M-4 172l24 121q66 -103 173 -161t231 -58q182 0 285 92q104 91 104 215q0 114 -63 180q-69 72 -215 164q-137 82 -209 160q-70 76 -70 194q0 156 123 264q127 109 307 109q88 0 172.5 -32.5t134.5 -88.5l-22 -110q-113 131 -293 131q-135 0 -223 -76t-88 -184
q0 -85 53.5 -147t177.5 -134q114 -69 181 -127t105 -132.5t38 -166.5q0 -70 -24 -137t-86.5 -132.5t-156.5 -101.5q-98 -39 -237 -39q-133 0 -248.5 55.5t-173.5 141.5z" />
    <glyph glyph-name="W.alt" horiz-adv-x="1906" 
d="M961 770l-484 -809l-276 1466h102l225 -1194l400 666l-103 528h107l78 -413l241 413h115l-324 -548l121 -643l711 1191h117l-875 -1466z" />
    <glyph glyph-name="Cacute.alt" horiz-adv-x="1380" 
d="M1014 1526h-88l182 297h139zM88 625q0 217 107 403q108 190 297 305q188 117 409 117q292 0 469 -160l-27 -112q-168 174 -448 174q-291 0 -498 -219q-204 -216 -204 -500q0 -248 161 -402q165 -157 424 -157q211 0 377 106l-22 -117q-156 -90 -365 -90q-297 0 -489 183
q-191 185 -191 469z" />
    <glyph glyph-name="Ccircumflex.alt" horiz-adv-x="1380" 
d="M797 1575h-138l377 287l258 -287h-125l-147 190zM88 625q0 217 107 403q108 190 297 305q188 117 409 117q292 0 469 -160l-27 -112q-168 174 -448 174q-291 0 -498 -219q-204 -216 -204 -500q0 -248 161 -402q165 -157 424 -157q211 0 377 106l-22 -117
q-156 -90 -365 -90q-297 0 -489 183q-191 185 -191 469z" />
    <glyph glyph-name="Ccaron.alt" horiz-adv-x="1380" 
d="M1368 1823l-377 -287l-258 287h127l148 -191l225 191h135zM88 625q0 217 107 403q108 190 297 305q188 117 409 117q292 0 469 -160l-27 -112q-168 174 -448 174q-291 0 -498 -219q-204 -216 -204 -500q0 -248 161 -402q165 -157 424 -157q211 0 377 106l-22 -117
q-156 -90 -365 -90q-297 0 -489 183q-191 185 -191 469z" />
    <glyph glyph-name="Cdotaccent.alt" horiz-adv-x="1380" 
d="M1010 1573q-31 0 -50.5 18t-19.5 47q0 32 25 57t57 25q31 0 50.5 -18t19.5 -47q0 -33 -23.5 -57.5t-58.5 -24.5zM88 625q0 217 107 403q108 190 297 305q188 117 409 117q292 0 469 -160l-27 -112q-168 174 -448 174q-291 0 -498 -219q-204 -216 -204 -500
q0 -248 161 -402q165 -157 424 -157q211 0 377 106l-22 -117q-156 -90 -365 -90q-297 0 -489 183q-191 185 -191 469z" />
    <glyph glyph-name="Ccedilla.alt" horiz-adv-x="1380" 
d="M430 -328l39 52q48 -31 106 -31q42 0 70.5 23.5t28.5 56.5q0 67 -119 67q-14 0 -20 -2l92 150q-245 41 -391 215q-148 177 -148 422q0 217 107 403q108 190 297 305q188 117 409 117q292 0 469 -160l-27 -112q-168 174 -448 174q-291 0 -498 -219q-204 -216 -204 -500
q0 -248 161 -402q165 -157 424 -157q211 0 377 106l-22 -117q-156 -90 -365 -90q-31 0 -63 4l-60 -92q52 -2 84.5 -31.5t32.5 -78.5q0 -66 -52 -108t-132 -42q-101 0 -148 47z" />
    <glyph glyph-name="Gcircumflex.alt" horiz-adv-x="1540" 
d="M795 1575h-136l377 287l258 -287h-127l-147 190zM88 612q0 333 238 586q236 254 579 254q143 0 272 -46t212 -132l-23 -117q-82 89 -205 142t-270 53q-277 0 -485 -217q-209 -215 -209 -498q0 -254 161 -408q162 -155 420 -155q116 0 229 36t191 97l92 455h-483l20 100
h590l-123 -606q-97 -86 -237 -133.5t-289 -47.5q-295 0 -489 185q-191 185 -191 452z" />
    <glyph glyph-name="Gbreve.alt" horiz-adv-x="1540" 
d="M975 1538q-109 0 -171.5 65t-62.5 177h97q5 -76 41 -114t110 -38q72 0 126 41.5t79 110.5h96q-32 -116 -114.5 -179t-200.5 -63zM88 612q0 333 238 586q236 254 579 254q143 0 272 -46t212 -132l-23 -117q-82 89 -205 142t-270 53q-277 0 -485 -217q-209 -215 -209 -498
q0 -254 161 -408q162 -155 420 -155q116 0 229 36t191 97l92 455h-483l20 100h590l-123 -606q-97 -86 -237 -133.5t-289 -47.5q-295 0 -489 185q-191 185 -191 452z" />
    <glyph glyph-name="Gdotaccent.alt" horiz-adv-x="1540" 
d="M88 612q0 333 238 586q236 254 579 254q143 0 272 -46t212 -132l-23 -117q-82 89 -205 142t-270 53q-277 0 -485 -217q-209 -215 -209 -498q0 -254 161 -408q162 -155 420 -155q116 0 229 36t191 97l92 455h-483l20 100h590l-123 -606q-97 -86 -237 -133.5t-289 -47.5
q-295 0 -489 185q-191 185 -191 452zM993 1573q-31 0 -49 18t-18 47q0 32 24 57t56 25q31 0 50 -18t19 -47q0 -33 -23.5 -57.5t-58.5 -24.5z" />
    <glyph glyph-name="Gcommaaccent.alt" horiz-adv-x="1540" 
d="M88 612q0 333 238 586q236 254 579 254q143 0 272 -46t212 -132l-23 -117q-82 89 -205 142t-270 53q-277 0 -485 -217q-209 -215 -209 -498q0 -254 161 -408q162 -155 420 -155q116 0 229 36t191 97l92 455h-483l20 100h590l-123 -606q-97 -86 -237 -133.5t-289 -47.5
q-295 0 -489 185q-191 185 -191 452zM520 -395h-88l184 297h138z" />
    <glyph glyph-name="Kcommaaccent.alt" horiz-adv-x="1193" 
d="M158 0h-107l291 1427h107l-136 -657l803 657h148l-856 -702l585 -725h-133l-559 696zM246 -395l182 297h139l-233 -297h-88z" />
    <glyph glyph-name="Sacute.alt" horiz-adv-x="1093" 
d="M729 1526h-88l182 297h140zM-4 172l24 121q66 -103 173 -161t231 -58q182 0 285 92q104 91 104 215q0 114 -63 180q-69 72 -215 164q-137 82 -209 160q-70 76 -70 194q0 156 123 264q127 109 307 109q88 0 172.5 -32.5t134.5 -88.5l-22 -110q-113 131 -293 131
q-135 0 -223 -76t-88 -184q0 -85 53.5 -147t177.5 -134q114 -69 181 -127t105 -132.5t38 -166.5q0 -70 -24 -137t-86.5 -132.5t-156.5 -101.5q-98 -39 -237 -39q-133 0 -248.5 55.5t-173.5 141.5z" />
    <glyph glyph-name="Scircumflex.alt" horiz-adv-x="1093" 
d="M-4 172l24 121q66 -103 173 -161t231 -58q182 0 285 92q104 91 104 215q0 114 -63 180q-69 72 -215 164q-137 82 -209 160q-70 76 -70 194q0 156 123 264q127 109 307 109q88 0 172.5 -32.5t134.5 -88.5l-22 -110q-113 131 -293 131q-135 0 -223 -76t-88 -184
q0 -85 53.5 -147t177.5 -134q114 -69 181 -127t105 -132.5t38 -166.5q0 -70 -24 -137t-86.5 -132.5t-156.5 -101.5q-98 -39 -237 -39q-133 0 -248.5 55.5t-173.5 141.5zM537 1575h-138l377 287l258 -287h-125l-149 190z" />
    <glyph glyph-name="Scaron.alt" horiz-adv-x="1093" 
d="M-4 172l24 121q66 -103 173 -161t231 -58q182 0 285 92q104 91 104 215q0 114 -63 180q-69 72 -215 164q-137 82 -209 160q-70 76 -70 194q0 156 123 264q127 109 307 109q88 0 172.5 -32.5t134.5 -88.5l-22 -110q-113 131 -293 131q-135 0 -223 -76t-88 -184
q0 -85 53.5 -147t177.5 -134q114 -69 181 -127t105 -132.5t38 -166.5q0 -70 -24 -137t-86.5 -132.5t-156.5 -101.5q-98 -39 -237 -39q-133 0 -248.5 55.5t-173.5 141.5zM1102 1823l-377 -287l-258 287h125l147 -191l226 191h137z" />
    <glyph glyph-name="Scommaaccent.alt" horiz-adv-x="1093" 
d="M-4 172l24 121q66 -103 173 -161t231 -58q182 0 285 92q104 91 104 215q0 114 -63 180q-69 72 -215 164q-137 82 -209 160q-70 76 -70 194q0 156 123 264q127 109 307 109q88 0 172.5 -32.5t134.5 -88.5l-22 -110q-113 131 -293 131q-135 0 -223 -76t-88 -184
q0 -85 53.5 -147t177.5 -134q114 -69 181 -127t105 -132.5t38 -166.5q0 -70 -24 -137t-86.5 -132.5t-156.5 -101.5q-98 -39 -237 -39q-133 0 -248.5 55.5t-173.5 141.5zM186 -395l185 297h137l-234 -297h-88z" />
    <glyph glyph-name="Scedilla.alt" horiz-adv-x="1093" 
d="M190 -328l37 54q54 -31 107 -31q42 0 70 23t28 55q0 67 -115 67q-20 0 -26 -2l88 139q-122 7 -226.5 61.5t-156.5 133.5l24 121q66 -103 173 -161t231 -58q182 0 285 92q104 91 104 215q0 114 -63 180q-69 72 -215 164q-137 82 -209 160q-70 76 -70 194q0 156 123 264
q127 109 307 109q88 0 172.5 -32.5t134.5 -88.5l-22 -110q-113 131 -293 131q-135 0 -223 -76t-88 -184q0 -85 53.5 -147t177.5 -134q114 -69 181 -127t105 -132.5t38 -166.5q0 -53 -14.5 -105.5t-49 -106t-85.5 -94.5t-130.5 -69t-177.5 -33l-57 -88q52 -5 83 -34.5
t31 -79.5q0 -66 -53 -108t-133 -42q-102 0 -146 47z" />
    <glyph glyph-name="Wgrave.alt" horiz-adv-x="1912" 
d="M1167 1526h-82l-112 297h133zM961 770l-484 -809l-276 1466h102l225 -1194l400 666l-103 528h107l78 -413l241 413h115l-324 -548l121 -643l711 1191h117l-875 -1466z" />
    <glyph glyph-name="Wacute.alt" horiz-adv-x="1912" 
d="M1139 1526h-88l182 297h139zM961 770l-484 -809l-276 1466h102l225 -1194l400 666l-103 528h107l78 -413l241 413h115l-324 -548l121 -643l711 1191h117l-875 -1466z" />
    <glyph glyph-name="Wcircumflex.alt" horiz-adv-x="1912" 
d="M932 1575h-135l377 287l258 -287h-125l-150 190zM961 770l-484 -809l-276 1466h102l225 -1194l400 666l-103 528h107l78 -413l241 413h115l-324 -548l121 -643l711 1191h117l-875 -1466z" />
    <glyph glyph-name="Wdieresis.alt" horiz-adv-x="1912" 
d="M1341 1548q-29 0 -48 18.5t-19 47.5q0 31 24.5 56.5t55.5 25.5q30 0 49.5 -19t19.5 -49q0 -32 -24 -56t-58 -24zM911 1548q-31 0 -50 18.5t-19 47.5q0 31 25 56.5t57 25.5q30 0 49.5 -19t19.5 -49q0 -32 -24 -56t-58 -24zM961 770l-484 -809l-276 1466h102l225 -1194
l400 666l-103 528h107l78 -413l241 413h115l-324 -548l121 -643l711 1191h117l-875 -1466z" />
    <glyph glyph-name="a.alt" horiz-adv-x="1255" 
d="M27 451q0 239 172 423q176 185 422 185q171 0 284 -76q120 -75 146 -178l47 227h104l-211 -1032h-104l41 199q-133 -222 -416 -222q-215 0 -350 132t-135 342zM131 457q0 -172 107 -279q106 -106 282 -106q213 0 350 155q142 157 142 389q0 156 -111 250q-114 97 -291 97
q-204 0 -342 -156q-137 -155 -137 -350z" />
    <glyph glyph-name="c.alt" horiz-adv-x="1054" 
d="M27 453q0 243 178 424q179 182 424 182q246 0 385 -160l-21 -106q-138 170 -375 170q-200 0 -346 -152q-141 -150 -141 -352q0 -173 113 -283q114 -108 295 -108q190 0 335 127l-26 -125q-129 -97 -318 -97q-222 0 -364 133q-139 136 -139 347z" />
    <glyph glyph-name="e.alt" horiz-adv-x="1148" 
d="M23 428q0 255 167 440q171 189 416 189q199 0 316 -129q118 -124 118 -326q0 -63 -14 -106h-895q-4 -20 -4 -58q0 -173 102 -271.5t279 -98.5q194 0 356 137l-24 -125q-139 -109 -336 -109q-221 0 -351 124t-130 333zM152 586h782q4 20 4 41q0 145 -94 239
q-95 95 -244 95q-69 0 -154 -31q-74 -28 -167 -121q-86 -89 -127 -223z" />
    <glyph glyph-name="g.alt" horiz-adv-x="1263" 
d="M-41 -250l25 115q135 -205 458 -205q376 0 461 414l27 121q-132 -218 -414 -218q-214 0 -352 132q-135 132 -135 342q0 237 172 421q175 187 422 187q171 0 284 -76q120 -75 146 -178l47 227h106l-186 -901q-30 -143 -71 -240.5t-107 -173.5q-129 -153 -412 -153
q-151 0 -278 48t-193 138zM133 457q0 -172 107 -279q106 -106 282 -106q212 0 352 155q142 157 142 389q0 156 -113 250q-114 97 -291 97q-204 0 -342 -156q-137 -155 -137 -350z" />
    <glyph glyph-name="j.alt" horiz-adv-x="352" 
d="M289 1233q-31 0 -50.5 18t-19.5 47q0 31 25 56.5t57 25.5q31 0 50.5 -19t19.5 -48q0 -32 -24 -56t-58 -24zM295 1032l-291 -1427h-104l290 1427h105z" />
    <glyph glyph-name="k.alt" horiz-adv-x="886" 
d="M84 0h-104l290 1427h103l-166 -821l534 426h140l-598 -481l436 -551h-121l-410 514z" />
    <glyph glyph-name="l.alt" horiz-adv-x="356" 
d="M86 0h-104l290 1427h105z" />
    <glyph glyph-name="r.alt" horiz-adv-x="690" 
d="M84 0h-104l151 752q65 311 369 311q109 0 164 -19l-19 -94q-56 17 -151 17q-214 0 -261 -238z" />
    <glyph glyph-name="s.alt" horiz-adv-x="817" 
d="M-45 141l25 115q54 -86 143.5 -134t195.5 -48q113 0 183.5 59.5t70.5 142.5q0 74 -44.5 122t-157.5 112q-122 67 -176 125.5t-54 144.5q0 114 92 197q94 82 230 82q160 0 244 -90l-23 -99q-81 93 -223 93q-91 0 -153 -52.5t-62 -126.5q0 -43 26 -79q24 -32 49 -49.5
t89 -53.5l102 -61q24 -13 82 -64q84 -73 84 -190q0 -131 -98 -219q-102 -91 -267 -91q-115 0 -214.5 46t-143.5 118z" />
    <glyph glyph-name="t.alt" horiz-adv-x="600" 
d="M158 0h-105l191 936h-129l20 96h129l80 395h105l-80 -395h241l-20 -96h-242z" />
    <glyph glyph-name="u.alt" horiz-adv-x="1073" 
d="M35 338q0 48 14 119l123 575h104l-124 -598q-11 -60 -11 -98q0 -118 72.5 -190t200.5 -72q313 0 395 401l115 557h104l-211 -1032h-104l37 178q-109 -201 -353 -201q-168 0 -266 101q-96 104 -96 260z" />
    <glyph glyph-name="w.alt" horiz-adv-x="1542" 
d="M733 522l-385 -575l-246 1085h105l188 -842l301 453l-102 389h106l72 -287l186 287h117l-266 -409l115 -435l534 844h115l-690 -1085z" />
    <glyph glyph-name="y.alt" horiz-adv-x="1026" 
d="M45 -395l256 409l-197 1018h103l170 -895l563 895h115l-897 -1427h-113z" />
    <glyph glyph-name="agrave.alt" horiz-adv-x="1255" 
d="M739 1130h-84l-112 297h133zM27 451q0 239 172 423q176 185 422 185q171 0 284 -76q120 -75 146 -178l47 227h104l-211 -1032h-104l41 199q-133 -222 -416 -222q-215 0 -350 132t-135 342zM131 457q0 -172 107 -279q106 -106 282 -106q213 0 350 155q142 157 142 389
q0 156 -111 250q-114 97 -291 97q-204 0 -342 -156q-137 -155 -137 -350z" />
    <glyph glyph-name="aacute.alt" horiz-adv-x="1255" 
d="M27 451q0 239 172 423q176 185 422 185q171 0 284 -76q120 -75 146 -178l47 227h104l-211 -1032h-104l41 199q-133 -222 -416 -222q-215 0 -350 132t-135 342zM131 457q0 -172 107 -279q106 -106 282 -106q213 0 350 155q142 157 142 389q0 156 -111 250q-114 97 -291 97
q-204 0 -342 -156q-137 -155 -137 -350zM711 1130h-88l182 297h137z" />
    <glyph glyph-name="acircumflex.alt" horiz-adv-x="1255" 
d="M27 451q0 239 172 423q176 185 422 185q171 0 284 -76q120 -75 146 -178l47 227h104l-211 -1032h-104l41 199q-133 -222 -416 -222q-215 0 -350 132t-135 342zM131 457q0 -172 107 -279q106 -106 282 -106q213 0 350 155q142 157 142 389q0 156 -111 250q-114 97 -291 97
q-204 0 -342 -156q-137 -155 -137 -350zM522 1180h-137l377 286l258 -286h-125l-150 190z" />
    <glyph glyph-name="atilde.alt" horiz-adv-x="1255" 
d="M494 1223l-76 6q24 74 77 118t123 44q60 0 125 -45q67 -43 109 -43q79 0 117 96l75 -6q-53 -176 -204 -176q-62 0 -129 43q-65 45 -109 45q-78 0 -108 -82zM27 451q0 239 172 423q176 185 422 185q171 0 284 -76q120 -75 146 -178l47 227h104l-211 -1032h-104l41 199
q-133 -222 -416 -222q-215 0 -350 132t-135 342zM131 457q0 -172 107 -279q106 -106 282 -106q213 0 350 155q142 157 142 389q0 156 -111 250q-114 97 -291 97q-204 0 -342 -156q-137 -155 -137 -350z" />
    <glyph glyph-name="adieresis.alt" horiz-adv-x="1255" 
d="M930 1233q-30 0 -49 18t-19 47q0 31 24 56.5t56 25.5q31 0 50.5 -19t19.5 -48q0 -32 -24 -56t-58 -24zM508 1233q-30 0 -49 18t-19 47q0 31 24 56.5t56 25.5q31 0 50.5 -19t19.5 -48q0 -32 -24 -56t-58 -24zM27 451q0 239 172 423q176 185 422 185q171 0 284 -76
q120 -75 146 -178l47 227h104l-211 -1032h-104l41 199q-133 -222 -416 -222q-215 0 -350 132t-135 342zM131 457q0 -172 107 -279q106 -106 282 -106q213 0 350 155q142 157 142 389q0 156 -111 250q-114 97 -291 97q-204 0 -342 -156q-137 -155 -137 -350z" />
    <glyph glyph-name="amacron.alt" horiz-adv-x="1255" 
d="M1022 1243h-602l18 96h602zM27 451q0 239 172 423q176 185 422 185q171 0 284 -76q120 -75 146 -178l47 227h104l-211 -1032h-104l41 199q-133 -222 -416 -222q-215 0 -350 132t-135 342zM131 457q0 -172 107 -279q106 -106 282 -106q213 0 350 155q142 157 142 389
q0 156 -111 250q-114 97 -291 97q-204 0 -342 -156q-137 -155 -137 -350z" />
    <glyph glyph-name="abreve.alt" horiz-adv-x="1255" 
d="M715 1186q-109 0 -171.5 64.5t-62.5 176.5h97q5 -76 41 -112.5t110 -36.5q150 0 205 149h96q-32 -115 -115 -178t-200 -63zM27 451q0 239 172 423q176 185 422 185q171 0 284 -76q120 -75 146 -178l47 227h104l-211 -1032h-104l41 199q-133 -222 -416 -222
q-215 0 -350 132t-135 342zM131 457q0 -172 107 -279q106 -106 282 -106q213 0 350 155q142 157 142 389q0 156 -111 250q-114 97 -291 97q-204 0 -342 -156q-137 -155 -137 -350z" />
    <glyph glyph-name="aring.alt" horiz-adv-x="1255" 
d="M729 1145q-69 0 -112.5 41.5t-43.5 107.5q0 76 55 132.5t132 56.5q69 0 113.5 -43.5t44.5 -110.5q0 -73 -55.5 -128.5t-133.5 -55.5zM737 1219q42 0 73.5 32.5t31.5 71.5q0 37 -25 60.5t-63 23.5q-42 0 -73.5 -31.5t-31.5 -72.5q0 -37 25 -60.5t63 -23.5zM27 451
q0 239 172 423q176 185 422 185q171 0 284 -76q120 -75 146 -178l47 227h104l-211 -1032h-104l41 199q-133 -222 -416 -222q-215 0 -350 132t-135 342zM131 457q0 -172 107 -279q106 -106 282 -106q213 0 350 155q142 157 142 389q0 156 -111 250q-114 97 -291 97
q-204 0 -342 -156q-137 -155 -137 -350z" />
    <glyph glyph-name="aringacute.alt" horiz-adv-x="1255" 
d="M842 1571h-88l184 297h137zM729 1145q-69 0 -112.5 41.5t-43.5 107.5q0 76 55 132.5t132 56.5q69 0 113.5 -43.5t44.5 -110.5q0 -73 -55.5 -128.5t-133.5 -55.5zM737 1219q42 0 73.5 32.5t31.5 71.5q0 37 -25 60.5t-63 23.5q-42 0 -73.5 -31.5t-31.5 -72.5
q0 -37 25 -60.5t63 -23.5zM27 451q0 239 172 423q176 185 422 185q171 0 284 -76q120 -75 146 -178l47 227h104l-211 -1032h-104l41 199q-133 -222 -416 -222q-215 0 -350 132t-135 342zM131 457q0 -172 107 -279q106 -106 282 -106q213 0 350 155q142 157 142 389
q0 156 -111 250q-114 97 -291 97q-204 0 -342 -156q-137 -155 -137 -350z" />
    <glyph glyph-name="aogonek.alt" horiz-adv-x="1255" 
d="M27 451q0 240 174 423q176 185 424 185q169 0 282 -76q118 -76 144 -178l47 227h104l-211 -1032q-207 -115 -207 -223q0 -38 27.5 -62t71.5 -24q59 0 114 24l-34 -84q-42 -22 -105 -22q-75 0 -122.5 40.5t-47.5 106.5q0 147 199 246l2 10l39 187q-133 -222 -416 -222
q-215 0 -350 132t-135 342zM131 457q0 -172 107 -279q106 -106 282 -106q213 0 350 155q142 157 142 389q0 156 -111 250q-111 97 -285 97q-208 0 -346 -156q-139 -154 -139 -350z" />
    <glyph glyph-name="cacute.alt" horiz-adv-x="1054" 
d="M711 1130h-88l182 297h139zM27 453q0 243 178 424q179 182 424 182q246 0 385 -160l-21 -106q-138 170 -375 170q-200 0 -346 -152q-141 -150 -141 -352q0 -173 113 -283q114 -108 295 -108q190 0 335 127l-26 -125q-129 -97 -318 -97q-222 0 -364 133q-139 136 -139 347
z" />
    <glyph glyph-name="ccircumflex.alt" horiz-adv-x="1054" 
d="M504 1180h-137l376 286l258 -286h-124l-148 190zM27 453q0 243 178 424q179 182 424 182q246 0 385 -160l-21 -106q-138 170 -375 170q-200 0 -346 -152q-141 -150 -141 -352q0 -173 113 -283q114 -108 295 -108q190 0 335 127l-26 -125q-129 -97 -318 -97
q-222 0 -364 133q-139 136 -139 347z" />
    <glyph glyph-name="ccaron.alt" horiz-adv-x="1054" 
d="M1061 1427l-377 -286l-258 286h127l147 -190l226 190h135zM27 453q0 243 178 424q179 182 424 182q246 0 385 -160l-21 -106q-138 170 -375 170q-200 0 -346 -152q-141 -150 -141 -352q0 -173 113 -283q114 -108 295 -108q190 0 335 127l-26 -125q-129 -97 -318 -97
q-222 0 -364 133q-139 136 -139 347z" />
    <glyph glyph-name="cdotaccent.alt" horiz-adv-x="1054" 
d="M713 1233q-31 0 -49.5 18t-18.5 47q0 32 25 57t57 25q31 0 49.5 -18t18.5 -47q0 -33 -23.5 -57.5t-58.5 -24.5zM27 453q0 243 178 424q179 182 424 182q246 0 385 -160l-21 -106q-138 170 -375 170q-200 0 -346 -152q-141 -150 -141 -352q0 -173 113 -283
q114 -108 295 -108q190 0 335 127l-26 -125q-129 -97 -318 -97q-222 0 -364 133q-139 136 -139 347z" />
    <glyph glyph-name="ccedilla.alt" horiz-adv-x="1054" 
d="M236 -328l36 54q54 -31 107 -31q42 0 70 23t28 55q0 67 -115 67q-20 0 -26 -2l92 146q-180 27 -293 155q-108 129 -108 314q0 243 178 424q179 182 424 182q246 0 385 -160l-21 -106q-138 170 -375 170q-200 0 -346 -152q-141 -150 -141 -352q0 -173 113 -283
q114 -108 295 -108q190 0 335 127l-26 -125q-129 -97 -318 -97q-18 0 -22 2l-55 -86q52 -5 83 -34.5t31 -79.5q0 -66 -53 -108t-133 -42q-101 0 -145 47z" />
    <glyph glyph-name="egrave.alt" horiz-adv-x="1148" 
d="M717 1130h-84l-113 297h135zM23 428q0 255 167 440q171 189 416 189q199 0 316 -129q118 -124 118 -326q0 -63 -14 -106h-895q-4 -20 -4 -58q0 -173 102 -271.5t279 -98.5q194 0 356 137l-24 -125q-139 -109 -336 -109q-221 0 -351 124t-130 333zM152 586h782q4 20 4 41
q0 145 -94 239q-95 95 -244 95q-69 0 -154 -31q-74 -28 -167 -121q-86 -89 -127 -223z" />
    <glyph glyph-name="eacute.alt" horiz-adv-x="1148" 
d="M670 1130h-88l182 297h139zM23 428q0 255 167 440q171 189 416 189q199 0 316 -129q118 -124 118 -326q0 -63 -14 -106h-895q-4 -20 -4 -58q0 -173 102 -271.5t279 -98.5q194 0 356 137l-24 -125q-139 -109 -336 -109q-221 0 -351 124t-130 333zM152 586h782q4 20 4 41
q0 145 -94 239q-95 95 -244 95q-69 0 -154 -31q-74 -28 -167 -121q-86 -89 -127 -223z" />
    <glyph glyph-name="ecircumflex.alt" horiz-adv-x="1148" 
d="M23 428q0 255 167 440q171 189 416 189q199 0 316 -129q118 -124 118 -326q0 -63 -14 -106h-895q-4 -20 -4 -58q0 -173 102 -271.5t279 -98.5q194 0 356 137l-24 -125q-139 -109 -336 -109q-221 0 -351 124t-130 333zM152 586h782q4 20 4 41q0 145 -94 239
q-95 95 -244 95q-69 0 -154 -31q-74 -28 -167 -121q-86 -89 -127 -223zM473 1180h-137l377 286l258 -286h-125l-150 190z" />
    <glyph glyph-name="ecaron.alt" horiz-adv-x="1148" 
d="M1032 1427l-377 -286l-256 286h125l148 -190l225 190h135zM23 428q0 255 167 440q171 189 416 189q199 0 316 -129q118 -124 118 -326q0 -63 -14 -106h-895q-4 -20 -4 -58q0 -173 102 -271.5t279 -98.5q194 0 356 137l-24 -125q-139 -109 -336 -109q-221 0 -351 124
t-130 333zM152 586h782q4 20 4 41q0 145 -94 239q-95 95 -244 95q-69 0 -154 -31q-74 -28 -167 -121q-86 -89 -127 -223z" />
    <glyph glyph-name="edieresis.alt" horiz-adv-x="1148" 
d="M881 1233q-30 0 -49 18t-19 47q0 31 24 56.5t56 25.5q31 0 50.5 -19t19.5 -48q0 -32 -24 -56t-58 -24zM459 1233q-30 0 -49 18t-19 47q0 31 24 56.5t56 25.5q31 0 50.5 -19t19.5 -48q0 -32 -24 -56t-58 -24zM23 428q0 255 167 440q171 189 416 189q199 0 316 -129
q118 -124 118 -326q0 -63 -14 -106h-895q-4 -20 -4 -58q0 -173 102 -271.5t279 -98.5q194 0 356 137l-24 -125q-139 -109 -336 -109q-221 0 -351 124t-130 333zM152 586h782q4 20 4 41q0 145 -94 239q-95 95 -244 95q-69 0 -154 -31q-74 -28 -167 -121q-86 -89 -127 -223z
" />
    <glyph glyph-name="emacron.alt" horiz-adv-x="1148" 
d="M969 1243h-602l18 96h602zM23 428q0 255 167 440q171 189 416 189q199 0 316 -129q118 -124 118 -326q0 -63 -14 -106h-895q-4 -20 -4 -58q0 -173 102 -271.5t279 -98.5q194 0 356 137l-24 -125q-139 -109 -336 -109q-221 0 -351 124t-130 333zM152 586h782q4 20 4 41
q0 145 -94 239q-95 95 -244 95q-69 0 -154 -31q-74 -28 -167 -121q-86 -89 -127 -223z" />
    <glyph glyph-name="ebreve.alt" horiz-adv-x="1148" 
d="M659 1186q-109 0 -171 64.5t-62 176.5h96q5 -76 41.5 -112.5t110.5 -36.5q150 0 205 149h96q-32 -115 -115 -178t-201 -63zM23 428q0 255 167 440q171 189 416 189q199 0 316 -129q118 -124 118 -326q0 -63 -14 -106h-895q-4 -20 -4 -58q0 -173 102 -271.5t279 -98.5
q194 0 356 137l-24 -125q-139 -109 -336 -109q-221 0 -351 124t-130 333zM152 586h782q4 20 4 41q0 145 -94 239q-95 95 -244 95q-69 0 -154 -31q-74 -28 -167 -121q-86 -89 -127 -223z" />
    <glyph glyph-name="edotaccent.alt" horiz-adv-x="1148" 
d="M672 1233q-31 0 -50.5 18t-19.5 47q0 31 25 56.5t57 25.5q30 0 49 -19t19 -48q0 -32 -23 -56t-57 -24zM23 428q0 255 167 440q171 189 416 189q199 0 316 -129q118 -124 118 -326q0 -63 -14 -106h-895q-4 -20 -4 -58q0 -173 102 -271.5t279 -98.5q194 0 356 137l-24 -125
q-139 -109 -336 -109q-221 0 -351 124t-130 333zM152 586h782q4 20 4 41q0 145 -94 239q-95 95 -244 95q-69 0 -154 -31q-74 -28 -167 -121q-86 -89 -127 -223z" />
    <glyph glyph-name="eogonek.alt" horiz-adv-x="1148" 
d="M23 428q0 255 167 440q171 189 416 189q199 0 316 -129q118 -124 118 -326q0 -63 -14 -106h-895q-4 -20 -4 -58q0 -172 101 -271t280 -99q210 0 356 137l-22 -121q-69 -56 -154 -82q-219 -83 -219 -213q0 -39 26 -62.5t70 -23.5q65 0 117 25l-37 -84q-48 -25 -104 -25
q-75 0 -122.5 41t-47.5 107q0 125 147 208q-36 -4 -39 -4q-210 6 -333 130t-123 327zM152 586h782q4 20 4 41q0 145 -94 239q-95 95 -244 95q-155 0 -281 -105q-120 -103 -167 -270z" />
    <glyph glyph-name="gcircumflex.alt" horiz-adv-x="1263" 
d="M-41 -250l25 115q135 -205 458 -205q376 0 461 414l27 121q-132 -218 -414 -218q-214 0 -352 132q-135 132 -135 342q0 237 172 421q175 187 422 187q171 0 284 -76q120 -75 146 -178l47 227h106l-186 -901q-30 -143 -71 -240.5t-107 -173.5q-129 -153 -412 -153
q-151 0 -278 48t-193 138zM133 457q0 -172 107 -279q106 -106 282 -106q212 0 352 155q142 157 142 389q0 156 -113 250q-114 97 -291 97q-204 0 -342 -156q-137 -155 -137 -350zM518 1180h-137l377 286l258 -286h-125l-150 190z" />
    <glyph glyph-name="gbreve.alt" horiz-adv-x="1263" 
d="M717 1186q-109 0 -171.5 64.5t-62.5 176.5h97q5 -76 41 -112.5t110 -36.5q150 0 205 149h96q-32 -115 -115 -178t-200 -63zM-41 -250l25 115q135 -205 458 -205q376 0 461 414l27 121q-132 -218 -414 -218q-214 0 -352 132q-135 132 -135 342q0 237 172 421
q175 187 422 187q171 0 284 -76q120 -75 146 -178l47 227h106l-186 -901q-30 -143 -71 -240.5t-107 -173.5q-129 -153 -412 -153q-151 0 -278 48t-193 138zM133 457q0 -172 107 -279q106 -106 282 -106q212 0 352 155q142 157 142 389q0 156 -113 250q-114 97 -291 97
q-204 0 -342 -156q-137 -155 -137 -350z" />
    <glyph glyph-name="gdotaccent.alt" horiz-adv-x="1263" 
d="M727 1233q-30 0 -49 18t-19 47q0 31 25 56.5t57 25.5q31 0 49.5 -19t18.5 -48q0 -32 -24 -56t-58 -24zM-41 -250l25 115q135 -205 458 -205q376 0 461 414l27 121q-132 -218 -414 -218q-214 0 -352 132q-135 132 -135 342q0 237 172 421q175 187 422 187q171 0 284 -76
q120 -75 146 -178l47 227h106l-186 -901q-30 -143 -71 -240.5t-107 -173.5q-129 -153 -412 -153q-151 0 -278 48t-193 138zM133 457q0 -172 107 -279q106 -106 282 -106q212 0 352 155q142 157 142 389q0 156 -113 250q-114 97 -291 97q-204 0 -342 -156
q-137 -155 -137 -350z" />
    <glyph glyph-name="gcommaaccent.alt" horiz-adv-x="1263" 
d="M713 1130h-84l182 297h135zM-41 -250l25 115q135 -205 458 -205q376 0 461 414l27 121q-132 -218 -414 -218q-214 0 -352 132q-135 132 -135 342q0 237 172 421q175 187 422 187q171 0 284 -76q120 -75 146 -178l47 227h106l-186 -901q-30 -143 -71 -240.5t-107 -173.5
q-129 -153 -412 -153q-151 0 -278 48t-193 138zM133 457q0 -172 107 -279q106 -106 282 -106q212 0 352 155q142 157 142 389q0 156 -113 250q-114 97 -291 97q-204 0 -342 -156q-137 -155 -137 -350z" />
    <glyph glyph-name="jcircumflex.alt" horiz-adv-x="391" 
d="M162 1180h-133l311 286l195 -286h-123l-88 174zM313 1032l-290 -1427h-105l291 1427h104z" />
    <glyph glyph-name="kcommaaccent.alt" horiz-adv-x="886" 
d="M84 0h-104l290 1427h103l-166 -821l534 426h140l-598 -481l436 -551h-121l-410 514zM78 -395l182 297h139l-233 -297h-88z" />
    <glyph glyph-name="lacute.alt" horiz-adv-x="356" 
d="M367 1479h-88l184 297h137zM86 0h-104l290 1427h105z" />
    <glyph glyph-name="lcaron.alt" horiz-adv-x="557" 
d="M475 1130h-88l182 297h140zM86 0h-104l290 1427h105z" />
    <glyph glyph-name="lcommaaccent.alt" horiz-adv-x="356" 
d="M86 0h-104l290 1427h105zM-227 -395l184 297h137l-233 -297h-88z" />
    <glyph glyph-name="ldot.alt" horiz-adv-x="567" 
d="M86 0h-104l290 1427h105zM389 682q-29 0 -48 18t-19 45q0 33 23.5 57.5t55.5 24.5t51 -18t19 -47q0 -33 -23.5 -56.5t-58.5 -23.5z" />
    <glyph glyph-name="lslash.alt" horiz-adv-x="411" 
d="M113 0h-105l135 666l-153 -82l22 112l152 80l135 651h104l-120 -587l194 104l-22 -110l-193 -105z" />
    <glyph glyph-name="racute.alt" horiz-adv-x="690" 
d="M457 1130h-88l182 297h139zM84 0h-104l151 752q65 311 369 311q109 0 164 -19l-19 -94q-56 17 -151 17q-214 0 -261 -238z" />
    <glyph glyph-name="rcommaaccent.alt" horiz-adv-x="690" 
d="M84 0h-104l151 752q65 311 369 311q109 0 164 -19l-19 -94q-56 17 -151 17q-214 0 -261 -238zM-223 -395l182 297h139l-233 -297h-88z" />
    <glyph glyph-name="rcaron.alt" horiz-adv-x="690" 
d="M864 1427l-377 -286l-258 286h125l150 -190l223 190h137zM84 0h-104l151 752q65 311 369 311q109 0 164 -19l-19 -94q-56 17 -151 17q-214 0 -261 -238z" />
    <glyph glyph-name="sacute.alt" horiz-adv-x="817" 
d="M514 1130h-88l182 297h140zM-45 141l25 115q54 -86 143.5 -134t195.5 -48q113 0 183.5 59.5t70.5 142.5q0 74 -44.5 122t-157.5 112q-122 67 -176 125.5t-54 144.5q0 114 92 197q94 82 230 82q160 0 244 -90l-23 -99q-81 93 -223 93q-91 0 -153 -52.5t-62 -126.5
q0 -43 26 -79q24 -32 49 -49.5t89 -53.5l102 -61q24 -13 82 -64q84 -73 84 -190q0 -131 -98 -219q-102 -91 -267 -91q-115 0 -214.5 46t-143.5 118z" />
    <glyph glyph-name="scircumflex.alt" horiz-adv-x="817" 
d="M-45 141l25 115q54 -86 143.5 -134t195.5 -48q113 0 183.5 59.5t70.5 142.5q0 74 -44.5 122t-157.5 112q-122 67 -176 125.5t-54 144.5q0 114 92 197q94 82 230 82q160 0 244 -90l-23 -99q-81 93 -223 93q-91 0 -153 -52.5t-62 -126.5q0 -43 26 -79q24 -32 49 -49.5
t89 -53.5l102 -61q24 -13 82 -64q84 -73 84 -190q0 -131 -98 -219q-102 -91 -267 -91q-115 0 -214.5 46t-143.5 118zM311 1180h-137l377 286l258 -286h-125l-149 190z" />
    <glyph glyph-name="scaron.alt" horiz-adv-x="817" 
d="M870 1427l-376 -286l-258 286h126l148 -190l225 190h135zM-45 141l25 115q54 -86 143.5 -134t195.5 -48q113 0 183.5 59.5t70.5 142.5q0 74 -44.5 122t-157.5 112q-122 67 -176 125.5t-54 144.5q0 114 92 197q94 82 230 82q160 0 244 -90l-23 -99q-81 93 -223 93
q-91 0 -153 -52.5t-62 -126.5q0 -43 26 -79q24 -32 49 -49.5t89 -53.5l102 -61q24 -13 82 -64q84 -73 84 -190q0 -131 -98 -219q-102 -91 -267 -91q-115 0 -214.5 46t-143.5 118z" />
    <glyph glyph-name="scommaaccent.alt" horiz-adv-x="817" 
d="M33 -395l182 297h139l-233 -297h-88zM-45 141l25 115q54 -86 143.5 -134t195.5 -48q113 0 183.5 59.5t70.5 142.5q0 74 -44.5 122t-157.5 112q-122 67 -176 125.5t-54 144.5q0 114 92 197q94 82 230 82q160 0 244 -90l-23 -99q-81 93 -223 93q-91 0 -153 -52.5
t-62 -126.5q0 -43 26 -79q24 -32 49 -49.5t89 -53.5l102 -61q24 -13 82 -64q84 -73 84 -190q0 -131 -98 -219q-102 -91 -267 -91q-115 0 -214.5 46t-143.5 118z" />
    <glyph glyph-name="scedilla.alt" horiz-adv-x="817" 
d="M-45 141l25 115q54 -86 143.5 -134t195.5 -48q113 0 183.5 59.5t70.5 142.5q0 74 -44.5 122t-157.5 112q-122 67 -176 125.5t-54 144.5q0 114 92 197q94 82 230 82q160 0 244 -90l-23 -99q-81 93 -223 93q-91 0 -153 -52.5t-62 -126.5q0 -43 26 -79q24 -32 49 -49.5
t89 -53.5l102 -61q24 -13 82 -64q84 -73 84 -190q0 -121 -90 -211q-87 -87 -242 -96l-55 -91q52 -5 83.5 -34.5t31.5 -79.5q0 -65 -53.5 -107.5t-133.5 -42.5q-101 0 -145 47l37 54q54 -31 106 -31q42 0 70 23t28 55q0 67 -116 67q-19 0 -25 -2l88 142q-99 10 -182 54.5
t-125 106.5z" />
    <glyph glyph-name="germandbls.alt" horiz-adv-x="1116" 
d="M84 0h-107l226 1108q9 49 25.5 94.5t46 92t68.5 80.5t97 55.5t127 21.5q138 0 226 -88q88 -85 88 -219q0 -87 -48.5 -165t-127.5 -116q135 -36 215.5 -137.5t80.5 -241.5q0 -202 -153 -358t-383 -156q-107 0 -156 15l21 102q47 -18 145 -18q175 0 295 123
q121 127 121 280q0 139 -94 227q-97 94 -246 97q-34 -2 -78 -11l19 91q116 9 198 88q82 76 82 172q0 94 -59.5 154.5t-153.5 60.5q-108 0 -170 -74t-80 -170z" />
    <glyph glyph-name="tcaron.alt" horiz-adv-x="641" 
d="M158 0h-105l191 936h-129l20 96h129l80 395h105l-80 -395h241l-20 -96h-242zM563 1130h-88l182 297h138z" />
    <glyph glyph-name="tcommaaccent.alt" horiz-adv-x="600" 
d="M158 0h-105l191 936h-129l20 96h129l80 395h105l-80 -395h241l-20 -96h-242zM-150 -395l185 297h137l-233 -297h-89z" />
    <glyph glyph-name="tbar.alt" horiz-adv-x="600" 
d="M158 0h-105l131 647h-129l21 96h129l39 193h-129l20 96h129l80 395h105l-80 -395h241l-20 -96h-242l-39 -193h242l-21 -96h-241z" />
    <glyph glyph-name="ugrave.alt" horiz-adv-x="1073" 
d="M664 1130h-82l-113 297h133zM35 338q0 48 14 119l123 575h104l-124 -598q-11 -60 -11 -98q0 -118 72.5 -190t200.5 -72q313 0 395 401l115 557h104l-211 -1032h-104l37 178q-109 -201 -353 -201q-168 0 -266 101q-96 104 -96 260z" />
    <glyph glyph-name="uacute.alt" horiz-adv-x="1073" 
d="M625 1130h-88l182 297h139zM35 338q0 48 14 119l123 575h104l-124 -598q-11 -60 -11 -98q0 -118 72.5 -190t200.5 -72q313 0 395 401l115 557h104l-211 -1032h-104l37 178q-109 -201 -353 -201q-168 0 -266 101q-96 104 -96 260z" />
    <glyph glyph-name="ucircumflex.alt" horiz-adv-x="1073" 
d="M432 1180h-135l377 286l256 -286h-125l-148 190zM35 338q0 48 14 119l123 575h104l-124 -598q-11 -60 -11 -98q0 -118 72.5 -190t200.5 -72q313 0 395 401l115 557h104l-211 -1032h-104l37 178q-109 -201 -353 -201q-168 0 -266 101q-96 104 -96 260z" />
    <glyph glyph-name="utilde.alt" horiz-adv-x="1073" 
d="M399 1223l-75 6q24 74 77 118t123 44q60 0 125 -45q67 -43 109 -43q81 0 119 96l75 -6q-53 -176 -204 -176q-62 0 -132 43q-65 45 -108 45q-75 0 -109 -82zM35 338q0 48 14 119l123 575h104l-124 -598q-11 -60 -11 -98q0 -118 72.5 -190t200.5 -72q313 0 395 401l115 557
h104l-211 -1032h-104l37 178q-109 -201 -353 -201q-168 0 -266 101q-96 104 -96 260z" />
    <glyph glyph-name="udieresis.alt" horiz-adv-x="1073" 
d="M854 1233q-31 0 -49.5 18t-18.5 47q0 31 24.5 56.5t55.5 25.5t50.5 -19t19.5 -48q0 -32 -24 -56t-58 -24zM432 1233q-31 0 -49 18t-18 47q0 31 24.5 56.5t54.5 25.5q31 0 50.5 -19t19.5 -48q0 -32 -24 -56t-58 -24zM35 338q0 48 14 119l123 575h104l-124 -598
q-11 -60 -11 -98q0 -118 72.5 -190t200.5 -72q313 0 395 401l115 557h104l-211 -1032h-104l37 178q-109 -201 -353 -201q-168 0 -266 101q-96 104 -96 260z" />
    <glyph glyph-name="umacron.alt" horiz-adv-x="1073" 
d="M928 1243h-602l18 96h602zM35 338q0 48 14 119l123 575h104l-124 -598q-11 -60 -11 -98q0 -118 72.5 -190t200.5 -72q313 0 395 401l115 557h104l-211 -1032h-104l37 178q-109 -201 -353 -201q-168 0 -266 101q-96 104 -96 260z" />
    <glyph glyph-name="ubreve.alt" horiz-adv-x="1073" 
d="M623 1186q-109 0 -171.5 64.5t-62.5 176.5h96q5 -76 41.5 -112.5t110.5 -36.5q150 0 205 149h96q-32 -115 -115 -178t-200 -63zM35 338q0 48 14 119l123 575h104l-124 -598q-11 -60 -11 -98q0 -118 72.5 -190t200.5 -72q313 0 395 401l115 557h104l-211 -1032h-104
l37 178q-109 -201 -353 -201q-168 0 -266 101q-96 104 -96 260z" />
    <glyph glyph-name="uring.alt" horiz-adv-x="1073" 
d="M608 1100q-69 0 -112 41.5t-43 107.5q0 75 54.5 132t129.5 57q69 0 113.5 -43t44.5 -109q0 -75 -54.5 -130.5t-132.5 -55.5zM614 1174q42 0 73.5 32.5t31.5 71.5q0 37 -24 60.5t-62 23.5q-42 0 -73.5 -31.5t-31.5 -73.5q0 -37 24 -60t62 -23zM35 338q0 48 14 119l123 575
h104l-124 -598q-11 -60 -11 -98q0 -118 72.5 -190t200.5 -72q313 0 395 401l115 557h104l-211 -1032h-104l37 178q-109 -201 -353 -201q-168 0 -266 101q-96 104 -96 260z" />
    <glyph glyph-name="uhungarumlaut.alt" horiz-adv-x="1073" 
d="M35 338q0 48 14 119l123 575h104l-124 -598q-11 -60 -11 -98q0 -118 72.5 -190t200.5 -72q313 0 395 401l115 557h104l-211 -1032h-104l37 178q-109 -201 -353 -201q-168 0 -266 101q-96 104 -96 260zM788 1130h-83l204 297h135zM473 1130h-84l205 297h135z" />
    <glyph glyph-name="uogonek.alt" horiz-adv-x="1073" 
d="M35 338q0 48 14 119l123 575h104l-124 -598q-11 -60 -11 -98q0 -118 72.5 -190t200.5 -72q313 0 395 401l115 557h104l-211 -1032q-207 -112 -207 -223q0 -38 26.5 -62t70.5 -24q61 0 116 24l-37 -84q-42 -22 -102 -22q-75 0 -122.5 40.5t-47.5 106.5q0 145 199 244v4
l37 174q-109 -201 -353 -201q-168 0 -266 101q-96 104 -96 260z" />
    <glyph glyph-name="wgrave.alt" horiz-adv-x="1542" 
d="M895 1130h-82l-113 297h134zM733 522l-385 -575l-246 1085h105l188 -842l301 453l-102 389h106l72 -287l186 287h117l-266 -409l115 -435l534 844h115l-690 -1085z" />
    <glyph glyph-name="wacute.alt" horiz-adv-x="1542" 
d="M866 1130h-88l183 297h139zM733 522l-385 -575l-246 1085h105l188 -842l301 453l-102 389h106l72 -287l186 287h117l-266 -409l115 -435l534 844h115l-690 -1085z" />
    <glyph glyph-name="wcircumflex.alt" horiz-adv-x="1542" 
d="M668 1180h-136l377 286l256 -286h-125l-147 190zM733 522l-385 -575l-246 1085h105l188 -842l301 453l-102 389h106l72 -287l186 287h117l-266 -409l115 -435l534 844h115l-690 -1085z" />
    <glyph glyph-name="wdieresis.alt" horiz-adv-x="1542" 
d="M1081 1233q-31 0 -49 18t-18 47q0 31 24 56.5t56 25.5q31 0 50 -19t19 -48q0 -32 -24 -56t-58 -24zM651 1233q-31 0 -50 18t-19 47q0 31 25 56.5t57 25.5q31 0 50 -19t19 -48q0 -32 -24 -56t-58 -24zM733 522l-385 -575l-246 1085h105l188 -842l301 453l-102 389h106
l72 -287l186 287h117l-266 -409l115 -435l534 844h115l-690 -1085z" />
    <glyph glyph-name="fj.alt" horiz-adv-x="929" 
d="M180 0h-102l192 936h-159l18 96h160l28 139q26 135 114.5 208t225.5 73q90 0 121 -8l-18 -96q-36 8 -117 8q-180 0 -227 -203l-25 -121h479l-290 -1427h-105l270 1331h-372z" />
    <glyph glyph-name="fl.alt" horiz-adv-x="980" 
d="M180 0h-102l192 936h-159l18 96h160l28 139q26 134 109 207.5t213 73.5q69 0 100 -8l-20 -96q-27 8 -94 8q-165 0 -209 -203l-25 -121h227l-18 -96h-227zM711 0h-105l291 1427h104z" />
    <glyph glyph-name="ffj.alt" horiz-adv-x="1409" 
d="M180 0h-102l192 936h-159l18 96h160l28 139q26 136 110 208.5t212 72.5q76 0 100 -8l-20 -96q-27 8 -96 8q-166 0 -207 -203l-25 -121h377l29 139q26 135 114.5 208t225.5 73q89 0 120 -8l-18 -96q-36 8 -117 8q-180 0 -227 -203l-25 -121h480l-291 -1427h-105l271 1331
h-373l-193 -936h-102l193 936h-377z" />
    <glyph glyph-name="ffl.alt" horiz-adv-x="1439" 
d="M180 0h-102l192 936h-159l18 96h160l28 139q26 136 110 208.5t212 72.5q76 0 100 -8l-20 -96q-27 8 -96 8q-166 0 -207 -203l-25 -121h377l29 139q26 136 109.5 208.5t211.5 72.5q77 0 101 -8l-21 -96q-27 8 -96 8q-166 0 -207 -203l-25 -121h228l-19 -96h-227l-193 -936
h-102l193 936h-377zM1169 0h-104l291 1427h104z" />
    <glyph glyph-name="zero.onum" horiz-adv-x="1081" 
d="M25 346q0 90 55 297q46 188 172.5 300t322.5 112q173 0 287 -105q115 -103 115 -260q0 -105 -51 -299l-27 -90q-13 -41 -51 -104q-40 -68 -86 -109q-55 -47 -141.5 -79t-188.5 -32q-179 0 -293 105t-114 264zM133 350q0 -120 84 -195t225 -75q287 0 373 317
q51 191 51 279q0 121 -83 198.5t-214 77.5q-150 0 -244.5 -87t-134.5 -228q-54 -179 -57 -287z" />
    <glyph glyph-name="one.onum" horiz-adv-x="673" 
d="M338 0h-105l181 885l-295 -133l-31 96l465 211z" />
    <glyph glyph-name="two.onum" horiz-adv-x="970" 
d="M768 0h-887l688 487q116 83 160 146q39 59 39 125q0 86 -70 140t-180 54q-121 0 -211 -84q-86 -83 -104 -192h-107q15 146 137 262q120 117 293 117q154 0 248 -82q98 -79 98 -205q0 -190 -227 -348l-463 -322h606z" />
    <glyph glyph-name="three.onum" horiz-adv-x="1021" 
d="M-115 33l101 39q35 -103 126 -159t216 -56q166 0 280 108q115 109 115 246q0 118 -82.5 193t-216.5 75q-117 0 -193 -18l514 473h-622l20 98h844l-508 -469h13q147 0 241 -98q94 -94 94 -250q0 -179 -137 -319q-139 -142 -371 -142q-153 0 -272.5 74t-161.5 205z" />
    <glyph glyph-name="four.onum" horiz-adv-x="1105" 
d="M715 0h-801l696 1032h119l-627 -934h633l68 338h104l-168 -831h-104z" />
    <glyph glyph-name="five.onum" horiz-adv-x="1042" 
d="M-72 27l95 41q31 -95 121.5 -153t213.5 -58q170 0 281 114t111 262q0 130 -91.5 212.5t-238.5 82.5q-164 0 -316 -96l232 600h608l-20 -98h-516l-136 -340q59 35 156 35q186 0 307 -109t121 -276q0 -188 -135 -338q-134 -152 -371 -152q-146 0 -268 76q-119 73 -154 197z
" />
    <glyph glyph-name="six.onum" horiz-adv-x="1083" 
d="M23 389q0 134 63 234q69 110 211 260l516 544h133l-530 -565q57 23 110 23q184 0 301 -117q119 -113 119 -295q0 -197 -143 -346q-144 -150 -359 -150q-184 0 -305 115q-116 113 -116 297zM127 395q0 -140 89 -227.5t235 -87.5q165 0 278 119q115 121 115 268
q0 140 -90.5 227.5t-237.5 87.5q-161 0 -274 -116q-115 -118 -115 -271z" />
    <glyph glyph-name="seven.onum" horiz-adv-x="999" 
d="M117 -395h-119l844 1329h-731l22 98h895z" />
    <glyph glyph-name="eight.onum" horiz-adv-x="1093" 
d="M16 375q0 161 105 293q108 135 260 172q-115 83 -115 233q0 151 115 266q118 115 276 115q144 0 238 -88q94 -85 94 -225q0 -109 -63.5 -204t-165.5 -136q87 -42 144 -134t57 -196q0 -198 -144 -348t-362 -150q-190 0 -316 111q-123 114 -123 291zM604 854q116 0 197 84
q80 86 80 195q0 96 -66 157.5t-166 61.5q-112 0 -194 -82t-82 -193q0 -98 64 -160.5t167 -62.5zM127 387q0 -137 92.5 -224t239.5 -87q164 0 278 114q113 116 113 267q0 135 -94 223q-91 88 -236 88q-160 0 -278 -115q-115 -115 -115 -266z" />
    <glyph glyph-name="nine.onum" horiz-adv-x="1081" 
d="M276 0h-129l523 569q-45 -26 -127 -26q-181 0 -295 114q-113 113 -113 295q0 197 148 348q150 150 354 150q184 0 305 -115q119 -113 119 -297q0 -117 -66 -221q-63 -99 -213 -266zM567 645q169 0 279 125t110 262q0 140 -91 228t-238 88q-159 0 -273 -117t-114 -268
q0 -140 90.5 -229t236.5 -89z" />
    <glyph glyph-name="zero.tnum" horiz-adv-x="1071" 
d="M25 362q0 63 67 383q45 214 62 273q45 200 174.5 318t320.5 118q172 0 283 -108q112 -106 112 -277q0 -80 -61 -385q-41 -196 -61 -274q-2 -8 -29 -99q-13 -44 -51 -110q-40 -70 -88 -115q-52 -47 -138.5 -80t-185.5 -33q-178 0 -293 109q-112 109 -112 280zM135 369
q0 -132 82 -212.5t223 -80.5q286 0 375 342q7 24 59 266q62 304 62 369q0 131 -82 215t-211 84q-144 0 -242.5 -93.5t-136.5 -248.5q-19 -59 -61 -265q-68 -301 -68 -376z" />
    <glyph glyph-name="one.tnum" horiz-adv-x="1071" 
d="M586 0h-107l260 1278l-506 -254l-28 94l680 344z" />
    <glyph glyph-name="two.tnum" horiz-adv-x="1071" 
d="M844 0h-950l851 778q179 164 179 307q0 117 -81 192t-210 75q-128 0 -221 -84q-92 -86 -101 -203h-106q18 161 137 274q121 115 301 115q171 0 279 -102q110 -101 110 -260q0 -187 -190 -365l-697 -629h719z" />
    <glyph glyph-name="three.tnum" horiz-adv-x="1071" 
d="M-41 272l100 37q26 -110 116 -171.5t228 -61.5q180 0 299 125q123 126 123 282q0 151 -100 244q-104 96 -264 96q-116 0 -180 -20l567 526h-580l21 98h803l-557 -522q16 4 28 4q161 -15 262 -131q105 -117 105 -286q0 -205 -152 -363q-150 -156 -385 -156
q-163 0 -281 81.5t-153 217.5z" />
    <glyph glyph-name="four.tnum" horiz-adv-x="1071" 
d="M770 340h-801l746 1087h121l-680 -987h632l68 336h107l-158 -776h-107z" />
    <glyph glyph-name="five.tnum" horiz-adv-x="1071" 
d="M-41 256l96 43q37 -106 125 -164.5t211 -58.5q182 0 305 129q125 128 125 293q0 151 -94 245q-97 97 -246 97q-170 0 -321 -97l262 684h588l-21 -98h-497l-160 -420q62 33 157 33q193 0 312 -125q123 -123 123 -315q0 -209 -154 -369t-387 -160q-150 0 -265 76.5
t-159 206.5z" />
    <glyph glyph-name="six.tnum" horiz-adv-x="1073" 
d="M31 377q0 89 39 174q40 89 84 147q39 53 133 164l16 19l459 546h121l-500 -600q65 41 158 41q178 0 290 -112q115 -112 115 -283q0 -196 -143 -348t-354 -152q-186 0 -302 113t-116 291zM141 381q0 -134 88.5 -219.5t227.5 -85.5q163 0 274 117t111 266q0 135 -90.5 222
t-231.5 87q-154 0 -268 -117q-111 -114 -111 -270z" />
    <glyph glyph-name="seven.tnum" horiz-adv-x="1071" 
d="M240 0h-123l891 1329h-828l21 98h999z" />
    <glyph glyph-name="eight.tnum" horiz-adv-x="1071" 
d="M12 375q0 161 105 293q107 134 258 172q-119 82 -119 233q0 153 113 266q115 115 270 115q140 0 229.5 -87t89.5 -226q0 -109 -61 -203q-62 -95 -160 -135q86 -42 141.5 -134.5t55.5 -197.5q0 -198 -141 -348t-355 -150q-187 0 -307 111q-119 113 -119 291zM586 854
q110 0 188 84q76 85 76 195q0 97 -61 158t-158 61q-110 0 -189 -82q-77 -83 -77 -193q0 -98 61.5 -160.5t159.5 -62.5zM121 387q0 -137 90 -224t231 -87q165 0 273 114q108 117 108 267q0 136 -89.5 223.5t-229.5 87.5q-156 0 -271 -115q-112 -112 -112 -266z" />
    <glyph glyph-name="nine.tnum" horiz-adv-x="1071" 
d="M317 0h-120l499 600q-65 -41 -157 -41q-179 0 -293 111q-113 113 -113 284q0 196 141 346q145 154 357 154q183 0 301 -115q117 -114 117 -288q0 -87 -41 -177q-44 -95 -82 -147q-27 -36 -133 -162l-17 -18zM559 659q154 0 266 115q113 116 113 273q0 134 -88 219.5
t-227 85.5q-164 0 -275 -117q-110 -116 -110 -266q0 -135 90 -222.5t231 -87.5z" />
    <glyph glyph-name="four.alt" horiz-adv-x="1126" 
d="M-80 285h-2l1114 1196l-223 -1096h174l-20 -100h-175l-59 -285h-111l60 285h-758zM854 1145l-709 -760h553z" />
    <glyph glyph-name="four.onum.alt" horiz-adv-x="1075" 
d="M-137 0h-2l1036 1071l-197 -973h164l-20 -98h-164l-82 -395h-106l79 395h-708zM725 750l-631 -652h498z" />
    <glyph glyph-name="four.tnum.alt" horiz-adv-x="1071" 
d="M-63 285h-3l1059 1196l-223 -1096h143l-20 -100h-143l-58 -285h-108l57 285h-704zM815 1130l-661 -745h508z" />
    <glyph glyph-name="foursuperior.alt" horiz-adv-x="743" 
d="M84 817h-2l616 651l-116 -575h90l-15 -76h-90l-30 -145h-80l30 145h-403zM571 1233l-321 -340h254z" />
    <glyph glyph-name="four.inferior.alt" horiz-adv-x="743" 
d="M-53 145h-2l616 652l-115 -576h91l-17 -76h-88l-31 -145h-79l30 145h-405zM436 561l-321 -340h252z" />
    <glyph glyph-name="onequarter.alt" horiz-adv-x="1347" 
d="M106 0h-104l1135 1427h102zM299 672h-78l137 682h-98l16 73h177zM539 145h-2l616 652l-115 -576h90l-16 -76h-90l-29 -145h-80l29 145h-403zM1026 561l-319 -340h251z" />
    <glyph glyph-name="threequarters.alt" horiz-adv-x="1521" 
d="M307 0h-102l1134 1427h103zM111 848l71 24q40 -141 203 -141q88 0 154 60q63 57 63 137q0 70 -53 114.5t-139 44.5q-82 0 -121 -20l307 287h-315l16 73h473l-305 -278h14q92 -10 146.5 -69t54.5 -146q0 -114 -86 -197q-85 -82 -217 -82q-102 0 -174 53t-92 140zM713 145
h-2l616 652l-115 -576h91l-17 -76h-88l-31 -145h-80l31 145h-405zM1202 561l-321 -340h252z" />
    <glyph glyph-name="published" horiz-adv-x="1656" 
d="M78 625q0 329 239 577q242 248 576 248q304 0 496 -186t192 -476q0 -204 -102 -391q-100 -182 -293 -303q-189 -119 -424 -119q-304 0 -494 181t-190 469zM150 627q0 -259 169 -422q170 -164 447 -164q206 0 383 109q171 109 266.5 278t95.5 356q0 264 -172 433
q-167 167 -446 167q-148 3 -288 -61.5t-240 -170t-159.5 -245t-55.5 -280.5zM600 240l-94 2l37 180l82 407l63 308h244q117 0 191.5 -71.5t74.5 -182.5q0 -120 -92 -215t-225 -95h-213zM764 1044l-78 -380h205q87 0 149 65t62 148q0 74 -49 120.5t-127 46.5h-162z" />
    <glyph glyph-name="colon.case" horiz-adv-x="352" 
d="M223 909q-29 0 -48 18.5t-19 47.5q0 31 24.5 56.5t55.5 25.5t50 -18.5t19 -49.5q0 -33 -23.5 -56.5t-58.5 -23.5zM109 344q-29 0 -48.5 18.5t-19.5 47.5q0 31 24.5 56.5t55.5 25.5t50 -18.5t19 -49.5q0 -33 -23 -56.5t-58 -23.5z" />
    <glyph glyph-name="semicolon.case" horiz-adv-x="432" 
d="M279 909q-31 0 -50.5 18.5t-19.5 47.5q0 31 25 56.5t57 25.5q31 0 50 -19.5t19 -48.5q0 -32 -23.5 -56t-57.5 -24zM254 457l-320 -457h-94l277 457h137z" />
    <glyph glyph-name="bullet.case" horiz-adv-x="458" 
d="M219 590q-51 0 -82 29.5t-31 76.5q0 56 39.5 98t94.5 42q50 0 82 -31.5t32 -79.5q0 -55 -39.5 -95t-95.5 -40z" />
    <glyph glyph-name="periodcentered.case" horiz-adv-x="342" 
d="M164 637q-31 0 -49.5 18t-18.5 47q0 32 24 57t56 25q31 0 50.5 -18t19.5 -47q0 -33 -23.5 -57.5t-58.5 -24.5z" />
    <glyph glyph-name="guilsinglleft.case" horiz-adv-x="491" 
d="M336 324h-111l-153 358l299 358h127l-310 -370z" />
    <glyph glyph-name="guilsinglright.case" horiz-adv-x="491" 
d="M109 324h-129l309 370l-148 346h111l154 -358z" />
    <glyph glyph-name="guillemotleft.case" horiz-adv-x="757" 
d="M604 324h-110l-154 358l299 358h127l-309 -370zM336 324h-111l-153 358l299 358h127l-310 -370z" />
    <glyph glyph-name="guillemotright.case" horiz-adv-x="757" 
d="M375 324h-127l309 370l-147 346h110l154 -358zM106 324h-126l309 370l-148 346h111l154 -358z" />
    <glyph glyph-name="slash.case" horiz-adv-x="833" 
d="M979 1593l-1002 -1759h-112l999 1759h115z" />
    <glyph glyph-name="backslash.case" horiz-adv-x="833" 
d="M608 -166h-96l-285 1759h97z" />
    <glyph glyph-name="hyphen.case" horiz-adv-x="718" 
d="M616 666h-534l20 96h533z" />
    <glyph glyph-name="endash.case" horiz-adv-x="948" 
d="M848 666h-766l18 96h766z" />
    <glyph glyph-name="emdash.case" horiz-adv-x="1488" 
d="M1389 666h-1307l18 96h1307z" />
    <glyph glyph-name="parenleft.case" horiz-adv-x="567" 
d="M424 -211l-64 -57q-284 321 -284 805q0 320 173 608t507 526l43 -63q-623 -475 -623 -1104q0 -421 248 -715z" />
    <glyph glyph-name="parenright.case" horiz-adv-x="567" 
d="M-193 -270l-43 63q623 475 623 1104q0 421 -248 715l64 57q284 -321 284 -805q0 -320 -173 -608t-507 -526z" />
    <glyph glyph-name="bracketleft.case" horiz-adv-x="587" 
d="M451 1528l-332 -1626h297l-19 -99h-403l371 1823h403l-20 -98h-297z" />
    <glyph glyph-name="bracketright.case" horiz-adv-x="587" 
d="M-162 -98h295l332 1626h-297l20 98h406l-371 -1823h-405z" />
    <glyph glyph-name="braceleft.case" horiz-adv-x="620" 
d="M100 45l86 424q9 41 9 68q0 138 -136 147l13 68q173 15 211 194l94 459q46 223 250 223h90l-17 -84h-73q-121 0 -148 -139l-92 -451q-21 -104 -64 -161.5t-128 -81.5q98 -46 98 -174q0 -15 -10 -93l-86 -419q-4 -36 -4 -41q0 -43 29.5 -69t80.5 -26h62l-19 -84h-70
q-86 0 -134 50t-48 135q0 28 6 55z" />
    <glyph glyph-name="braceright.case" horiz-adv-x="620" 
d="M143 29l93 450q21 104 64 162t128 82q-98 46 -98 174q0 14 10 92l86 420q4 36 4 41q0 43 -30 68.5t-81 25.5h-61l18 84h70q86 0 134 -49.5t48 -134.5q0 -28 -6 -55l-86 -424q-8 -36 -8 -68q0 -135 135 -147l-12 -68q-173 -15 -211 -195l-94 -458q-46 -224 -250 -224h-90
l16 84h74q120 0 147 140z" />
    <glyph glyph-name="exclamdown.case" horiz-adv-x="456" 
d="M356 1303q-31 0 -49 18t-18 47q0 51 50 73.5t81 -9.5q16 -21 16.5 -50t-22 -54t-58.5 -25zM147 0h-129l246 1110h88z" />
    <glyph glyph-name="questiondown.case" horiz-adv-x="800" 
d="M541 1303q-31 0 -50.5 19t-19.5 48q0 32 24 56t58 24q31 0 50.5 -18.5t19.5 -47.5q0 -31 -25 -56t-57 -25zM420 1112q109 0 177.5 -57.5t68.5 -149.5q0 -111 -70 -184q-75 -75 -221 -164l-64 -39l-57 -35q-4 -3 -42.5 -29.5t-47.5 -35.5q-1 -2 -9.5 -11t-13.5 -14.5
t-12 -15t-11.5 -17.5t-6.5 -16q-19 -59 -19 -98q0 -75 60.5 -122.5t158.5 -47.5q141 0 277 112l-25 -118q-107 -93 -260 -93q-141 0 -231 73t-90 188q0 104 51 188q16 30 71 76q62 48 89 65l120 76l54 33q73 44 108 72q41 32 58.5 64.5t23.5 84.5q0 51 -39 83t-104 32
q-68 0 -129 -27l20 102q61 25 115 25z" />
    <glyph glyph-name="at.case" horiz-adv-x="1646" 
d="M68 637q-4 155 61.5 306t176.5 263t263 180t312 64q306 0 503 -182t197 -465q0 -189 -104 -332q-101 -143 -252 -143q-67 0 -115 29.5t-61 80.5q-7 21 -7 45q-33 -59 -105.5 -98t-160.5 -39q-143 0 -231 88q-90 90 -90 225q0 160 114 283q117 123 285 123
q95 0 160.5 -39.5t91.5 -103.5l24 125h95l-97 -484q-8 -31 -8 -53q0 -43 30 -68.5t81 -25.5q107 0 180 116q74 118 74 267q0 249 -170 405q-171 160 -441 160q-295 0 -503 -217q-209 -218 -209 -500q0 -257 166 -420q167 -164 434 -164q147 0 266 52l27 -80
q-135 -60 -299 -60q-302 0 -496 185q-192 186 -192 477zM549 670q0 -103 64.5 -167.5t168.5 -64.5q127 0 209 94q84 96 84 234q0 93 -65 151t-170 58q-125 0 -207 -94q-84 -93 -84 -211z" />
    <glyph glyph-name="Agrave.alt1" horiz-adv-x="1366" 
d="M831 1229h-92l-94 198h146zM293 377l-264 -377h-123l829 1194h90l342 -1194h-108l-109 377h-657zM760 1051l-400 -574h562z" />
    <glyph glyph-name="Aacute.alt1" horiz-adv-x="1366" 
d="M838 1229h-95l121 198h152zM293 377l-264 -377h-123l829 1194h90l342 -1194h-108l-109 377h-657zM760 1051l-400 -574h562z" />
    <glyph glyph-name="Acircumflex.alt1" horiz-adv-x="1366" 
d="M643 1229h-133l317 229l217 -229h-120l-109 139zM293 377l-264 -377h-123l829 1194h90l342 -1194h-108l-109 377h-657zM760 1051l-400 -574h562z" />
    <glyph glyph-name="Atilde.alt1" horiz-adv-x="1366" 
d="M567 1272l-75 6q24 74 77 118t123 44q60 0 125 -45q67 -43 109 -43q80 0 118 96l76 -6q-53 -176 -205 -176q-61 0 -131 43q-65 45 -108 45q-75 0 -109 -82zM293 377l-264 -377h-123l829 1194h90l342 -1194h-108l-109 377h-657zM760 1051l-400 -574h562z" />
    <glyph glyph-name="Adieresis.alt1" horiz-adv-x="1378" 
d="M27 0h-121l915 1466l320 -1466h-107l-86 389h-680zM1079 1329q-31 0 -50 18.5t-19 47.5q0 31 25 56.5t57 25.5q30 0 48.5 -19t18.5 -49q0 -33 -22.5 -56.5t-57.5 -23.5zM557 1329q-31 0 -50.5 18.5t-19.5 47.5q0 31 25 56.5t57 25.5q31 0 50.5 -19.5t19.5 -48.5
q0 -32 -24 -56t-58 -24zM774 1206l-440 -719h592z" />
    <glyph glyph-name="Amacron.alt1" horiz-adv-x="1366" 
d="M1098 1341h-602l18 86h602zM293 377l-264 -377h-123l829 1194h90l342 -1194h-108l-109 377h-657zM760 1051l-400 -574h562z" />
    <glyph glyph-name="Abreve.alt1" horiz-adv-x="1366" 
d="M786 1245q-90 0 -144 51t-54 131h90q9 -96 123 -96q117 0 164 96h92q-59 -182 -271 -182zM293 377l-264 -377h-123l829 1194h90l342 -1194h-108l-109 377h-657zM760 1051l-400 -574h562z" />
    <glyph glyph-name="Aring.alt1" horiz-adv-x="1359" 
d="M279 377l-250 -377h-123l772 1159q-51 36 -51 107q0 74 55.5 130t130.5 56q68 0 112 -43t44 -109q0 -47 -27 -89t-70 -66l293 -1145h-108l-96 377h-682zM788 1192q44 0 74.5 30t30.5 72q0 37 -24 59.5t-62 22.5q-42 0 -73.5 -31.5t-31.5 -70.5q0 -37 24 -59.5t62 -22.5z
M772 1116l-426 -639h590z" />
    <glyph glyph-name="Aringacute.alt1" horiz-adv-x="1316" 
d="M291 377l-260 -377h-123l723 1053q-41 30 -41 88q0 69 50.5 120.5t119.5 51.5q7 0 39 -4l78 118h145l-150 -161q33 -33 33 -92q0 -41 -24 -79.5t-62 -58.5l301 -1036h-110l-109 377h-610zM739 1077q38 0 65 27t27 63q0 32 -21 52t-56 20q-37 0 -63.5 -27.5t-26.5 -64.5
q0 -31 21.5 -50.5t53.5 -19.5zM721 1004l-363 -527h514z" />
    <glyph glyph-name="Aogonek.alt1" horiz-adv-x="1378" 
d="M45 0h-119l916 1466l252 -1153q-201 -103 -201 -198q0 -58 84 -58q57 0 115 25l-37 -84q-44 -23 -107 -23q-68 0 -109.5 31t-41.5 84q0 133 186 221l-14 78h-680zM795 1206l-443 -719h594z" />
    <glyph glyph-name="AEacute.alt1" horiz-adv-x="1982" 
d="M1331 1229h-94l121 198h153zM457 375l-420 -375h-148l1340 1194h737l-22 -98h-660l-84 -414h623l-23 -98h-620l-99 -486h676l-20 -98h-781l76 375h-575zM1161 1001l-590 -528h482z" />
    <glyph glyph-name="Cacute.alt1" horiz-adv-x="1302" 
d="M848 1229h-94l120 198h154zM63 514q0 272 205 471q206 203 496 203q152 0 283.5 -63.5t209.5 -182.5l-81 -59q-66 97 -177 152t-241 55q-242 0 -414 -175q-172 -172 -172 -395q0 -196 137 -321t359 -125t393 151l65 -67q-195 -183 -467 -183q-256 0 -428 152
q-168 149 -168 387z" />
    <glyph glyph-name="Ccircumflex.alt1" horiz-adv-x="1302" 
d="M662 1229h-134l318 229l217 -229h-121l-111 139zM63 514q0 272 205 471q206 203 496 203q152 0 283.5 -63.5t209.5 -182.5l-81 -59q-66 97 -177 152t-241 55q-242 0 -414 -175q-172 -172 -172 -395q0 -196 137 -321t359 -125t393 151l65 -67q-195 -183 -467 -183
q-256 0 -428 152q-168 149 -168 387z" />
    <glyph glyph-name="Ccaron.alt1" horiz-adv-x="1302" 
d="M1124 1427l-315 -210l-215 210h121l108 -122l168 122h133zM63 514q0 272 205 471q206 203 496 203q152 0 283.5 -63.5t209.5 -182.5l-81 -59q-66 97 -177 152t-241 55q-242 0 -414 -175q-172 -172 -172 -395q0 -196 137 -321t359 -125t393 151l65 -67
q-195 -183 -467 -183q-256 0 -428 152q-168 149 -168 387z" />
    <glyph glyph-name="Cdotaccent.alt1" horiz-adv-x="1302" 
d="M825 1288q-31 0 -50 18.5t-19 47.5q0 31 25 55.5t57 24.5q31 0 50 -18.5t19 -47.5q0 -32 -24 -56t-58 -24zM63 514q0 272 205 471q206 203 496 203q152 0 283.5 -63.5t209.5 -182.5l-81 -59q-66 97 -177 152t-241 55q-242 0 -414 -175q-172 -172 -172 -395
q0 -196 137 -321t359 -125t393 151l65 -67q-195 -183 -467 -183q-256 0 -428 152q-168 149 -168 387z" />
    <glyph glyph-name="Ccedilla.alt1" horiz-adv-x="1343" 
d="M453 -2l34 53q45 -26 91 -26q92 0 92 49t-121 49q-1 0 -11 -1t-14 -1l80 123q-220 35 -354 178q-133 145 -133 354q0 271 205 473q206 203 495 203q151 0 284 -64t210 -182l-82 -61q-68 99 -176.5 153t-241.5 54q-242 0 -414 -172t-172 -396q0 -196 137 -321t359 -125
t393 151l66 -69q-197 -182 -467 -182q-29 0 -35 2l-47 -74q119 0 119 -90q0 -55 -45.5 -87t-118.5 -32q-86 0 -133 41z" />
    <glyph glyph-name="Dcaron.alt1" horiz-adv-x="1400" 
d="M1110 1427l-315 -210l-215 210h120l109 -122l168 122h133zM567 0h-516l244 1194h360q273 0 451 -152q174 -149 174 -387q0 -123 -50.5 -241t-142.5 -211q-93 -94 -229 -148.5t-291 -54.5zM389 1092l-207 -990h389q263 0 433 164q167 164 167 383q0 196 -143 318
q-140 125 -371 125h-268z" />
    <glyph glyph-name="Egrave.alt1" horiz-adv-x="1097" 
d="M764 1229h-92l-94 198h147zM829 0h-778l244 1194h766l-21 -102h-653l-88 -408h616l-18 -102h-614l-103 -480h668z" />
    <glyph glyph-name="Eacute.alt1" horiz-adv-x="1097" 
d="M711 1229h-95l121 198h154zM829 0h-778l244 1194h766l-21 -102h-653l-88 -408h616l-18 -102h-614l-103 -480h668z" />
    <glyph glyph-name="Ecircumflex.alt1" horiz-adv-x="1097" 
d="M545 1229h-133l319 229l217 -229h-123l-108 139zM829 0h-778l244 1194h766l-21 -102h-653l-88 -408h616l-18 -102h-614l-103 -480h668z" />
    <glyph glyph-name="Ecaron.alt1" horiz-adv-x="1097" 
d="M993 1427l-315 -210l-215 210h121l108 -122l168 122h133zM829 0h-778l244 1194h766l-21 -102h-653l-88 -408h616l-18 -102h-614l-103 -480h668z" />
    <glyph glyph-name="Edieresis.alt1" horiz-adv-x="1097" 
d="M893 1288q-31 0 -50.5 18.5t-19.5 47.5q0 31 25 55.5t57 24.5q31 0 49.5 -18.5t18.5 -47.5q0 -33 -22.5 -56.5t-57.5 -23.5zM498 1288q-29 0 -48.5 18.5t-19.5 47.5q0 31 25 55.5t57 24.5q31 0 50.5 -18.5t19.5 -47.5q0 -33 -24.5 -56.5t-59.5 -23.5zM829 0h-778
l244 1194h766l-21 -102h-653l-88 -408h616l-18 -102h-614l-103 -480h668z" />
    <glyph glyph-name="Emacron.alt1" horiz-adv-x="1097" 
d="M997 1341h-602l19 86h602zM829 0h-778l244 1194h766l-21 -102h-653l-88 -408h616l-18 -102h-614l-103 -480h668z" />
    <glyph glyph-name="Ebreve.alt1" horiz-adv-x="1097" 
d="M684 1245q-91 0 -146 51t-55 131h90q12 -96 125 -96q114 0 164 96h90q-59 -182 -268 -182zM829 0h-778l244 1194h766l-21 -102h-653l-88 -408h616l-18 -102h-614l-103 -480h668z" />
    <glyph glyph-name="Edotaccent.alt1" horiz-adv-x="1097" 
d="M688 1288q-29 0 -48 18.5t-19 47.5q0 31 24.5 55.5t56.5 24.5q31 0 50.5 -18.5t19.5 -47.5q0 -33 -24 -56.5t-60 -23.5zM829 0h-778l244 1194h766l-21 -102h-653l-88 -408h616l-18 -102h-614l-103 -480h668z" />
    <glyph glyph-name="Eogonek.alt1" horiz-adv-x="1097" 
d="M768 233h-670l244 1194h766l-21 -102h-653l-88 -407h617l-19 -103h-614l-103 -479h668l-18 -103q-70 -26 -114 -63.5t-44 -77.5q0 -35 51 -35q48 0 96 25l-37 -86q-35 -21 -94 -21q-52 0 -83 24.5t-31 66.5q0 100 147 167z" />
    <glyph glyph-name="Gcircumflex.alt1" horiz-adv-x="1366" 
d="M664 1229h-132l318 229l217 -229h-121l-110 139zM61 500q0 275 203 481q207 207 500 207q142 0 262.5 -54.5t192.5 -156.5l-82 -62q-132 175 -387 175q-231 0 -406 -172q-172 -172 -172 -396q0 -199 135 -325q138 -123 350 -123q99 0 198.5 32t164.5 87l67 335h-436
l23 101h543l-99 -492q-90 -77 -215 -120.5t-254 -43.5q-255 0 -424 152q-164 153 -164 375z" />
    <glyph glyph-name="Gbreve.alt1" horiz-adv-x="1366" 
d="M817 1245q-91 0 -146 51t-55 131h91q12 -96 124 -96q114 0 164 96h90q-59 -182 -268 -182zM61 500q0 275 203 481q207 207 500 207q142 0 262.5 -54.5t192.5 -156.5l-82 -62q-132 175 -387 175q-231 0 -406 -172q-172 -172 -172 -396q0 -199 135 -325q138 -123 350 -123
q99 0 198.5 32t164.5 87l67 335h-436l23 101h543l-99 -492q-90 -77 -215 -120.5t-254 -43.5q-255 0 -424 152q-164 153 -164 375z" />
    <glyph glyph-name="Gdotaccent.alt1" horiz-adv-x="1366" 
d="M825 1288q-31 0 -50 18.5t-19 47.5q0 31 25 55.5t57 24.5q31 0 50 -18.5t19 -47.5q0 -32 -24 -56t-58 -24zM61 500q0 275 203 481q207 207 500 207q142 0 262.5 -54.5t192.5 -156.5l-82 -62q-132 175 -387 175q-231 0 -406 -172q-172 -172 -172 -396q0 -199 135 -325
q138 -123 350 -123q99 0 198.5 32t164.5 87l67 335h-436l23 101h543l-99 -492q-90 -77 -215 -120.5t-254 -43.5q-255 0 -424 152q-164 153 -164 375z" />
    <glyph glyph-name="Gcommaaccent.alt1" horiz-adv-x="1366" 
d="M705 238q-256 0 -424 151q-164 153 -164 375q0 276 202 481q207 207 500 207q142 0 261.5 -54t193.5 -157l-82 -61q-135 172 -387 172q-231 0 -406 -172q-174 -168 -174 -394q0 -199 135 -325q137 -125 351 -125q98 0 196.5 33t165.5 88l70 338h-436l20 98h543l-99 -492
q-87 -77 -212 -120t-254 -43zM567 0h-94l121 199h154z" />
    <glyph glyph-name="Hcircumflex.alt1" horiz-adv-x="1449" 
d="M690 1229h-133l317 229l218 -229h-121l-111 139zM160 0h-109l291 1427h109l-125 -620h839l125 620h111l-291 -1427h-111l146 709h-840z" />
    <glyph glyph-name="Igrave.alt1" horiz-adv-x="514" 
d="M412 1229h-93l-94 198h146zM166 0h-107l244 1194h107z" />
    <glyph glyph-name="Iacute.alt1" horiz-adv-x="514" 
d="M403 1229h-94l121 198h154zM166 0h-107l244 1194h107z" />
    <glyph glyph-name="Icircumflex.alt1" horiz-adv-x="514" 
d="M229 1229h-127l301 229l203 -229h-117l-100 139zM166 0h-107l244 1194h107z" />
    <glyph glyph-name="Itilde.alt1" horiz-adv-x="514" 
d="M150 1272l-76 6q26 74 78 118t122 44q60 0 125 -45q70 -43 111 -43q79 0 117 96l75 -6q-53 -176 -204 -176q-60 0 -127 43q-65 45 -111 45q-76 0 -110 -82zM166 0h-107l244 1194h107z" />
    <glyph glyph-name="Idieresis.alt1" horiz-adv-x="514" 
d="M535 1288q-31 0 -49.5 18.5t-18.5 47.5q0 31 24 55.5t56 24.5q31 0 50 -18.5t19 -47.5q0 -32 -23.5 -56t-57.5 -24zM219 1288q-31 0 -49 18t-18 48q0 31 23.5 55.5t55.5 24.5q31 0 50.5 -18.5t19.5 -47.5q0 -32 -24 -56t-58 -24zM166 0h-107l244 1194h107z" />
    <glyph glyph-name="Imacron.alt1" horiz-adv-x="514" 
d="M639 1341h-518l18 86h516zM166 0h-107l244 1194h107z" />
    <glyph glyph-name="Ibreve.alt1" horiz-adv-x="514" 
d="M369 1245q-91 0 -146 51t-55 131h90q12 -96 125 -96q114 0 164 96h90q-59 -182 -268 -182zM166 0h-107l244 1194h107z" />
    <glyph glyph-name="Idotaccent.alt1" horiz-adv-x="514" 
d="M383 1288q-31 0 -50.5 18.5t-19.5 47.5q0 31 25 55.5t57 24.5q31 0 50.5 -18.5t19.5 -47.5q0 -32 -24 -56t-58 -24zM166 0h-107l244 1194h107z" />
    <glyph glyph-name="Iogonek.alt1" horiz-adv-x="514" 
d="M-31 66q0 107 137 165v2l244 1194h107l-244 -1194q-65 -26 -106 -63.5t-41 -77.5q0 -35 53 -35q48 0 96 25l-35 -86q-38 -21 -98 -21q-52 0 -82.5 24.5t-30.5 66.5z" />
    <glyph glyph-name="Jcircumflex.alt1" horiz-adv-x="653" 
d="M383 1229h-127l301 229l203 -229h-117l-98 139zM51 -18q-102 0 -153 26l20 96q58 -22 129 -22q103 0 157.5 70t86.5 227l168 815h106l-164 -813q-40 -199 -114 -301q-70 -98 -236 -98z" />
    <glyph glyph-name="Kcommaaccent.alt1" horiz-adv-x="1241" 
d="M160 0h-109l291 1427h109l-166 -811l903 811h141l-708 -641l442 -786h-119l-405 719l-285 -258zM477 0h-94l117 199h145z" />
    <glyph glyph-name="Lacute.alt1" horiz-adv-x="1003" 
d="M395 1229h-94l121 198h153zM772 0h-721l244 1194h108l-223 -1096h613z" />
    <glyph glyph-name="Lcommaaccent.alt1" horiz-adv-x="1003" 
d="M819 233h-721l244 1194h109l-224 -1095h613zM381 0h-94l121 199h153z" />
    <glyph glyph-name="Nacute.alt1" horiz-adv-x="1499" 
d="M160 0h-109l297 1466l750 -1230l243 1191h109l-299 -1464l-750 1229zM850 1229h-94l121 198h153z" />
    <glyph glyph-name="Ncaron.alt1" horiz-adv-x="1499" 
d="M160 0h-109l297 1466l750 -1230l243 1191h109l-299 -1464l-750 1229zM1155 1427l-313 -210l-215 210h121l108 -122l168 122h131z" />
    <glyph glyph-name="Ntilde.alt1" horiz-adv-x="1499" 
d="M160 0h-109l297 1466l750 -1230l243 1191h109l-299 -1464l-750 1229zM653 1272l-75 6q25 74 77 118t119 44q61 0 123 -45q64 -43 107 -43q74 0 112 96l76 -6q-53 -176 -201 -176q-61 0 -125 43q-62 45 -106 45q-77 0 -107 -82z" />
    <glyph glyph-name="Ncommaaccent.alt1" horiz-adv-x="1499" 
d="M160 0h-109l297 1466l750 -1230l243 1191h109l-299 -1464l-750 1229zM569 0h-94l121 199h154z" />
    <glyph glyph-name="Ograve.alt1" horiz-adv-x="1476" 
d="M909 1229h-92l-94 198h147zM63 520q0 268 205 467q207 201 492 201q262 0 430 -154q168 -152 168 -393q0 -259 -201 -463q-200 -203 -500 -203q-259 0 -428 152q-166 153 -166 393zM172 528q0 -199 137 -327q139 -127 357 -127q244 0 413 172q170 176 170 389
q0 199 -139 326q-138 129 -358 129q-240 0 -410 -170t-170 -392z" />
    <glyph glyph-name="Oacute.alt1" horiz-adv-x="1476" 
d="M868 1229h-96l121 198h154zM63 520q0 268 205 467q207 201 492 201q262 0 430 -154q168 -152 168 -393q0 -259 -201 -463q-200 -203 -500 -203q-259 0 -428 152q-166 153 -166 393zM172 528q0 -199 137 -327q139 -127 357 -127q244 0 413 172q170 176 170 389
q0 199 -139 326q-138 129 -358 129q-240 0 -410 -170t-170 -392z" />
    <glyph glyph-name="Ocircumflex.alt1" horiz-adv-x="1476" 
d="M690 1229h-133l317 229l218 -229h-121l-111 139zM63 520q0 268 205 467q207 201 492 201q262 0 430 -154q168 -152 168 -393q0 -259 -201 -463q-200 -203 -500 -203q-259 0 -428 152q-166 153 -166 393zM172 528q0 -199 137 -327q139 -127 357 -127q244 0 413 172
q170 176 170 389q0 199 -139 326q-138 129 -358 129q-240 0 -410 -170t-170 -392z" />
    <glyph glyph-name="Otilde.alt1" horiz-adv-x="1476" 
d="M614 1272l-75 6q24 74 77 118t123 44q60 0 125 -45q67 -43 109 -43q81 0 119 96l75 -6q-53 -176 -204 -176q-62 0 -129 43q-65 45 -111 45q-75 0 -109 -82zM63 520q0 268 205 467q207 201 492 201q262 0 430 -154q168 -152 168 -393q0 -259 -201 -463
q-200 -203 -500 -203q-259 0 -428 152q-166 153 -166 393zM172 528q0 -199 137 -327q139 -127 357 -127q244 0 413 172q170 176 170 389q0 199 -139 326q-138 129 -358 129q-240 0 -410 -170t-170 -392z" />
    <glyph glyph-name="Odieresis.alt1" horiz-adv-x="1654" 
d="M1376 1395q0 31 25 56.5t57 25.5q31 0 50.5 -19.5t19.5 -48.5q0 -32 -24 -56t-58 -24q-31 0 -50.5 18.5t-19.5 47.5zM334 1329q-31 0 -49.5 18.5t-18.5 47.5q0 31 24 56.5t56 25.5q31 0 50.5 -19.5t19.5 -48.5q0 -32 -24 -56t-58 -24zM84 625q0 330 235 577
q238 250 568 250q301 0 487 -186q191 -188 191 -478q0 -204 -103 -393q-100 -181 -291 -303q-188 -117 -415 -117q-295 0 -484 183q-188 182 -188 467zM190 633q0 -246 158 -404q158 -155 416 -155q190 0 354 102q160 102 250 263t90 341q0 250 -160 410q-158 162 -415 162
q-286 0 -490 -219q-203 -218 -203 -500z" />
    <glyph glyph-name="Omacron.alt1" horiz-adv-x="1476" 
d="M1141 1341h-602l18 86h602zM63 520q0 268 205 467q207 201 492 201q262 0 430 -154q168 -152 168 -393q0 -259 -201 -463q-200 -203 -500 -203q-259 0 -428 152q-166 153 -166 393zM172 528q0 -199 137 -327q139 -127 357 -127q244 0 413 172q170 176 170 389
q0 199 -139 326q-138 129 -358 129q-240 0 -410 -170t-170 -392z" />
    <glyph glyph-name="Obreve.alt1" horiz-adv-x="1476" 
d="M836 1245q-91 0 -146 51t-55 131h90q12 -96 123 -96q117 0 164 96h92q-30 -89 -100 -135.5t-168 -46.5zM63 520q0 268 205 467q207 201 492 201q262 0 430 -154q168 -152 168 -393q0 -259 -201 -463q-200 -203 -500 -203q-259 0 -428 152q-166 153 -166 393zM172 528
q0 -199 137 -327q139 -127 357 -127q244 0 413 172q170 176 170 389q0 199 -139 326q-138 129 -358 129q-240 0 -410 -170t-170 -392z" />
    <glyph glyph-name="Ohungarumlaut.alt1" horiz-adv-x="1476" 
d="M993 1229h-78l150 198h123zM700 1229h-79l151 198h123zM63 520q0 268 205 467q207 201 492 201q262 0 430 -154q168 -152 168 -393q0 -259 -201 -463q-200 -203 -500 -203q-259 0 -428 152q-166 153 -166 393zM172 528q0 -199 137 -327q139 -127 357 -127q244 0 413 172
q170 176 170 389q0 199 -139 326q-138 129 -358 129q-240 0 -410 -170t-170 -392z" />
    <glyph glyph-name="Oslashacute.alt1" horiz-adv-x="1476" 
d="M877 1229h-95l121 198h154zM160 -63l-68 59l131 137q-160 151 -160 387q0 268 205 467q207 201 492 201q213 0 370 -109l140 144l65 -60l-135 -139q158 -152 158 -383q0 -259 -201 -463q-200 -203 -500 -203q-209 0 -364 103zM299 211l756 790q-127 89 -303 89
q-240 0 -410 -170t-170 -392q0 -190 127 -317zM1126 946l-757 -792q127 -80 297 -80q244 0 413 172q170 176 170 389q0 185 -123 311z" />
    <glyph glyph-name="Racute.alt1" horiz-adv-x="1179" 
d="M686 1229h-96l121 198h153zM162 0h-111l244 1194h412q160 0 264 -90q102 -88 102 -232q0 -138 -87.5 -243.5t-240.5 -141.5l211 -487h-118l-207 477h-371zM385 1092l-109 -514h383q130 0 218 88t88 204q0 97 -72.5 159.5t-187.5 62.5h-320z" />
    <glyph glyph-name="Rcaron.alt1" horiz-adv-x="1179" 
d="M979 1427l-313 -210l-215 210h120l109 -122l168 122h131zM162 0h-111l244 1194h412q160 0 264 -90q102 -88 102 -232q0 -138 -87.5 -243.5t-240.5 -141.5l211 -487h-118l-207 477h-371zM385 1092l-109 -514h383q130 0 218 88t88 204q0 97 -72.5 159.5t-187.5 62.5h-320z
" />
    <glyph glyph-name="Rcommaaccent.alt1" horiz-adv-x="1210" 
d="M160 0h-109l289 1427h410q175 0 282 -104q111 -105 111 -268q0 -158 -105 -287q-106 -131 -266 -160l221 -608h-114l-220 596h-376zM428 1329l-127 -633h383q147 0 250 109q102 108 102 246q0 123 -82 200.5t-211 77.5h-315zM442 0h-94l121 199h154z" />
    <glyph glyph-name="Sacute.alt1" horiz-adv-x="997" 
d="M627 1229h-95l121 198h152zM-14 248l92 41q86 -215 330 -215q132 0 217.5 69.5t85.5 173.5q0 80 -55.5 136.5t-180.5 113.5q-145 67 -209.5 133.5t-64.5 167.5q0 141 106 228q109 92 256 92q110 0 193.5 -49.5t120.5 -137.5l-97 -43q-65 132 -227 132q-102 0 -172 -60
t-70 -145q0 -76 52 -125.5t180 -106.5q145 -65 210.5 -138t65.5 -181q0 -150 -112 -256q-114 -105 -310 -105q-149 0 -261 75t-150 200z" />
    <glyph glyph-name="Scircumflex.alt1" horiz-adv-x="1001" 
d="M442 1229h-131l318 229l217 -229h-121l-111 139zM-14 248l92 41q86 -215 330 -215q132 0 217.5 69.5t85.5 173.5q0 80 -55.5 136.5t-180.5 113.5q-145 67 -209.5 133.5t-64.5 167.5q0 141 106 228q109 92 256 92q110 0 193.5 -49.5t120.5 -137.5l-97 -43
q-65 132 -227 132q-102 0 -172 -60t-70 -145q0 -76 52 -125.5t180 -106.5q145 -65 210.5 -138t65.5 -181q0 -150 -112 -256q-114 -105 -310 -105q-149 0 -261 75t-150 200z" />
    <glyph glyph-name="Scaron.alt1" horiz-adv-x="1001" 
d="M903 1427l-313 -210l-215 210h121l108 -122l168 122h131zM-14 248l92 41q86 -215 330 -215q132 0 217.5 69.5t85.5 173.5q0 80 -55.5 136.5t-180.5 113.5q-145 67 -209.5 133.5t-64.5 167.5q0 141 106 228q109 92 256 92q110 0 193.5 -49.5t120.5 -137.5l-97 -43
q-65 132 -227 132q-102 0 -172 -60t-70 -145q0 -76 52 -125.5t180 -106.5q145 -65 210.5 -138t65.5 -181q0 -150 -112 -256q-114 -105 -310 -105q-149 0 -261 75t-150 200z" />
    <glyph glyph-name="Scommaaccent.alt1" horiz-adv-x="1001" 
d="M451 240q-149 0 -261.5 74.5t-150.5 199.5l92 41q86 -215 330 -215q132 0 217.5 70t85.5 174q0 80 -55.5 136.5t-180.5 113.5q-144 65 -209 132t-65 167q0 140 106 227q109 92 256 92q111 0 194 -49t120 -137l-96 -43q-64 129 -228 129q-101 0 -172 -62q-69 -57 -69 -141
q0 -76 51.5 -124t179.5 -105q144 -64 210 -139t66 -183q0 -151 -112 -254q-113 -104 -309 -104zM352 0h-96l121 199h153z" />
    <glyph glyph-name="Scedilla.alt1" horiz-adv-x="1001" 
d="M231 -2l35 53q45 -26 90 -26q93 0 93 49t-121 49q-3 0 -12.5 -1t-12.5 -1l78 123q-126 17 -218 88t-124 180l92 39q86 -213 330 -213q132 0 217.5 69t85.5 173q0 82 -54.5 137.5t-181.5 113.5q-144 65 -209 132.5t-65 169.5q0 140 106 227q109 92 256 92q111 0 194 -49
t120 -137l-96 -45q-64 131 -228 131q-101 0 -172 -62q-69 -57 -69 -141q0 -78 51 -126t180 -105q144 -64 210 -139t66 -183q0 -148 -110 -252q-106 -103 -303 -106h-6l-43 -72q118 0 118 -90q0 -55 -45 -87t-118 -32q-93 0 -134 41z" />
    <glyph glyph-name="Tcaron.alt1" horiz-adv-x="1075" 
d="M944 1427l-313 -210l-215 210h119l108 -122l168 122h133zM446 0h-108l223 1096h-416l23 98h938l-23 -98h-415z" />
    <glyph glyph-name="Tcommaaccent.alt1" horiz-adv-x="1075" 
d="M494 233h-109l223 1096h-413l20 98h938l-20 -98h-416zM334 0h-96l124 199h142z" />
    <glyph glyph-name="Ugrave.alt1" 
d="M131 408q0 57 16 139l181 880h108l-188 -923q-8 -33 -8 -94q0 -150 97.5 -241t262.5 -91q175 0 289 101t155 300l195 948h109l-197 -968q-49 -238 -193.5 -358.5t-365.5 -120.5q-209 0 -334 116q-127 118 -127 312zM887 1229h-90l-97 198h148z" />
    <glyph glyph-name="Uacute.alt1" 
d="M131 408q0 57 16 139l181 880h108l-188 -923q-8 -33 -8 -94q0 -150 97.5 -241t262.5 -91q175 0 289 101t155 300l195 948h109l-197 -968q-49 -238 -193.5 -358.5t-365.5 -120.5q-209 0 -334 116q-127 118 -127 312zM782 1229h-94l121 198h154z" />
    <glyph glyph-name="Ucircumflex.alt1" 
d="M653 1229h-131l318 229l217 -229h-121l-111 139zM131 408q0 57 16 139l181 880h108l-188 -923q-8 -33 -8 -94q0 -150 97.5 -241t262.5 -91q175 0 289 101t155 300l195 948h109l-197 -968q-49 -238 -193.5 -358.5t-365.5 -120.5q-209 0 -334 116q-127 118 -127 312z" />
    <glyph glyph-name="Utilde.alt1" 
d="M586 1272l-76 6q25 74 78 118t123 44q60 0 125 -45q67 -43 110 -43q79 0 117 96l76 -6q-53 -176 -205 -176q-59 0 -129 43q-65 45 -111 45q-74 0 -108 -82zM131 408q0 57 16 139l181 880h108l-188 -923q-8 -33 -8 -94q0 -150 97.5 -241t262.5 -91q175 0 289 101t155 300
l195 948h109l-197 -968q-49 -238 -193.5 -358.5t-365.5 -120.5q-209 0 -334 116q-127 118 -127 312z" />
    <glyph glyph-name="Udieresis.alt1" 
d="M1006 1346q-31 0 -50.5 18t-19.5 47q0 31 25 56.5t57 25.5q30 0 49.5 -19.5t19.5 -48.5q0 -32 -23.5 -55.5t-57.5 -23.5zM651 1346q-29 0 -48 18t-19 47q0 31 24 56.5t56 25.5t50.5 -19t18.5 -49q0 -33 -23.5 -56t-58.5 -23zM131 408q0 57 16 139l181 880h108l-188 -923
q-8 -33 -8 -94q0 -150 97.5 -241t262.5 -91q175 0 289 101t155 300l195 948h109l-197 -968q-49 -238 -193.5 -358.5t-365.5 -120.5q-209 0 -334 116q-127 118 -127 312z" />
    <glyph glyph-name="Umacron.alt1" 
d="M131 408q0 57 16 139l181 880h108l-188 -923q-8 -33 -8 -94q0 -150 97.5 -241t262.5 -91q175 0 289 101t155 300l195 948h109l-197 -968q-49 -238 -193.5 -358.5t-365.5 -120.5q-209 0 -334 116q-127 118 -127 312zM1112 1341h-577l16 86h579z" />
    <glyph glyph-name="Ubreve.alt1" 
d="M131 408q0 57 16 139l181 880h108l-188 -923q-8 -33 -8 -94q0 -150 97.5 -241t262.5 -91q175 0 289 101t155 300l195 948h109l-197 -968q-49 -238 -193.5 -358.5t-365.5 -120.5q-209 0 -334 116q-127 118 -127 312zM801 1245q-91 0 -146 51t-55 131h90q12 -96 125 -96
q114 0 164 96h90q-59 -182 -268 -182z" />
    <glyph glyph-name="Uring.alt1" 
d="M795 1141q-69 0 -112.5 41.5t-43.5 107.5q0 74 55 130.5t129 56.5q69 0 113.5 -43.5t44.5 -110.5q0 -69 -55 -127q-52 -55 -131 -55zM131 408q0 57 16 139l181 880h108l-188 -923q-8 -33 -8 -94q0 -150 97.5 -241t262.5 -91q175 0 289 101t155 300l195 948h109l-197 -968
q-49 -238 -193.5 -358.5t-365.5 -120.5q-209 0 -334 116q-127 118 -127 312zM801 1214q43 0 73.5 31.5t30.5 73.5q0 37 -24 59.5t-62 22.5q-42 0 -73 -31.5t-31 -73.5q0 -36 24 -59t62 -23z" />
    <glyph glyph-name="Uhungarumlaut.alt1" 
d="M131 408q0 57 16 139l181 880h108l-188 -923q-8 -33 -8 -94q0 -150 97.5 -241t262.5 -91q175 0 289 101t155 300l195 948h109l-197 -968q-49 -238 -193.5 -358.5t-365.5 -120.5q-209 0 -334 116q-127 118 -127 312zM915 1229h-79l149 198h125zM623 1229h-80l151 198h123z
" />
    <glyph glyph-name="Uogonek.alt1" horiz-adv-x="1388" 
d="M590 78q0 102 117 160q-14 -2 -62 -2q-209 0 -334 116q-127 118 -127 312q0 52 17 139l127 624h108l-135 -667q-8 -33 -8 -94q0 -150 97.5 -241t262.5 -91q175 0 289.5 101t155.5 300l141 692h109l-144 -712q-59 -284 -254 -400q-26 -16 -84 -43l-90 -45q-36 -21 -64 -55
t-28 -68q0 -45 72 -45q54 0 110 29l-35 -86q-53 -21 -108 -20.5t-96 28t-37 68.5z" />
    </font>
</defs>
</svg>
